<svg xmlns="http://www.w3.org/2000/svg" width="1200" height="600" viewBox="0 0 1200 600" role="img" aria-labelledby="title-linear-vs-circular-genomes"><title id="title-linear-vs-circular-genomes">linear-vs-circular-genomes</title><defs><filter id="paperGrain" x="0" y="0" width="100%" height="100%"><feTurbulence type="fractalNoise" baseFrequency="0.9" numOctaves="2" seed="19" result="noise"/><feColorMatrix type="saturate" values="0"/><feBlend in="SourceGraphic" in2="noise" mode="multiply"/></filter><marker id="arrowCream" viewBox="0 0 10 10" refX="8" refY="5" markerWidth="8" markerHeight="8" orient="auto-start-reverse"><path d="M 0 0 L 10 5 L 0 10 Q 2 5 0 0" fill="#EE8B4F"/></marker><marker id="arrowInk" viewBox="0 0 10 10" refX="8" refY="5" markerWidth="7" markerHeight="7" orient="auto-start-reverse"><path d="M 0 0 L 10 5 L 0 10 Q 2 5 0 0" fill="#1F1A17"/></marker><linearGradient id="qualityGradient" x1="0%" x2="100%" y1="0%" y2="0%"><stop offset="0%" stop-color="#FAF4EA"/><stop offset="35%" stop-color="#F6B088"/><stop offset="100%" stop-color="#EE8B4F"/></linearGradient></defs><rect width="100%" height="100%" fill="#FAF4EA"/><rect width="100%" height="100%" fill="#FAF4EA" filter="url(#paperGrain)" opacity="0.34"/><g><text x="170" y="429.7" fill="#8A847A" font-family="Inter, Helvetica, sans-serif" font-size="28" font-weight="600" text-anchor="start" transform="rotate(-0.3 170 429.7)">linear chromosome</text><text x="820" y="506.3" fill="#8A847A" font-family="Inter, Helvetica, sans-serif" font-size="28" font-weight="600" text-anchor="start" transform="rotate(0.3 820 506.3)">circular genome</text><path d="M 145 275 L 187.5 280.9 L 230 273.5 L 272.5 269.4 L 315 278 L 357.5 279.8 L 400 270.8 L 442.5 271.3 L 485 280.2" fill="none" stroke="#EE8B4F" stroke-width="22" stroke-linecap="round" stroke-linejoin="round" opacity="1"/><path d="M 145 275 L 187.5 280.9 L 230 273.5 L 272.5 269.4 L 315 278 L 357.5 279.8 L 400 270.8 L 442.5 271.3 L 485 280.2" fill="none" stroke="#1F1A17" stroke-width="2.2" stroke-linecap="round" stroke-linejoin="round" opacity="0.75"/><line x1="140" y1="247" x2="140" y2="302" stroke="#1F1A17" stroke-width="4" stroke-linecap="round" opacity="1"/><line x1="490" y1="247" x2="490" y2="302" stroke="#1F1A17" stroke-width="4" stroke-linecap="round" opacity="1"/><text x="118" y="230" fill="#1F1A17" font-family="IBM Plex Mono, Menlo, monospace" font-size="32" font-weight="600" text-anchor="start">5'</text><text x="468" y="230" fill="#1F1A17" font-family="IBM Plex Mono, Menlo, monospace" font-size="32" font-weight="600" text-anchor="start">3'</text><path d="M 755 275 C 745 160 875 90 1005 145 C 1135 205 1120 380 995 430 C 860 482 730 405 755 275" fill="none" stroke="#EE8B4F" stroke-width="20" stroke-linecap="round" stroke-linejoin="round" opacity="1"/><path d="M 755 275 C 745 160 875 90 1005 145 C 1135 205 1120 380 995 430 C 860 482 730 405 755 275" fill="none" stroke="#1F1A17" stroke-width="2" stroke-linecap="round" stroke-linejoin="round" opacity="0.7"/><line x1="937" y1="129" x2="937" y2="84" stroke="#1F1A17" stroke-width="4" stroke-linecap="round" opacity="1"/><text x="937" y="65" fill="#1F1A17" font-family="IBM Plex Mono, Menlo, monospace" font-size="28" font-weight="600" text-anchor="middle">position 1</text></g></svg>
