<svg xmlns="http://www.w3.org/2000/svg" width="1400" height="300" viewBox="0 0 1400 300" role="img" aria-labelledby="title-position-coordinates"><title id="title-position-coordinates">position-coordinates</title><defs><filter id="paperGrain" x="0" y="0" width="100%" height="100%"><feTurbulence type="fractalNoise" baseFrequency="0.9" numOctaves="2" seed="19" result="noise"/><feColorMatrix type="saturate" values="0"/><feBlend in="SourceGraphic" in2="noise" mode="multiply"/></filter><marker id="arrowCream" viewBox="0 0 10 10" refX="8" refY="5" markerWidth="8" markerHeight="8" orient="auto-start-reverse"><path d="M 0 0 L 10 5 L 0 10 Q 2 5 0 0" fill="#EE8B4F"/></marker><marker id="arrowInk" viewBox="0 0 10 10" refX="8" refY="5" markerWidth="7" markerHeight="7" orient="auto-start-reverse"><path d="M 0 0 L 10 5 L 0 10 Q 2 5 0 0" fill="#1F1A17"/></marker><linearGradient id="qualityGradient" x1="0%" x2="100%" y1="0%" y2="0%"><stop offset="0%" stop-color="#FAF4EA"/><stop offset="35%" stop-color="#F6B088"/><stop offset="100%" stop-color="#EE8B4F"/></linearGradient></defs><rect width="100%" height="100%" fill="#FAF4EA"/><rect width="100%" height="100%" fill="#FAF4EA" filter="url(#paperGrain)" opacity="0.34"/><g><path d="M 135 190 L 203.8 195 L 272.5 188.7 L 341.3 185.4 L 410 192.5 L 478.8 194 L 547.5 186.5 L 616.3 186.9 L 685 194.3 L 753.8 192 L 822.5 185.2 L 891.3 189.3 L 960 195 L 1028.8 189.5 L 1097.5 185.1 L 1166.3 191.8 L 1235 194.4" fill="none" stroke="#EE8B4F" stroke-width="16" stroke-linecap="round" stroke-linejoin="round" opacity="1"/><path d="M 555 58 Q 676 38 812 62 L 823 123 Q 693 147 546 124 Z" fill="#FAF4EA" stroke="#EE8B4F" stroke-width="3" stroke-linecap="butt" stroke-linejoin="round" opacity="1"/><text x="684" y="96" fill="#1F1A17" font-family="IBM Plex Mono, Menlo, monospace" font-size="24" font-weight="600" text-anchor="middle">SARS-CoV-2 MN908947.3, 29,903 bases</text><path d="M 690 128 C 705 145 710 155 718 180" fill="none" stroke="#EE8B4F" stroke-width="3" stroke-linecap="round" stroke-linejoin="round" opacity="1"/><line x1="150" y1="166" x2="150" y2="215" stroke="#1F1A17" stroke-width="3" stroke-linecap="round" opacity="1"/><text x="150" y="258" fill="#1F1A17" font-family="IBM Plex Mono, Menlo, monospace" font-size="21" font-weight="600" text-anchor="middle">1</text><line x1="325" y1="162" x2="325" y2="219" stroke="#1F1A17" stroke-width="3" stroke-linecap="round" opacity="1"/><text x="325" y="258" fill="#1F1A17" font-family="IBM Plex Mono, Menlo, monospace" font-size="21" font-weight="600" text-anchor="middle">1000</text><line x1="565" y1="166" x2="565" y2="223" stroke="#1F1A17" stroke-width="3" stroke-linecap="round" opacity="1"/><text x="565" y="258" fill="#1F1A17" font-family="IBM Plex Mono, Menlo, monospace" font-size="21" font-weight="600" text-anchor="middle">5000</text><line x1="815" y1="162" x2="815" y2="215" stroke="#1F1A17" stroke-width="3" stroke-linecap="round" opacity="1"/><text x="815" y="258" fill="#1F1A17" font-family="IBM Plex Mono, Menlo, monospace" font-size="21" font-weight="600" text-anchor="middle">10000</text><line x1="1210" y1="166" x2="1210" y2="219" stroke="#1F1A17" stroke-width="3" stroke-linecap="round" opacity="1"/><text x="1210" y="258" fill="#1F1A17" font-family="IBM Plex Mono, Menlo, monospace" font-size="21" font-weight="600" text-anchor="middle">29903</text><text x="76" y="154" fill="#8A847A" font-family="Inter, Helvetica, sans-serif" font-size="21" font-weight="600" text-anchor="start">1-based</text></g></svg>
