<svg xmlns="http://www.w3.org/2000/svg" width="1400" height="500" viewBox="0 0 1400 500" role="img" aria-labelledby="title-variant-notation"><title id="title-variant-notation">variant-notation</title><defs><filter id="paperGrain" x="0" y="0" width="100%" height="100%"><feTurbulence type="fractalNoise" baseFrequency="0.9" numOctaves="2" seed="19" result="noise"/><feColorMatrix type="saturate" values="0"/><feBlend in="SourceGraphic" in2="noise" mode="multiply"/></filter><marker id="arrowCream" viewBox="0 0 10 10" refX="8" refY="5" markerWidth="8" markerHeight="8" orient="auto-start-reverse"><path d="M 0 0 L 10 5 L 0 10 Q 2 5 0 0" fill="#EE8B4F"/></marker><marker id="arrowInk" viewBox="0 0 10 10" refX="8" refY="5" markerWidth="7" markerHeight="7" orient="auto-start-reverse"><path d="M 0 0 L 10 5 L 0 10 Q 2 5 0 0" fill="#1F1A17"/></marker><linearGradient id="qualityGradient" x1="0%" x2="100%" y1="0%" y2="0%"><stop offset="0%" stop-color="#FAF4EA"/><stop offset="35%" stop-color="#F6B088"/><stop offset="100%" stop-color="#EE8B4F"/></linearGradient></defs><rect width="100%" height="100%" fill="#FAF4EA"/><rect width="100%" height="100%" fill="#FAF4EA" filter="url(#paperGrain)" opacity="0.34"/><g><g><path d="M 866 137 Q 888 131 909 139 Q 917 171 910 204 Q 888 211 865 203 Q 859 171 866 137 Z" fill="#F6B088" stroke="#F6B088" stroke-width="1" stroke-linecap="butt" stroke-linejoin="round" opacity="0.28"/><g><path d="M 874 162.3 L 880.6 163.7 L 887.2 161.9 L 893.7 161 L 900.3 163 L 906.9 163.4" fill="none" stroke="#F6B088" stroke-width="1.15" stroke-linecap="round" stroke-linejoin="round" opacity="0.044800000000000006"/><path d="M 874.1 180 L 880.6 181.4 L 887.2 179.6 L 893.7 178.7 L 900.3 180.7 L 906.8 181.1" fill="none" stroke="#F6B088" stroke-width="1.15" stroke-linecap="round" stroke-linejoin="round" opacity="0.044800000000000006"/></g></g><g><path d="M 1006 137 Q 1028 131 1049 139 Q 1057 171 1050 204 Q 1028 211 1005 203 Q 999 171 1006 137 Z" fill="#EE8B4F" stroke="#EE8B4F" stroke-width="1" stroke-linecap="butt" stroke-linejoin="round" opacity="0.22"/><g><path d="M 1015 162.3 L 1021.4 163.7 L 1027.8 161.9 L 1034.1 161 L 1040.5 163 L 1046.9 163.4" fill="none" stroke="#EE8B4F" stroke-width="1.15" stroke-linecap="round" stroke-linejoin="round" opacity="0.0352"/><path d="M 1015 180 L 1021.4 181.4 L 1027.7 179.6 L 1034.1 178.7 L 1040.4 180.7 L 1046.8 181.1" fill="none" stroke="#EE8B4F" stroke-width="1.15" stroke-linecap="round" stroke-linejoin="round" opacity="0.0352"/></g></g><text x="315" y="190" fill="#1F1A17" font-family="IBM Plex Mono, Menlo, monospace" font-size="56" font-weight="600" text-anchor="start">MN908947.3</text><text x="640" y="190" fill="#1F1A17" font-family="IBM Plex Mono, Menlo, monospace" font-size="56" font-weight="600" text-anchor="start">:</text><text x="675" y="190" fill="#1F1A17" font-family="IBM Plex Mono, Menlo, monospace" font-size="56" font-weight="600" text-anchor="start">21618</text><text x="841" y="190" fill="#1F1A17" font-family="IBM Plex Mono, Menlo, monospace" font-size="56" font-weight="600" text-anchor="start"> </text><text x="870" y="190" fill="#1F1A17" font-family="IBM Plex Mono, Menlo, monospace" font-size="56" font-weight="600" text-anchor="start">C</text><text x="940" y="190" fill="#1F1A17" font-family="IBM Plex Mono, Menlo, monospace" font-size="56" font-weight="600" text-anchor="start">&gt;</text><text x="1010" y="190" fill="#1F1A17" font-family="IBM Plex Mono, Menlo, monospace" font-size="56" font-weight="600" text-anchor="start">T</text><g><circle cx="380" cy="150" r="7" fill="#FAF4EA" stroke="#EE8B4F" stroke-width="3" opacity="1"/><path d="M 380 150 Q 312.5 121 285 92" fill="none" stroke="#EE8B4F" stroke-width="3" stroke-linecap="round" stroke-linejoin="round" opacity="1"/><text x="285" y="79.2" fill="#1F1A17" font-family="Inter, Helvetica, sans-serif" font-size="24" font-weight="700" text-anchor="end" transform="rotate(-0.8 285 79.2)">chromosome name</text></g><g><circle cx="652" cy="148" r="7" fill="#FAF4EA" stroke="#EE8B4F" stroke-width="3" opacity="1"/><path d="M 652 148 Q 616 111.5 620 75" fill="none" stroke="#EE8B4F" stroke-width="3" stroke-linecap="round" stroke-linejoin="round" opacity="1"/><text x="620" y="63.8" fill="#1F1A17" font-family="Inter, Helvetica, sans-serif" font-size="24" font-weight="700" text-anchor="end" transform="rotate(0.7 620 63.8)">colon separator</text></g><g><circle cx="760" cy="148" r="7" fill="#FAF4EA" stroke="#EE8B4F" stroke-width="3" opacity="1"/><path d="M 760 148 Q 825 120 930 92" fill="none" stroke="#EE8B4F" stroke-width="3" stroke-linecap="round" stroke-linejoin="round" opacity="1"/><text x="930" y="80.6" fill="#1F1A17" font-family="Inter, Helvetica, sans-serif" font-size="24" font-weight="700" text-anchor="start" transform="rotate(0.5 930 80.6)">1-based position</text></g><g><circle cx="875" cy="218" r="7" fill="#FAF4EA" stroke="#EE8B4F" stroke-width="3" opacity="1"/><path d="M 875 218 Q 857.5 273 800 328" fill="none" stroke="#EE8B4F" stroke-width="3" stroke-linecap="round" stroke-linejoin="round" opacity="1"/><text x="800" y="316.1" fill="#1F1A17" font-family="Inter, Helvetica, sans-serif" font-size="24" font-weight="700" text-anchor="end" transform="rotate(0.1 800 316.1)">reference base</text></g><g><circle cx="1020" cy="218" r="7" fill="#FAF4EA" stroke="#EE8B4F" stroke-width="3" opacity="1"/><path d="M 1020 218 Q 1082.5 273 1105 328" fill="none" stroke="#EE8B4F" stroke-width="3" stroke-linecap="round" stroke-linejoin="round" opacity="1"/><text x="1105" y="315.5" fill="#1F1A17" font-family="Inter, Helvetica, sans-serif" font-size="24" font-weight="700" text-anchor="start" transform="rotate(-0.4 1105 315.5)">alternate base</text></g></g></svg>
