<svg xmlns="http://www.w3.org/2000/svg" width="1400" height="600" viewBox="0 0 1400 600" role="img" aria-labelledby="title-cigar-anatomy"><title id="title-cigar-anatomy">cigar-anatomy</title><defs><filter id="paperGrain" x="0" y="0" width="100%" height="100%"><feTurbulence type="fractalNoise" baseFrequency="0.9" numOctaves="2" seed="19" result="noise"/><feColorMatrix type="saturate" values="0"/><feBlend in="SourceGraphic" in2="noise" mode="multiply"/></filter><marker id="arrowCream" viewBox="0 0 10 10" refX="8" refY="5" markerWidth="8" markerHeight="8" orient="auto-start-reverse"><path d="M 0 0 L 10 5 L 0 10 Q 2 5 0 0" fill="#EE8B4F"/></marker><marker id="arrowInk" viewBox="0 0 10 10" refX="8" refY="5" markerWidth="7" markerHeight="7" orient="auto-start-reverse"><path d="M 0 0 L 10 5 L 0 10 Q 2 5 0 0" fill="#1F1A17"/></marker><linearGradient id="qualityGradient" x1="0%" x2="100%" y1="0%" y2="0%"><stop offset="0%" stop-color="#FAF4EA"/><stop offset="35%" stop-color="#F6B088"/><stop offset="100%" stop-color="#EE8B4F"/></linearGradient></defs><rect width="100%" height="100%" fill="#FAF4EA"/><rect width="100%" height="100%" fill="#FAF4EA" filter="url(#paperGrain)" opacity="0.34"/><g><text x="145" y="70.9" fill="#1F1A17" font-family="Inter, Helvetica, sans-serif" font-size="22" font-weight="700" text-anchor="start" transform="rotate(0.8 145 70.9)">read sequence</text><g><path d="M 148 106 Q 193 100 237 108 Q 245 133 238 159 Q 193 166 147 158 Q 141 133 148 106 Z" fill="#F6B088" stroke="#1F1A17" stroke-width="1.2" stroke-linecap="butt" stroke-linejoin="round" opacity="0.85"/><g><path d="M 155.7 122.1 L 171 123.5 L 186.3 121.7 L 201.5 120.8 L 216.8 122.8 L 232.1 123.2" fill="none" stroke="#F6B088" stroke-width="1.15" stroke-linecap="round" stroke-linejoin="round" opacity="0.136"/><path d="M 155.6 144.4 L 170.9 145.8 L 186.2 144 L 201.6 143.1 L 216.9 145.1 L 232.2 145.5" fill="none" stroke="#F6B088" stroke-width="1.15" stroke-linecap="round" stroke-linejoin="round" opacity="0.136"/></g></g><text x="158" y="141" fill="#1F1A17" font-family="IBM Plex Mono, Menlo, monospace" font-size="20" font-weight="600" text-anchor="start">A</text><text x="175" y="141" fill="#1F1A17" font-family="IBM Plex Mono, Menlo, monospace" font-size="20" font-weight="600" text-anchor="start">C</text><text x="192" y="141" fill="#1F1A17" font-family="IBM Plex Mono, Menlo, monospace" font-size="20" font-weight="600" text-anchor="start">G</text><text x="209" y="141" fill="#1F1A17" font-family="IBM Plex Mono, Menlo, monospace" font-size="20" font-weight="600" text-anchor="start">T</text><text x="226" y="141" fill="#1F1A17" font-family="IBM Plex Mono, Menlo, monospace" font-size="20" font-weight="600" text-anchor="start">A</text><g><path d="M 244 106 Q 621 100 997 108 Q 1005 133 998 159 Q 621 166 243 158 Q 237 133 244 106 Z" fill="#EE8B4F" stroke="#1F1A17" stroke-width="1.2" stroke-linecap="butt" stroke-linejoin="round" opacity="0.72"/><g><path d="M 252.6 118.1 L 400.5 119.5 L 548.4 117.7 L 696.3 116.8 L 844.2 118.8 L 992.1 119.2" fill="none" stroke="#EE8B4F" stroke-width="1.15" stroke-linecap="round" stroke-linejoin="round" opacity="0.1152"/><path d="M 252.7 133.3 L 400.6 134.7 L 548.5 132.9 L 696.4 132 L 844.3 134 L 992.2 134.4" fill="none" stroke="#EE8B4F" stroke-width="1.15" stroke-linecap="round" stroke-linejoin="round" opacity="0.1152"/><path d="M 252.7 147.3 L 400.6 148.7 L 548.6 146.9 L 696.5 146 L 844.5 148 L 992.4 148.4" fill="none" stroke="#EE8B4F" stroke-width="1.15" stroke-linecap="round" stroke-linejoin="round" opacity="0.1152"/></g></g><text x="277" y="141" fill="#1F1A17" font-family="IBM Plex Mono, Menlo, monospace" font-size="20" font-weight="600" text-anchor="start">CGTTGACCTGAA</text><text x="621" y="140.3" fill="#1F1A17" font-family="Inter, Helvetica, sans-serif" font-size="22" font-weight="700" text-anchor="middle" transform="rotate(-0.6 621 140.3)">140 aligned bases</text><text x="821" y="141" fill="#1F1A17" font-family="IBM Plex Mono, Menlo, monospace" font-size="20" font-weight="600" text-anchor="start">TACGTAACCGT</text><g><path d="M 1004 106 Q 1049 100 1093 108 Q 1101 133 1094 159 Q 1049 166 1003 158 Q 997 133 1004 106 Z" fill="#F6B088" stroke="#1F1A17" stroke-width="1.2" stroke-linecap="butt" stroke-linejoin="round" opacity="0.85"/><g><path d="M 1012.9 121 L 1027.9 122.4 L 1043 120.6 L 1058 119.7 L 1073.1 121.7 L 1088.1 122.1" fill="none" stroke="#F6B088" stroke-width="1.15" stroke-linecap="round" stroke-linejoin="round" opacity="0.136"/><path d="M 1013 144.6 L 1028 146 L 1043.1 144.2 L 1058.1 143.3 L 1073.2 145.3 L 1088.2 145.7" fill="none" stroke="#F6B088" stroke-width="1.15" stroke-linecap="round" stroke-linejoin="round" opacity="0.136"/></g></g><text x="1014" y="141" fill="#1F1A17" font-family="IBM Plex Mono, Menlo, monospace" font-size="20" font-weight="600" text-anchor="start">T</text><text x="1031" y="141" fill="#1F1A17" font-family="IBM Plex Mono, Menlo, monospace" font-size="20" font-weight="600" text-anchor="start">T</text><text x="1048" y="141" fill="#1F1A17" font-family="IBM Plex Mono, Menlo, monospace" font-size="20" font-weight="600" text-anchor="start">G</text><text x="1065" y="141" fill="#1F1A17" font-family="IBM Plex Mono, Menlo, monospace" font-size="20" font-weight="600" text-anchor="start">C</text><text x="1082" y="141" fill="#1F1A17" font-family="IBM Plex Mono, Menlo, monospace" font-size="20" font-weight="600" text-anchor="start">A</text><text x="256" y="258.2" fill="#1F1A17" font-family="Inter, Helvetica, sans-serif" font-size="22" font-weight="700" text-anchor="start" transform="rotate(0.2 256 258.2)">reference</text><g><line x1="241" y1="280" x2="1001" y2="280" stroke="#1F1A17" stroke-width="5" stroke-linecap="round" opacity="1"/><path d="M 241 281.5 L 367.7 282.8 L 494.3 281.2 L 621 280.3 L 747.7 282.1 L 874.3 282.5 L 1001 280.6" fill="none" stroke="#1F1A17" stroke-width="1.1" stroke-linecap="round" stroke-linejoin="round" opacity="0.32"/></g><text x="273" y="317" fill="#1F1A17" font-family="IBM Plex Mono, Menlo, monospace" font-size="18" font-weight="600" text-anchor="start">CGTTGACCTGAA</text><text x="826" y="317" fill="#1F1A17" font-family="IBM Plex Mono, Menlo, monospace" font-size="18" font-weight="600" text-anchor="start">TACGTAACCGT</text><g><path d="M 145 178 Q 193 194 241 178 M 145 178 l 0 28 M 241 178 l 0 28" fill="none" stroke="#1F1A17" stroke-width="2.3" stroke-linecap="round" stroke-linejoin="round" opacity="1"/><text x="193" y="236" fill="#1F1A17" font-family="IBM Plex Mono, Menlo, monospace" font-size="22" font-weight="600" text-anchor="middle">5S</text></g><g><path d="M 241 178 Q 621 194 1001 178 M 241 178 l 0 28 M 1001 178 l 0 28" fill="none" stroke="#1F1A17" stroke-width="2.3" stroke-linecap="round" stroke-linejoin="round" opacity="1"/><text x="621" y="236" fill="#1F1A17" font-family="IBM Plex Mono, Menlo, monospace" font-size="22" font-weight="600" text-anchor="middle">140M</text></g><g><path d="M 1001 178 Q 1049 194 1097 178 M 1001 178 l 0 28 M 1097 178 l 0 28" fill="none" stroke="#1F1A17" stroke-width="2.3" stroke-linecap="round" stroke-linejoin="round" opacity="1"/><text x="1049" y="236" fill="#1F1A17" font-family="IBM Plex Mono, Menlo, monospace" font-size="22" font-weight="600" text-anchor="middle">5S</text></g><text x="610" y="435" fill="#1F1A17" font-family="IBM Plex Mono, Menlo, monospace" font-size="58" font-weight="600" text-anchor="middle">5S140M5S</text><line x1="241" y1="334" x2="241" y2="362" stroke="#8A847A" stroke-width="2" stroke-linecap="butt" opacity="1"/><text x="241" y="392" fill="#8A847A" font-family="IBM Plex Mono, Menlo, monospace" font-size="20" font-weight="600" text-anchor="middle">1000</text><text x="1085" y="344.5" fill="#1F1A17" font-family="Inter, Helvetica, sans-serif" font-size="23" font-weight="600" text-anchor="middle" transform="rotate(-0.5 1085 344.5)">soft-clipped bases keep their base calls</text><text x="1085" y="384.2" fill="#1F1A17" font-family="Inter, Helvetica, sans-serif" font-size="23" font-weight="600" text-anchor="middle" transform="rotate(0.2 1085 384.2)">they are not replaced with N</text></g></svg>
