<svg xmlns="http://www.w3.org/2000/svg" width="1400" height="350" viewBox="0 0 1400 350" role="img" aria-labelledby="title-coverage-histogram"><title id="title-coverage-histogram">coverage-histogram</title><defs><filter id="paperGrain" x="0" y="0" width="100%" height="100%"><feTurbulence type="fractalNoise" baseFrequency="0.9" numOctaves="2" seed="19" result="noise"/><feColorMatrix type="saturate" values="0"/><feBlend in="SourceGraphic" in2="noise" mode="multiply"/></filter><marker id="arrowCream" viewBox="0 0 10 10" refX="8" refY="5" markerWidth="8" markerHeight="8" orient="auto-start-reverse"><path d="M 0 0 L 10 5 L 0 10 Q 2 5 0 0" fill="#EE8B4F"/></marker><marker id="arrowInk" viewBox="0 0 10 10" refX="8" refY="5" markerWidth="7" markerHeight="7" orient="auto-start-reverse"><path d="M 0 0 L 10 5 L 0 10 Q 2 5 0 0" fill="#1F1A17"/></marker><linearGradient id="qualityGradient" x1="0%" x2="100%" y1="0%" y2="0%"><stop offset="0%" stop-color="#FAF4EA"/><stop offset="35%" stop-color="#F6B088"/><stop offset="100%" stop-color="#EE8B4F"/></linearGradient></defs><rect width="100%" height="100%" fill="#FAF4EA"/><rect width="100%" height="100%" fill="#FAF4EA" filter="url(#paperGrain)" opacity="0.34"/><g><g><line x1="110" y1="55" x2="110" y2="290" stroke="#1F1A17" stroke-width="3" stroke-linecap="butt" opacity="1"/><path d="M 110 56.5 L 110 57.8 L 110 56.2 L 110 55.3 L 110 57.1" fill="none" stroke="#1F1A17" stroke-width="1" stroke-linecap="butt" stroke-linejoin="round" opacity="0.32"/></g><g><line x1="110" y1="290" x2="1290" y2="290" stroke="#1F1A17" stroke-width="3" stroke-linecap="butt" opacity="1"/><path d="M 110 291.5 L 241.1 292.8 L 372.2 291.2 L 503.3 290.3 L 634.4 292.1 L 765.6 292.5 L 896.7 290.6 L 1027.8 290.7 L 1158.9 292.6 L 1290 292" fill="none" stroke="#1F1A17" stroke-width="1" stroke-linecap="butt" stroke-linejoin="round" opacity="0.32"/></g><path d="M 110 290 L 110 160 L 133 126.993451416281 L 156 101.3838353708073 L 179 88.4886994231415 L 202 90.12100067286406 L 225 104.25728609357802 L 248 125.88024031955598 L 271 148.69449970757682 L 294 167.1357336274395 L 317 178.0094210932662 L 340 181.23394415909516 L 363 179.47461466899944 L 386 176.8349679995199 L 409 177.09069244930475 L 432 182.10243559115452 L 455 190.97603858362282 L 478 200.27608295031033 L 501 205.23054541389655 L 524 201.51612320658685 L 547 187.00413450474187 L 570 162.847886260615 L 593 133.50505297490463 L 616 105.64240042128444 L 639 86.24665251265523 L 662 80.53780287445036 L 685 90.35749003619736 L 708 113.5584411199525 L 731 144.59928874490504 L 754 176.15879043111386 L 777 201.25418064975122 L 800 272 L 823 269 L 846 266 L 869 272 L 892 269 L 915 266 L 938 272 L 961 164.81131455873899 L 984 165.61214141096332 L 1007 163.39460008236972 L 1030 155.286548596116 L 1053 140.91882655835394 L 1076 122.89003950217207 L 1099 106.13864348543254 L 1122 96.40636851238582 L 1145 98.29591451564491 L 1168 113.57718077111338 L 1191 140.3275344051613 L 1214 173.22427037390645 L 1237 204.9299039825417 L 1260 228.14909139436455 L 1283 237.7108233167637 L 1283 290 Z" fill="#EE8B4F" stroke="#1F1A17" stroke-width="1.5" stroke-linecap="butt" stroke-linejoin="round" opacity="0.92"/><g><path d="M 813 179 Q 881 173 948 181 Q 956 232 949 284 Q 881 291 812 283 Q 806 232 813 179 Z" fill="#F6B088" stroke="#F6B088" stroke-width="2" stroke-linecap="butt" stroke-linejoin="round" opacity="0.34"/><g><path d="M 816.2 216.6 L 841 218 L 865.8 216.2 L 890.5 215.3 L 915.3 217.3 L 940.1 217.7" fill="none" stroke="#F6B088" stroke-width="1.15" stroke-linecap="round" stroke-linejoin="round" opacity="0.054400000000000004"/><path d="M 816.1 247.1 L 840.9 248.5 L 865.7 246.7 L 890.5 245.8 L 915.3 247.8 L 940.1 248.2" fill="none" stroke="#F6B088" stroke-width="1.15" stroke-linecap="round" stroke-linejoin="round" opacity="0.054400000000000004"/></g></g><g><circle cx="875" cy="222" r="7" fill="#FAF4EA" stroke="#EE8B4F" stroke-width="3" opacity="1"/><path d="M 875 222 Q 932.5 157 1030 92" fill="none" stroke="#EE8B4F" stroke-width="3" stroke-linecap="round" stroke-linejoin="round" opacity="1"/><text x="1030" y="80.3" fill="#1F1A17" font-family="Inter, Helvetica, sans-serif" font-size="24" font-weight="700" text-anchor="start" transform="rotate(0.3 1030 80.3)">low coverage</text></g><text x="74" y="297" fill="#8A847A" font-family="IBM Plex Mono, Menlo, monospace" font-size="16" font-weight="600" text-anchor="end">0</text><text x="74" y="239.5" fill="#8A847A" font-family="IBM Plex Mono, Menlo, monospace" font-size="16" font-weight="600" text-anchor="end">500</text><text x="74" y="182" fill="#8A847A" font-family="IBM Plex Mono, Menlo, monospace" font-size="16" font-weight="600" text-anchor="end">1000</text><text x="74" y="124.5" fill="#8A847A" font-family="IBM Plex Mono, Menlo, monospace" font-size="16" font-weight="600" text-anchor="end">1500</text><text x="74" y="67" fill="#8A847A" font-family="IBM Plex Mono, Menlo, monospace" font-size="16" font-weight="600" text-anchor="end">2000</text><text x="110" y="330" fill="#8A847A" font-family="IBM Plex Mono, Menlo, monospace" font-size="16" font-weight="600" text-anchor="middle">1</text><text x="405" y="330" fill="#8A847A" font-family="IBM Plex Mono, Menlo, monospace" font-size="16" font-weight="600" text-anchor="middle">500</text><text x="700" y="330" fill="#8A847A" font-family="IBM Plex Mono, Menlo, monospace" font-size="16" font-weight="600" text-anchor="middle">1000</text><text x="995" y="330" fill="#8A847A" font-family="IBM Plex Mono, Menlo, monospace" font-size="16" font-weight="600" text-anchor="middle">1500</text><text x="1290" y="330" fill="#8A847A" font-family="IBM Plex Mono, Menlo, monospace" font-size="16" font-weight="600" text-anchor="middle">2000</text></g></svg>
