<svg xmlns="http://www.w3.org/2000/svg" width="1000" height="700" viewBox="0 0 1000 700" role="img" aria-labelledby="title-pileup-view"><title id="title-pileup-view">pileup-view</title><defs><filter id="paperGrain" x="0" y="0" width="100%" height="100%"><feTurbulence type="fractalNoise" baseFrequency="0.9" numOctaves="2" seed="19" result="noise"/><feColorMatrix type="saturate" values="0"/><feBlend in="SourceGraphic" in2="noise" mode="multiply"/></filter><marker id="arrowCream" viewBox="0 0 10 10" refX="8" refY="5" markerWidth="8" markerHeight="8" orient="auto-start-reverse"><path d="M 0 0 L 10 5 L 0 10 Q 2 5 0 0" fill="#EE8B4F"/></marker><marker id="arrowInk" viewBox="0 0 10 10" refX="8" refY="5" markerWidth="7" markerHeight="7" orient="auto-start-reverse"><path d="M 0 0 L 10 5 L 0 10 Q 2 5 0 0" fill="#1F1A17"/></marker><linearGradient id="qualityGradient" x1="0%" x2="100%" y1="0%" y2="0%"><stop offset="0%" stop-color="#FAF4EA"/><stop offset="35%" stop-color="#F6B088"/><stop offset="100%" stop-color="#EE8B4F"/></linearGradient></defs><rect width="100%" height="100%" fill="#FAF4EA"/><rect width="100%" height="100%" fill="#FAF4EA" filter="url(#paperGrain)" opacity="0.34"/><g><g><path d="M 248 61 Q 340 55 431 63 Q 439 91 432 120 Q 340 127 247 119 Q 241 91 248 61 Z" fill="#EE8B4F" stroke="#EE8B4F" stroke-width="2" stroke-linecap="butt" stroke-linejoin="round" opacity="1"/><g><path d="M 256.9 83 L 290.5 84.4 L 324 82.6 L 357.6 81.7 L 391.1 83.7 L 424.7 84.1" fill="none" stroke="#EE8B4F" stroke-width="1.15" stroke-linecap="round" stroke-linejoin="round" opacity="0.16"/><path d="M 256.9 99.4 L 290.4 100.8 L 323.9 99 L 357.5 98.1 L 391 100.1 L 424.5 100.5" fill="none" stroke="#EE8B4F" stroke-width="1.15" stroke-linecap="round" stroke-linejoin="round" opacity="0.16"/></g></g><text x="340" y="102" fill="#1F1A17" font-family="IBM Plex Mono, Menlo, monospace" font-size="38" font-weight="600" text-anchor="middle">C</text><text x="480" y="99.1" fill="#1F1A17" font-family="Inter, Helvetica, sans-serif" font-size="22" font-weight="600" text-anchor="start" transform="rotate(-0.8 480 99.1)">reference</text><g><path d="M 223 156 Q 340 150 456 158 Q 464 170.5 457 184 Q 340 191 222 183 Q 216 170.5 223 156 Z" fill="#FAF4EA" stroke="#1F1A17" stroke-width="1" stroke-linecap="butt" stroke-linejoin="round" opacity="1"/></g><text x="340" y="179" fill="#1F1A17" font-family="IBM Plex Mono, Menlo, monospace" font-size="25" font-weight="600" text-anchor="middle">C</text><g><path d="M 233 198 Q 350 192 466 200 Q 474 212.5 467 226 Q 350 233 232 225 Q 226 212.5 233 198 Z" fill="#F6B088" stroke="#1F1A17" stroke-width="1" stroke-linecap="butt" stroke-linejoin="round" opacity="1"/><g><path d="M 240.4 209.5 L 284.1 210.9 L 327.8 209.1 L 371.6 208.2 L 415.3 210.2 L 459 210.6" fill="none" stroke="#F6B088" stroke-width="1.15" stroke-linecap="round" stroke-linejoin="round" opacity="0.16"/><path d="M 240.6 215.1 L 284.3 216.5 L 328 214.7 L 371.7 213.8 L 415.4 215.8 L 459.1 216.2" fill="none" stroke="#F6B088" stroke-width="1.15" stroke-linecap="round" stroke-linejoin="round" opacity="0.16"/></g></g><text x="340" y="221" fill="#1F1A17" font-family="IBM Plex Mono, Menlo, monospace" font-size="25" font-weight="600" text-anchor="middle">C</text><g><path d="M 223 240 Q 340 234 456 242 Q 464 254.5 457 268 Q 340 275 222 267 Q 216 254.5 223 240 Z" fill="#EE8B4F" stroke="#1F1A17" stroke-width="1" stroke-linecap="butt" stroke-linejoin="round" opacity="1"/><g><path d="M 229 247.9 L 274 249.3 L 319 247.5 L 363.9 246.6 L 408.9 248.6 L 453.9 249" fill="none" stroke="#EE8B4F" stroke-width="1.15" stroke-linecap="round" stroke-linejoin="round" opacity="0.16"/><path d="M 229.2 261.6 L 274.1 263 L 319.1 261.2 L 364 260.3 L 409 262.3 L 453.9 262.7" fill="none" stroke="#EE8B4F" stroke-width="1.15" stroke-linecap="round" stroke-linejoin="round" opacity="0.16"/></g></g><text x="340" y="263" fill="#1F1A17" font-family="IBM Plex Mono, Menlo, monospace" font-size="25" font-weight="600" text-anchor="middle">C</text><g><path d="M 233 282 Q 350 276 466 284 Q 474 296.5 467 310 Q 350 317 232 309 Q 226 296.5 233 282 Z" fill="#FAF4EA" stroke="#1F1A17" stroke-width="1" stroke-linecap="butt" stroke-linejoin="round" opacity="1"/></g><text x="340" y="305" fill="#1F1A17" font-family="IBM Plex Mono, Menlo, monospace" font-size="25" font-weight="600" text-anchor="middle">T</text><g><path d="M 223 324 Q 340 318 456 326 Q 464 338.5 457 352 Q 340 359 222 351 Q 216 338.5 223 324 Z" fill="#F6B088" stroke="#1F1A17" stroke-width="1" stroke-linecap="butt" stroke-linejoin="round" opacity="1"/><g><path d="M 229 330.2 L 273.7 331.6 L 318.4 329.8 L 363.1 328.9 L 407.8 330.9 L 452.5 331.3" fill="none" stroke="#F6B088" stroke-width="1.15" stroke-linecap="round" stroke-linejoin="round" opacity="0.16"/><path d="M 229.2 346.7 L 273.9 348.1 L 318.6 346.3 L 363.3 345.4 L 408 347.4 L 452.7 347.8" fill="none" stroke="#F6B088" stroke-width="1.15" stroke-linecap="round" stroke-linejoin="round" opacity="0.16"/></g></g><text x="340" y="347" fill="#1F1A17" font-family="IBM Plex Mono, Menlo, monospace" font-size="25" font-weight="600" text-anchor="middle">C</text><g><path d="M 233 366 Q 350 360 466 368 Q 474 380.5 467 394 Q 350 401 232 393 Q 226 380.5 233 366 Z" fill="#EE8B4F" stroke="#1F1A17" stroke-width="1" stroke-linecap="butt" stroke-linejoin="round" opacity="1"/><g><path d="M 240.4 374.9 L 284.6 376.3 L 328.8 374.5 L 372.9 373.6 L 417.1 375.6 L 461.3 376" fill="none" stroke="#EE8B4F" stroke-width="1.15" stroke-linecap="round" stroke-linejoin="round" opacity="0.16"/><path d="M 240.6 386.7 L 284.7 388.1 L 328.8 386.3 L 372.9 385.4 L 417 387.4 L 461.1 387.8" fill="none" stroke="#EE8B4F" stroke-width="1.15" stroke-linecap="round" stroke-linejoin="round" opacity="0.16"/></g></g><text x="340" y="389" fill="#1F1A17" font-family="IBM Plex Mono, Menlo, monospace" font-size="25" font-weight="600" text-anchor="middle">C</text><g><path d="M 223 408 Q 340 402 456 410 Q 464 422.5 457 436 Q 340 443 222 435 Q 216 422.5 223 408 Z" fill="#F6B088" stroke="#1F1A17" stroke-width="1" stroke-linecap="butt" stroke-linejoin="round" opacity="1"/><g><path d="M 229 417 L 273 418.4 L 317 416.6 L 361 415.7 L 405 417.7 L 449 418.1" fill="none" stroke="#F6B088" stroke-width="1.15" stroke-linecap="round" stroke-linejoin="round" opacity="0.16"/><path d="M 229.2 427.4 L 273.2 428.8 L 317.2 427 L 361.2 426.1 L 405.2 428.1 L 449.2 428.5" fill="none" stroke="#F6B088" stroke-width="1.15" stroke-linecap="round" stroke-linejoin="round" opacity="0.16"/></g></g><text x="340" y="431" fill="#1F1A17" font-family="IBM Plex Mono, Menlo, monospace" font-size="25" font-weight="600" text-anchor="middle">T</text><g><path d="M 233 450 Q 350 444 466 452 Q 474 464.5 467 478 Q 350 485 232 477 Q 226 464.5 233 450 Z" fill="#EE8B4F" stroke="#1F1A17" stroke-width="1" stroke-linecap="butt" stroke-linejoin="round" opacity="1"/><g><path d="M 240.4 456.2 L 285.1 457.6 L 329.8 455.8 L 374.5 454.9 L 419.2 456.9 L 463.9 457.3" fill="none" stroke="#EE8B4F" stroke-width="1.15" stroke-linecap="round" stroke-linejoin="round" opacity="0.16"/><path d="M 240.6 472.9 L 285.3 474.3 L 329.9 472.5 L 374.6 471.6 L 419.2 473.6 L 463.9 474" fill="none" stroke="#EE8B4F" stroke-width="1.15" stroke-linecap="round" stroke-linejoin="round" opacity="0.16"/></g></g><text x="340" y="473" fill="#1F1A17" font-family="IBM Plex Mono, Menlo, monospace" font-size="25" font-weight="600" text-anchor="middle">C</text><g><path d="M 223 492 Q 340 486 456 494 Q 464 506.5 457 520 Q 340 527 222 519 Q 216 506.5 223 492 Z" fill="#FAF4EA" stroke="#1F1A17" stroke-width="1" stroke-linecap="butt" stroke-linejoin="round" opacity="1"/></g><text x="340" y="515" fill="#1F1A17" font-family="IBM Plex Mono, Menlo, monospace" font-size="25" font-weight="600" text-anchor="middle">C</text><g><path d="M 233 534 Q 350 528 466 536 Q 474 548.5 467 562 Q 350 569 232 561 Q 226 548.5 233 534 Z" fill="#F6B088" stroke="#1F1A17" stroke-width="1" stroke-linecap="butt" stroke-linejoin="round" opacity="1"/><g><path d="M 240.4 542 L 284.8 543.4 L 329.3 541.6 L 373.7 540.7 L 418.2 542.7 L 462.6 543.1" fill="none" stroke="#F6B088" stroke-width="1.15" stroke-linecap="round" stroke-linejoin="round" opacity="0.16"/><path d="M 240.6 554.5 L 285 555.9 L 329.5 554.1 L 373.9 553.2 L 418.4 555.2 L 462.8 555.6" fill="none" stroke="#F6B088" stroke-width="1.15" stroke-linecap="round" stroke-linejoin="round" opacity="0.16"/></g></g><text x="340" y="557" fill="#1F1A17" font-family="IBM Plex Mono, Menlo, monospace" font-size="25" font-weight="600" text-anchor="middle">T</text><text x="555" y="274.6" fill="#1F1A17" font-family="Inter, Helvetica, sans-serif" font-size="30" font-weight="700" text-anchor="start" transform="rotate(-0.4 555 274.6)">7 × C, 3 × T</text><text x="555" y="340" fill="#1F1A17" font-family="Inter, Helvetica, sans-serif" font-size="26" font-weight="600" text-anchor="start">allele frequency = 3/10 = 30%</text></g></svg>
