<svg xmlns="http://www.w3.org/2000/svg" width="1400" height="600" viewBox="0 0 1400 600" role="img" aria-labelledby="title-read-mapping-cartoon"><title id="title-read-mapping-cartoon">read-mapping-cartoon</title><defs><filter id="paperGrain" x="0" y="0" width="100%" height="100%"><feTurbulence type="fractalNoise" baseFrequency="0.9" numOctaves="2" seed="19" result="noise"/><feColorMatrix type="saturate" values="0"/><feBlend in="SourceGraphic" in2="noise" mode="multiply"/></filter><marker id="arrowCream" viewBox="0 0 10 10" refX="8" refY="5" markerWidth="8" markerHeight="8" orient="auto-start-reverse"><path d="M 0 0 L 10 5 L 0 10 Q 2 5 0 0" fill="#EE8B4F"/></marker><marker id="arrowInk" viewBox="0 0 10 10" refX="8" refY="5" markerWidth="7" markerHeight="7" orient="auto-start-reverse"><path d="M 0 0 L 10 5 L 0 10 Q 2 5 0 0" fill="#1F1A17"/></marker><linearGradient id="qualityGradient" x1="0%" x2="100%" y1="0%" y2="0%"><stop offset="0%" stop-color="#FAF4EA"/><stop offset="35%" stop-color="#F6B088"/><stop offset="100%" stop-color="#EE8B4F"/></linearGradient></defs><rect width="100%" height="100%" fill="#FAF4EA"/><rect width="100%" height="100%" fill="#FAF4EA" filter="url(#paperGrain)" opacity="0.34"/><g><g><line x1="155" y1="115" x2="1250" y2="115" stroke="#1F1A17" stroke-width="7" stroke-linecap="round" opacity="1"/><path d="M 155 116.5 L 291.9 117.8 L 428.8 116.2 L 565.6 115.3 L 702.5 117.1 L 839.4 117.5 L 976.3 115.6 L 1113.1 115.7 L 1250 117.6" fill="none" stroke="#1F1A17" stroke-width="1.54" stroke-linecap="round" stroke-linejoin="round" opacity="0.32"/></g><text x="162" y="72.2" fill="#1F1A17" font-family="Inter, Helvetica, sans-serif" font-size="24" font-weight="600" text-anchor="start" transform="rotate(0.2 162 72.2)">reference</text><g><g><path d="M 287 169 Q 302 163 316 171 Q 324 178 317 186 Q 302 193 286 185 Q 280 178 287 169 Z" fill="#F6B088" stroke="#F6B088" stroke-width="1" stroke-linecap="butt" stroke-linejoin="round" opacity="0.55"/><g><path d="M 292.8 175.2 L 296.1 176.6 L 299.4 174.8 L 302.6 173.9 L 305.9 175.9 L 309.2 176.3" fill="none" stroke="#F6B088" stroke-width="1.15" stroke-linecap="round" stroke-linejoin="round" opacity="0.08800000000000001"/><path d="M 292.7 181.4 L 296 182.8 L 299.2 181 L 302.5 180.1 L 305.7 182.1 L 309 182.5" fill="none" stroke="#F6B088" stroke-width="1.15" stroke-linecap="round" stroke-linejoin="round" opacity="0.08800000000000001"/></g></g><path d="M 312 178 C 291.5 173 252.96 183 230 178" fill="none" stroke="#EE8B4F" stroke-width="7" stroke-linecap="round" stroke-linejoin="round" opacity="1" marker-end="url(#arrowCream)"/><path d="M 312 175.8 C 291.5 173 252.96 183 230 175.8" fill="none" stroke="#EE8B4F" stroke-width="1.54" stroke-linecap="round" stroke-linejoin="round" opacity="0.34"/><path d="M 312 180.1 C 291.5 173 252.96 183 230 180.1" fill="none" stroke="#F6B088" stroke-width="1.12" stroke-linecap="round" stroke-linejoin="round" opacity="0.28"/></g><g><path d="M 304 186 C 328.75 181 375.28 191 403 186" fill="none" stroke="#EE8B4F" stroke-width="7" stroke-linecap="round" stroke-linejoin="round" opacity="1" marker-end="url(#arrowCream)"/><path d="M 304 183.8 C 328.75 181 375.28 191 403 183.8" fill="none" stroke="#EE8B4F" stroke-width="1.54" stroke-linecap="round" stroke-linejoin="round" opacity="0.34"/><path d="M 304 188.1 C 328.75 181 375.28 191 403 188.1" fill="none" stroke="#F6B088" stroke-width="1.12" stroke-linecap="round" stroke-linejoin="round" opacity="0.28"/></g><g><path d="M 378 178 C 407 173 461.52 183 494 178" fill="none" stroke="#EE8B4F" stroke-width="7" stroke-linecap="round" stroke-linejoin="round" opacity="1" marker-end="url(#arrowCream)"/><path d="M 378 175.8 C 407 173 461.52 183 494 175.8" fill="none" stroke="#EE8B4F" stroke-width="1.54" stroke-linecap="round" stroke-linejoin="round" opacity="0.34"/><path d="M 378 180.1 C 407 173 461.52 183 494 180.1" fill="none" stroke="#F6B088" stroke-width="1.12" stroke-linecap="round" stroke-linejoin="round" opacity="0.28"/></g><g><path d="M 541 186 C 518.75 181 476.92 191 452 186" fill="none" stroke="#EE8B4F" stroke-width="7" stroke-linecap="round" stroke-linejoin="round" opacity="1" marker-end="url(#arrowCream)"/><path d="M 541 183.8 C 518.75 181 476.92 191 452 183.8" fill="none" stroke="#EE8B4F" stroke-width="1.54" stroke-linecap="round" stroke-linejoin="round" opacity="0.34"/><path d="M 541 188.1 C 518.75 181 476.92 191 452 188.1" fill="none" stroke="#F6B088" stroke-width="1.12" stroke-linecap="round" stroke-linejoin="round" opacity="0.28"/></g><g><path d="M 632 178 C 605.5 173 555.6800000000001 183 526 178" fill="none" stroke="#EE8B4F" stroke-width="7" stroke-linecap="round" stroke-linejoin="round" opacity="1" marker-end="url(#arrowCream)"/><path d="M 632 175.8 C 605.5 173 555.6800000000001 183 526 175.8" fill="none" stroke="#EE8B4F" stroke-width="1.54" stroke-linecap="round" stroke-linejoin="round" opacity="0.34"/><path d="M 632 180.1 C 605.5 173 555.6800000000001 183 526 180.1" fill="none" stroke="#F6B088" stroke-width="1.12" stroke-linecap="round" stroke-linejoin="round" opacity="0.28"/></g><g><g><path d="M 603 235 Q 618 229 632 237 Q 640 244 633 252 Q 618 259 602 251 Q 596 244 603 235 Z" fill="#F6B088" stroke="#F6B088" stroke-width="1" stroke-linecap="butt" stroke-linejoin="round" opacity="0.55"/><g><path d="M 609.5 239.6 L 613.6 241 L 617.7 239.2 L 621.8 238.3 L 625.9 240.3 L 630 240.7" fill="none" stroke="#F6B088" stroke-width="1.15" stroke-linecap="round" stroke-linejoin="round" opacity="0.08800000000000001"/><path d="M 609.6 247.8 L 613.7 249.2 L 617.8 247.4 L 621.8 246.5 L 625.9 248.5 L 630 248.9" fill="none" stroke="#F6B088" stroke-width="1.15" stroke-linecap="round" stroke-linejoin="round" opacity="0.08800000000000001"/></g></g><path d="M 600 244 C 630.75 239 688.56 249 723 244" fill="none" stroke="#EE8B4F" stroke-width="7" stroke-linecap="round" stroke-linejoin="round" opacity="1" marker-end="url(#arrowCream)"/><path d="M 600 241.8 C 630.75 239 688.56 249 723 241.8" fill="none" stroke="#EE8B4F" stroke-width="1.54" stroke-linecap="round" stroke-linejoin="round" opacity="0.34"/><path d="M 600 246.1 C 630.75 239 688.56 249 723 246.1" fill="none" stroke="#F6B088" stroke-width="1.12" stroke-linecap="round" stroke-linejoin="round" opacity="0.28"/></g><g><path d="M 674 236 C 698 231 743.12 241 770 236" fill="none" stroke="#EE8B4F" stroke-width="7" stroke-linecap="round" stroke-linejoin="round" opacity="1" marker-end="url(#arrowCream)"/><path d="M 674 233.8 C 698 231 743.12 241 770 233.8" fill="none" stroke="#EE8B4F" stroke-width="1.54" stroke-linecap="round" stroke-linejoin="round" opacity="0.34"/><path d="M 674 238.1 C 698 231 743.12 241 770 238.1" fill="none" stroke="#F6B088" stroke-width="1.12" stroke-linecap="round" stroke-linejoin="round" opacity="0.28"/></g><g><path d="M 861 244 C 832.75 239 779.64 249 748 244" fill="none" stroke="#EE8B4F" stroke-width="7" stroke-linecap="round" stroke-linejoin="round" opacity="1" marker-end="url(#arrowCream)"/><path d="M 861 241.8 C 832.75 239 779.64 249 748 241.8" fill="none" stroke="#EE8B4F" stroke-width="1.54" stroke-linecap="round" stroke-linejoin="round" opacity="0.34"/><path d="M 861 246.1 C 832.75 239 779.64 249 748 246.1" fill="none" stroke="#F6B088" stroke-width="1.12" stroke-linecap="round" stroke-linejoin="round" opacity="0.28"/></g><g><path d="M 908 236 C 886.5 231 846.08 241 822 236" fill="none" stroke="#EE8B4F" stroke-width="7" stroke-linecap="round" stroke-linejoin="round" opacity="1" marker-end="url(#arrowCream)"/><path d="M 908 233.8 C 886.5 231 846.08 241 822 233.8" fill="none" stroke="#EE8B4F" stroke-width="1.54" stroke-linecap="round" stroke-linejoin="round" opacity="0.34"/><path d="M 908 238.1 C 886.5 231 846.08 241 822 238.1" fill="none" stroke="#F6B088" stroke-width="1.12" stroke-linecap="round" stroke-linejoin="round" opacity="0.28"/></g><g><path d="M 896 244 C 921.75 239 970.16 249 999 244" fill="none" stroke="#EE8B4F" stroke-width="7" stroke-linecap="round" stroke-linejoin="round" opacity="1" marker-end="url(#arrowCream)"/><path d="M 896 241.8 C 921.75 239 970.16 249 999 241.8" fill="none" stroke="#EE8B4F" stroke-width="1.54" stroke-linecap="round" stroke-linejoin="round" opacity="0.34"/><path d="M 896 246.1 C 921.75 239 970.16 249 999 246.1" fill="none" stroke="#F6B088" stroke-width="1.12" stroke-linecap="round" stroke-linejoin="round" opacity="0.28"/></g><g><g><path d="M 973 285 Q 988 279 1002 287 Q 1010 294 1003 302 Q 988 309 972 301 Q 966 294 973 285 Z" fill="#F6B088" stroke="#F6B088" stroke-width="1" stroke-linecap="butt" stroke-linejoin="round" opacity="0.55"/><g><path d="M 978.4 289.9 L 981.5 291.3 L 984.7 289.5 L 987.8 288.6 L 991 290.6 L 994.1 291" fill="none" stroke="#F6B088" stroke-width="1.15" stroke-linecap="round" stroke-linejoin="round" opacity="0.08800000000000001"/><path d="M 978.6 297.5 L 981.7 298.9 L 984.8 297.1 L 987.8 296.2 L 990.9 298.2 L 994 298.6" fill="none" stroke="#F6B088" stroke-width="1.15" stroke-linecap="round" stroke-linejoin="round" opacity="0.08800000000000001"/></g></g><path d="M 970 294 C 1000 289 1056.4 299 1090 294" fill="none" stroke="#EE8B4F" stroke-width="7" stroke-linecap="round" stroke-linejoin="round" opacity="1" marker-end="url(#arrowCream)"/><path d="M 970 291.8 C 1000 289 1056.4 299 1090 291.8" fill="none" stroke="#EE8B4F" stroke-width="1.54" stroke-linecap="round" stroke-linejoin="round" opacity="0.34"/><path d="M 970 296.1 C 1000 289 1056.4 299 1090 296.1" fill="none" stroke="#F6B088" stroke-width="1.12" stroke-linecap="round" stroke-linejoin="round" opacity="0.28"/></g><g><path d="M 1137 302 C 1113.75 297 1070.04 307 1044 302" fill="none" stroke="#EE8B4F" stroke-width="7" stroke-linecap="round" stroke-linejoin="round" opacity="1" marker-end="url(#arrowCream)"/><path d="M 1137 299.8 C 1113.75 297 1070.04 307 1044 299.8" fill="none" stroke="#EE8B4F" stroke-width="1.54" stroke-linecap="round" stroke-linejoin="round" opacity="0.34"/><path d="M 1137 304.1 C 1113.75 297 1070.04 307 1044 304.1" fill="none" stroke="#F6B088" stroke-width="1.12" stroke-linecap="round" stroke-linejoin="round" opacity="0.28"/></g><g><path d="M 348 294 C 320.5 289 268.8 299 238 294" fill="none" stroke="#EE8B4F" stroke-width="7" stroke-linecap="round" stroke-linejoin="round" opacity="1" marker-end="url(#arrowCream)"/><path d="M 348 291.8 C 320.5 289 268.8 299 238 291.8" fill="none" stroke="#EE8B4F" stroke-width="1.54" stroke-linecap="round" stroke-linejoin="round" opacity="0.34"/><path d="M 348 296.1 C 320.5 289 268.8 299 238 296.1" fill="none" stroke="#F6B088" stroke-width="1.12" stroke-linecap="round" stroke-linejoin="round" opacity="0.28"/></g><g><path d="M 312 302 C 332.75 297 371.76 307 395 302" fill="none" stroke="#EE8B4F" stroke-width="7" stroke-linecap="round" stroke-linejoin="round" opacity="1" marker-end="url(#arrowCream)"/><path d="M 312 299.8 C 332.75 297 371.76 307 395 299.8" fill="none" stroke="#EE8B4F" stroke-width="1.54" stroke-linecap="round" stroke-linejoin="round" opacity="0.34"/><path d="M 312 304.1 C 332.75 297 371.76 307 395 304.1" fill="none" stroke="#F6B088" stroke-width="1.12" stroke-linecap="round" stroke-linejoin="round" opacity="0.28"/></g><g><path d="M 386 294 C 411 289 458 299 486 294" fill="none" stroke="#EE8B4F" stroke-width="7" stroke-linecap="round" stroke-linejoin="round" opacity="1" marker-end="url(#arrowCream)"/><path d="M 386 291.8 C 411 289 458 299 486 291.8" fill="none" stroke="#EE8B4F" stroke-width="1.54" stroke-linecap="round" stroke-linejoin="round" opacity="0.34"/><path d="M 386 296.1 C 411 289 458 299 486 296.1" fill="none" stroke="#F6B088" stroke-width="1.12" stroke-linecap="round" stroke-linejoin="round" opacity="0.28"/></g><g><g><path d="M 552 351 Q 567 345 581 353 Q 589 360 582 368 Q 567 375 551 367 Q 545 360 552 351 Z" fill="#F6B088" stroke="#F6B088" stroke-width="1" stroke-linecap="butt" stroke-linejoin="round" opacity="0.55"/><g><path d="M 556 354.4 L 560.5 355.8 L 565 354 L 569.5 353.1 L 574 355.1 L 578.5 355.5" fill="none" stroke="#F6B088" stroke-width="1.15" stroke-linecap="round" stroke-linejoin="round" opacity="0.08800000000000001"/><path d="M 555.9 365.1 L 560.4 366.5 L 564.9 364.7 L 569.4 363.8 L 573.9 365.8 L 578.4 366.2" fill="none" stroke="#F6B088" stroke-width="1.15" stroke-linecap="round" stroke-linejoin="round" opacity="0.08800000000000001"/></g></g><path d="M 577 360 C 547.75 355 492.76 365 460 360" fill="none" stroke="#EE8B4F" stroke-width="7" stroke-linecap="round" stroke-linejoin="round" opacity="1" marker-end="url(#arrowCream)"/><path d="M 577 357.8 C 547.75 355 492.76 365 460 357.8" fill="none" stroke="#EE8B4F" stroke-width="1.54" stroke-linecap="round" stroke-linejoin="round" opacity="0.34"/><path d="M 577 362.1 C 547.75 355 492.76 365 460 362.1" fill="none" stroke="#F6B088" stroke-width="1.12" stroke-linecap="round" stroke-linejoin="round" opacity="0.28"/></g><g><path d="M 624 352 C 601.5 347 559.2 357 534 352" fill="none" stroke="#EE8B4F" stroke-width="7" stroke-linecap="round" stroke-linejoin="round" opacity="1" marker-end="url(#arrowCream)"/><path d="M 624 349.8 C 601.5 347 559.2 357 534 349.8" fill="none" stroke="#EE8B4F" stroke-width="1.54" stroke-linecap="round" stroke-linejoin="round" opacity="0.34"/><path d="M 624 354.1 C 601.5 347 559.2 357 534 354.1" fill="none" stroke="#F6B088" stroke-width="1.12" stroke-linecap="round" stroke-linejoin="round" opacity="0.28"/></g><g><path d="M 608 360 C 634.75 355 685.04 365 715 360" fill="none" stroke="#EE8B4F" stroke-width="7" stroke-linecap="round" stroke-linejoin="round" opacity="1" marker-end="url(#arrowCream)"/><path d="M 608 357.8 C 634.75 355 685.04 365 715 357.8" fill="none" stroke="#EE8B4F" stroke-width="1.54" stroke-linecap="round" stroke-linejoin="round" opacity="0.34"/><path d="M 608 362.1 C 634.75 355 685.04 365 715 362.1" fill="none" stroke="#F6B088" stroke-width="1.12" stroke-linecap="round" stroke-linejoin="round" opacity="0.28"/></g><g><path d="M 682 352 C 713 347 771.28 357 806 352" fill="none" stroke="#EE8B4F" stroke-width="7" stroke-linecap="round" stroke-linejoin="round" opacity="1" marker-end="url(#arrowCream)"/><path d="M 682 349.8 C 713 347 771.28 357 806 349.8" fill="none" stroke="#EE8B4F" stroke-width="1.54" stroke-linecap="round" stroke-linejoin="round" opacity="0.34"/><path d="M 682 354.1 C 713 347 771.28 357 806 354.1" fill="none" stroke="#F6B088" stroke-width="1.12" stroke-linecap="round" stroke-linejoin="round" opacity="0.28"/></g><g><path d="M 853 360 C 828.75 355 783.16 365 756 360" fill="none" stroke="#EE8B4F" stroke-width="7" stroke-linecap="round" stroke-linejoin="round" opacity="1" marker-end="url(#arrowCream)"/><path d="M 853 357.8 C 828.75 355 783.16 365 756 357.8" fill="none" stroke="#EE8B4F" stroke-width="1.54" stroke-linecap="round" stroke-linejoin="round" opacity="0.34"/><path d="M 853 362.1 C 828.75 355 783.16 365 756 362.1" fill="none" stroke="#F6B088" stroke-width="1.12" stroke-linecap="round" stroke-linejoin="round" opacity="0.28"/></g><g><circle cx="388" cy="302" r="7" fill="#FAF4EA" stroke="#EE8B4F" stroke-width="3" opacity="1"/><path d="M 388 302 Q 329 373 230 444" fill="none" stroke="#EE8B4F" stroke-width="3" stroke-linecap="round" stroke-linejoin="round" opacity="1"/><text x="230" y="432.8" fill="#1F1A17" font-family="Inter, Helvetica, sans-serif" font-size="24" font-weight="700" text-anchor="end" transform="rotate(0.7 230 432.8)">forward strand</text></g><g><circle cx="805" cy="244" r="7" fill="#FAF4EA" stroke="#EE8B4F" stroke-width="3" opacity="1"/><path d="M 805 244 Q 937.5 337 1030 430" fill="none" stroke="#EE8B4F" stroke-width="3" stroke-linecap="round" stroke-linejoin="round" opacity="1"/><text x="1030" y="418.9" fill="#1F1A17" font-family="Inter, Helvetica, sans-serif" font-size="24" font-weight="700" text-anchor="start" transform="rotate(0.8 1030 418.9)">reverse strand</text></g><g><circle cx="252" cy="186" r="7" fill="#FAF4EA" stroke="#EE8B4F" stroke-width="3" opacity="1"/><path d="M 252 186 Q 241 172 270 158" fill="none" stroke="#EE8B4F" stroke-width="3" stroke-linecap="round" stroke-linejoin="round" opacity="1"/><text x="270" y="145.2" fill="#1F1A17" font-family="Inter, Helvetica, sans-serif" font-size="24" font-weight="700" text-anchor="start" transform="rotate(-0.8 270 145.2)">soft-clipped end</text></g><g><line x1="155" y1="520" x2="1250" y2="520" stroke="#8A847A" stroke-width="3" stroke-linecap="butt" opacity="1"/><path d="M 155 521.5 L 291.9 522.8 L 428.8 521.2 L 565.6 520.3 L 702.5 522.1 L 839.4 522.5 L 976.3 520.6 L 1113.1 520.7 L 1250 522.6" fill="none" stroke="#8A847A" stroke-width="1" stroke-linecap="butt" stroke-linejoin="round" opacity="0.32"/></g><line x1="155" y1="505" x2="155" y2="535" stroke="#8A847A" stroke-width="2" stroke-linecap="butt" opacity="1"/><text x="155" y="566" fill="#8A847A" font-family="IBM Plex Mono, Menlo, monospace" font-size="20" font-weight="600" text-anchor="middle">1</text><line x1="430" y1="505" x2="430" y2="535" stroke="#8A847A" stroke-width="2" stroke-linecap="butt" opacity="1"/><text x="430" y="566" fill="#8A847A" font-family="IBM Plex Mono, Menlo, monospace" font-size="20" font-weight="600" text-anchor="middle">500</text><line x1="735" y1="505" x2="735" y2="535" stroke="#8A847A" stroke-width="2" stroke-linecap="butt" opacity="1"/><text x="735" y="566" fill="#8A847A" font-family="IBM Plex Mono, Menlo, monospace" font-size="20" font-weight="600" text-anchor="middle">1000</text><line x1="1035" y1="505" x2="1035" y2="535" stroke="#8A847A" stroke-width="2" stroke-linecap="butt" opacity="1"/><text x="1035" y="566" fill="#8A847A" font-family="IBM Plex Mono, Menlo, monospace" font-size="20" font-weight="600" text-anchor="middle">1500</text></g></svg>
