<svg xmlns="http://www.w3.org/2000/svg" width="1400" height="600" viewBox="0 0 1400 600" role="img" aria-labelledby="title-reference-bundle-anatomy"><title id="title-reference-bundle-anatomy">reference-bundle-anatomy</title><defs><filter id="paperGrain" x="0" y="0" width="100%" height="100%"><feTurbulence type="fractalNoise" baseFrequency="0.9" numOctaves="2" seed="19" result="noise"/><feColorMatrix type="saturate" values="0"/><feBlend in="SourceGraphic" in2="noise" mode="multiply"/></filter><marker id="arrowCream" viewBox="0 0 10 10" refX="8" refY="5" markerWidth="8" markerHeight="8" orient="auto-start-reverse"><path d="M 0 0 L 10 5 L 0 10 Q 2 5 0 0" fill="#EE8B4F"/></marker><marker id="arrowInk" viewBox="0 0 10 10" refX="8" refY="5" markerWidth="7" markerHeight="7" orient="auto-start-reverse"><path d="M 0 0 L 10 5 L 0 10 Q 2 5 0 0" fill="#1F1A17"/></marker><linearGradient id="qualityGradient" x1="0%" x2="100%" y1="0%" y2="0%"><stop offset="0%" stop-color="#FAF4EA"/><stop offset="35%" stop-color="#F6B088"/><stop offset="100%" stop-color="#EE8B4F"/></linearGradient></defs><rect width="100%" height="100%" fill="#FAF4EA"/><rect width="100%" height="100%" fill="#FAF4EA" filter="url(#paperGrain)" opacity="0.34"/><g><g><path d="M 85 160 Q 91 140 127 141 L 195 141 L 217 163 L 330 163 Q 346 285 312 290 L 99 290 Q 77 286 85 160 Z" fill="#FAF4EA" stroke="#EE8B4F" stroke-width="5" stroke-linecap="butt" stroke-linejoin="round" opacity="1"/><text x="207.5" y="332" fill="#1F1A17" font-family="IBM Plex Mono, Menlo, monospace" font-size="22" font-weight="600" text-anchor="middle">MN908947.3.lungfishref/</text></g><line x1="330" y1="230" x2="375" y2="230" stroke="#EE8B4F" stroke-width="3" stroke-linecap="round" opacity="1"/><g><line x1="375" y1="168" x2="375" y2="428" stroke="#EE8B4F" stroke-width="3" stroke-linecap="round" opacity="1"/><path d="M 375 169.5 L 375 170.8 L 375 169.2 L 375 168.3 L 375 170.1" fill="none" stroke="#EE8B4F" stroke-width="1" stroke-linecap="round" stroke-linejoin="round" opacity="0.32"/></g><line x1="375" y1="168" x2="430" y2="168" stroke="#EE8B4F" stroke-width="3" stroke-linecap="round" opacity="1"/><g><line x1="375" y1="168" x2="790" y2="168" stroke="#EE8B4F" stroke-width="3" stroke-linecap="round" opacity="1"/><path d="M 375 169.5 L 478.8 170.8 L 582.5 169.2 L 686.3 168.3 L 790 170.1" fill="none" stroke="#EE8B4F" stroke-width="1" stroke-linecap="round" stroke-linejoin="round" opacity="0.32"/></g><line x1="375" y1="428" x2="430" y2="428" stroke="#EE8B4F" stroke-width="3" stroke-linecap="round" opacity="1"/><g><line x1="375" y1="428" x2="790" y2="428" stroke="#EE8B4F" stroke-width="3" stroke-linecap="round" opacity="1"/><path d="M 375 429.5 L 478.8 430.8 L 582.5 429.2 L 686.3 428.3 L 790 430.1" fill="none" stroke="#EE8B4F" stroke-width="1" stroke-linecap="round" stroke-linejoin="round" opacity="0.32"/></g><g><path d="M 430 135 L 600 135 L 635 169 L 635 267 Q 535 279 430 267 Z" fill="#FAF4EA" stroke="#EE8B4F" stroke-width="4" stroke-linecap="butt" stroke-linejoin="round" opacity="1"/><path d="M 600 135 L 600 171 L 635 169" fill="none" stroke="#EE8B4F" stroke-width="3" stroke-linecap="butt" stroke-linejoin="round" opacity="1"/><text x="532" y="199" fill="#1F1A17" font-family="IBM Plex Mono, Menlo, monospace" font-size="19" font-weight="600" text-anchor="middle">MN908947.3.fasta</text><text x="532" y="301.3" fill="#8A847A" font-family="Inter, Helvetica, sans-serif" font-size="19" font-weight="600" text-anchor="middle" transform="rotate(-0.6 532 301.3)">sequence</text></g><g><path d="M 790 135 L 960 135 L 995 169 L 995 267 Q 895 279 790 267 Z" fill="#FAF4EA" stroke="#EE8B4F" stroke-width="4" stroke-linecap="butt" stroke-linejoin="round" opacity="1"/><path d="M 960 135 L 960 171 L 995 169" fill="none" stroke="#EE8B4F" stroke-width="3" stroke-linecap="butt" stroke-linejoin="round" opacity="1"/><text x="892" y="199" fill="#1F1A17" font-family="IBM Plex Mono, Menlo, monospace" font-size="19" font-weight="600" text-anchor="middle">MN908947.3.fasta.fai</text><text x="892" y="302.3" fill="#8A847A" font-family="Inter, Helvetica, sans-serif" font-size="19" font-weight="600" text-anchor="middle" transform="rotate(0.3 892 302.3)">samtools faidx index</text></g><g><path d="M 430 360 L 600 360 L 635 394 L 635 492 Q 535 504 430 492 Z" fill="#FAF4EA" stroke="#EE8B4F" stroke-width="4" stroke-linecap="butt" stroke-linejoin="round" opacity="1"/><path d="M 600 360 L 600 396 L 635 394" fill="none" stroke="#EE8B4F" stroke-width="3" stroke-linecap="butt" stroke-linejoin="round" opacity="1"/><text x="532" y="424" fill="#1F1A17" font-family="IBM Plex Mono, Menlo, monospace" font-size="19" font-weight="600" text-anchor="middle">manifest.json</text><text x="532" y="527.8" fill="#8A847A" font-family="Inter, Helvetica, sans-serif" font-size="19" font-weight="600" text-anchor="middle" transform="rotate(0.7 532 527.8)">bundle metadata</text></g><g><path d="M 790 360 L 960 360 L 995 394 L 995 492 Q 895 504 790 492 Z" fill="#FAF4EA" stroke="#EE8B4F" stroke-width="4" stroke-linecap="butt" stroke-linejoin="round" opacity="1"/><path d="M 960 360 L 960 396 L 995 394" fill="none" stroke="#EE8B4F" stroke-width="3" stroke-linecap="butt" stroke-linejoin="round" opacity="1"/><text x="892" y="424" fill="#1F1A17" font-family="IBM Plex Mono, Menlo, monospace" font-size="19" font-weight="600" text-anchor="middle">provenance.json</text><text x="892" y="527.4" fill="#8A847A" font-family="Inter, Helvetica, sans-serif" font-size="19" font-weight="600" text-anchor="middle" transform="rotate(0.4 892 527.4)">reproducibility provenance</text></g></g></svg>
