<svg xmlns="http://www.w3.org/2000/svg" width="1400" height="800" viewBox="0 0 1400 800" role="img" aria-labelledby="title-viewport-panes"><title id="title-viewport-panes">viewport-panes</title><defs><filter id="paperGrain" x="0" y="0" width="100%" height="100%"><feTurbulence type="fractalNoise" baseFrequency="0.9" numOctaves="2" seed="19" result="noise"/><feColorMatrix type="saturate" values="0"/><feBlend in="SourceGraphic" in2="noise" mode="multiply"/></filter><marker id="arrowCream" viewBox="0 0 10 10" refX="8" refY="5" markerWidth="8" markerHeight="8" orient="auto-start-reverse"><path d="M 0 0 L 10 5 L 0 10 Q 2 5 0 0" fill="#EE8B4F"/></marker><marker id="arrowInk" viewBox="0 0 10 10" refX="8" refY="5" markerWidth="7" markerHeight="7" orient="auto-start-reverse"><path d="M 0 0 L 10 5 L 0 10 Q 2 5 0 0" fill="#1F1A17"/></marker><linearGradient id="qualityGradient" x1="0%" x2="100%" y1="0%" y2="0%"><stop offset="0%" stop-color="#FAF4EA"/><stop offset="35%" stop-color="#F6B088"/><stop offset="100%" stop-color="#EE8B4F"/></linearGradient></defs><rect width="100%" height="100%" fill="#FAF4EA"/><rect width="100%" height="100%" fill="#FAF4EA" filter="url(#paperGrain)" opacity="0.34"/><g><g><path d="M 123 86 Q 700 80 1276 88 Q 1284 395 1277 703 Q 700 710 122 702 Q 116 395 123 86 Z" fill="#FAF4EA" stroke="#1F1A17" stroke-width="3" stroke-linecap="butt" stroke-linejoin="round" opacity="1"/></g><g><path d="M 173 136 Q 560 130 946 138 Q 954 257.5 947 378 Q 560 385 172 377 Q 166 257.5 173 136 Z" fill="#FAF4EA" stroke="#EE8B4F" stroke-width="5" stroke-linecap="butt" stroke-linejoin="round" opacity="1"/></g><g><path d="M 173 416 Q 560 410 946 418 Q 954 522.5 947 628 Q 560 635 172 627 Q 166 522.5 173 416 Z" fill="#FAF4EA" stroke="#EE8B4F" stroke-width="4" stroke-linecap="butt" stroke-linejoin="round" opacity="1"/></g><g><path d="M 993 136 Q 1110 130 1226 138 Q 1234 382.5 1227 628 Q 1110 635 992 627 Q 986 382.5 993 136 Z" fill="#FAF4EA" stroke="#EE8B4F" stroke-width="4" stroke-linecap="butt" stroke-linejoin="round" opacity="1"/></g><g><path d="M 215 313 L 215 295 L 239.07407407407408 276 L 263.14814814814815 257 L 287.22222222222223 238 L 311.2962962962963 279 L 335.3703703703704 260 L 359.44444444444446 241 L 383.5185185185185 282 L 407.5925925925926 263 L 431.66666666666663 244 L 455.74074074074076 285 L 479.8148148148148 266 L 503.88888888888886 247 L 527.9629629629629 288 L 552.037037037037 269 L 576.1111111111111 250 L 600.1851851851852 291 L 624.2592592592592 272 L 648.3333333333333 253 L 672.4074074074074 294 L 696.4814814814815 275 L 720.5555555555555 256 L 744.6296296296296 237 L 768.7037037037037 278 L 792.7777777777777 259 L 816.8518518518518 240 L 840.9259259259259 281 L 865 262 L 865 313 Z" fill="#EE8B4F" stroke="#1F1A17" stroke-width="1" stroke-linecap="butt" stroke-linejoin="round" opacity="1"/><g><path d="M 223.3 252.7 L 350.4 254.1 L 477.6 252.3 L 604.7 251.4 L 731.9 253.4 L 859 253.8" fill="none" stroke="#EE8B4F" stroke-width="1.15" stroke-linecap="round" stroke-linejoin="round" opacity="0.1152"/><path d="M 223.4 267.5 L 350.5 268.9 L 477.6 267.1 L 604.8 266.2 L 731.9 268.2 L 859 268.6" fill="none" stroke="#EE8B4F" stroke-width="1.15" stroke-linecap="round" stroke-linejoin="round" opacity="0.1152"/><path d="M 223.6 281.9 L 350.7 283.3 L 477.7 281.5 L 604.8 280.6 L 731.8 282.6 L 858.9 283" fill="none" stroke="#EE8B4F" stroke-width="1.15" stroke-linecap="round" stroke-linejoin="round" opacity="0.1152"/><path d="M 223.7 299.1 L 350.7 300.5 L 477.8 298.7 L 604.8 297.8 L 731.9 299.8 L 858.9 300.2" fill="none" stroke="#EE8B4F" stroke-width="1.15" stroke-linecap="round" stroke-linejoin="round" opacity="0.1152"/></g></g><text x="560" y="515" fill="#1F1A17" font-family="IBM Plex Mono, Menlo, monospace" font-size="28" font-weight="600" text-anchor="middle">ATG  GAA  TTT  CCA</text><text x="1030" y="214.1" fill="#8A847A" font-family="Inter, Helvetica, sans-serif" font-size="22" font-weight="600" text-anchor="start" transform="rotate(-0.8 1030 214.1)">gene</text><text x="1030" y="285.8" fill="#8A847A" font-family="Inter, Helvetica, sans-serif" font-size="22" font-weight="600" text-anchor="start" transform="rotate(0.8 1030 285.8)">product</text><text x="1030" y="355.9" fill="#8A847A" font-family="Inter, Helvetica, sans-serif" font-size="22" font-weight="600" text-anchor="start" transform="rotate(0.8 1030 355.9)">location</text><text x="1030" y="424.2" fill="#8A847A" font-family="Inter, Helvetica, sans-serif" font-size="22" font-weight="600" text-anchor="start" transform="rotate(-0.7 1030 424.2)">strand</text><g><circle cx="545" cy="143" r="7" fill="#FAF4EA" stroke="#EE8B4F" stroke-width="3" opacity="1"/><path d="M 545 143 Q 382.5 111.5 260 80" fill="none" stroke="#EE8B4F" stroke-width="3" stroke-linecap="round" stroke-linejoin="round" opacity="1"/><text x="260" y="68.8" fill="#1F1A17" font-family="Inter, Helvetica, sans-serif" font-size="24" font-weight="700" text-anchor="end" transform="rotate(0.7 260 68.8)">track viewer</text></g><g><circle cx="530" cy="525" r="7" fill="#FAF4EA" stroke="#EE8B4F" stroke-width="3" opacity="1"/><path d="M 530 525 Q 440 605 310 685" fill="none" stroke="#EE8B4F" stroke-width="3" stroke-linecap="round" stroke-linejoin="round" opacity="1"/><text x="310" y="673" fill="#1F1A17" font-family="Inter, Helvetica, sans-serif" font-size="24" font-weight="700" text-anchor="end">sequence panel</text></g><g><circle cx="1115" cy="175" r="7" fill="#FAF4EA" stroke="#EE8B4F" stroke-width="3" opacity="1"/><path d="M 1115 175 Q 1082.5 132.5 1090 90" fill="none" stroke="#EE8B4F" stroke-width="3" stroke-linecap="round" stroke-linejoin="round" opacity="1"/><text x="1090" y="78" fill="#1F1A17" font-family="Inter, Helvetica, sans-serif" font-size="24" font-weight="700" text-anchor="end">feature inspector</text></g></g></svg>
