<svg xmlns="http://www.w3.org/2000/svg" width="1400" height="600" viewBox="0 0 1400 600" role="img" aria-labelledby="title-allele-frequency-haploid-vs-diploid"><title id="title-allele-frequency-haploid-vs-diploid">allele-frequency-haploid-vs-diploid</title><defs><filter id="paperGrain" x="0" y="0" width="100%" height="100%"><feTurbulence type="fractalNoise" baseFrequency="0.9" numOctaves="2" seed="19" result="noise"/><feColorMatrix type="saturate" values="0"/><feBlend in="SourceGraphic" in2="noise" mode="multiply"/></filter><marker id="arrowCream" viewBox="0 0 10 10" refX="8" refY="5" markerWidth="8" markerHeight="8" orient="auto-start-reverse"><path d="M 0 0 L 10 5 L 0 10 Q 2 5 0 0" fill="#EE8B4F"/></marker><marker id="arrowInk" viewBox="0 0 10 10" refX="8" refY="5" markerWidth="7" markerHeight="7" orient="auto-start-reverse"><path d="M 0 0 L 10 5 L 0 10 Q 2 5 0 0" fill="#1F1A17"/></marker><linearGradient id="qualityGradient" x1="0%" x2="100%" y1="0%" y2="0%"><stop offset="0%" stop-color="#FAF4EA"/><stop offset="35%" stop-color="#F6B088"/><stop offset="100%" stop-color="#EE8B4F"/></linearGradient></defs><rect width="100%" height="100%" fill="#FAF4EA"/><rect width="100%" height="100%" fill="#FAF4EA" filter="url(#paperGrain)" opacity="0.34"/><g><g><line x1="700" y1="82" x2="700" y2="535" stroke="#8A847A" stroke-width="3" stroke-linecap="butt" opacity="1"/><path d="M 700 83.5 L 700 84.8 L 700 83.2 L 700 82.3 L 700 84.1" fill="none" stroke="#8A847A" stroke-width="1" stroke-linecap="butt" stroke-linejoin="round" opacity="0.32"/></g><g><path d="M 205 190 C 250 166 445 170 525 190 C 445 212 250 214 205 190 Z" fill="#1F1A17" stroke="#1F1A17" stroke-width="2" stroke-linecap="butt" stroke-linejoin="round" opacity="0.9"/><path d="M 360 172 Q 375 190 360 208" fill="none" stroke="#FAF4EA" stroke-width="4" stroke-linecap="round" stroke-linejoin="round" opacity="1"/><path d="M 440 172 Q 463 190 440 208" fill="none" stroke="#EE8B4F" stroke-width="12" stroke-linecap="round" stroke-linejoin="round" opacity="1"/></g><g><path d="M 205 275 C 250 251 445 255 525 275 C 445 297 250 299 205 275 Z" fill="#1F1A17" stroke="#1F1A17" stroke-width="2" stroke-linecap="butt" stroke-linejoin="round" opacity="0.9"/><path d="M 360 257 Q 375 275 360 293" fill="none" stroke="#FAF4EA" stroke-width="4" stroke-linecap="round" stroke-linejoin="round" opacity="1"/></g><text x="335" y="425.8" fill="#1F1A17" font-family="Inter, Helvetica, sans-serif" font-size="24" font-weight="700" text-anchor="middle" transform="rotate(-0.2 335 425.8)">human diploid</text><text x="335" y="463.4" fill="#1F1A17" font-family="Inter, Helvetica, sans-serif" font-size="21" font-weight="600" text-anchor="middle" transform="rotate(-0.6 335 463.4)">1 of 2 alleles carries the variant, AF = 0.5</text><g><circle cx="360" cy="190" r="7" fill="#FAF4EA" stroke="#EE8B4F" stroke-width="3" opacity="1"/><path d="M 360 190 Q 405 159 490 128" fill="none" stroke="#EE8B4F" stroke-width="3" stroke-linecap="round" stroke-linejoin="round" opacity="1"/><text x="490" y="116.8" fill="#1F1A17" font-family="Inter, Helvetica, sans-serif" font-size="24" font-weight="700" text-anchor="start" transform="rotate(0.8 490 116.8)">variant</text></g><path d="M 810 100 Q 1030 60 1240 100 L 1195 465 Q 1018 505 850 465 Z" fill="#FAF4EA" stroke="#1F1A17" stroke-width="3" stroke-linecap="butt" stroke-linejoin="round" opacity="1"/><g><circle cx="835" cy="145" r="15" fill="#FAF4EA" stroke="#1F1A17" stroke-width="2" opacity="1"/><circle cx="838" cy="143" r="5" fill="#EE8B4F" stroke="#EE8B4F" stroke-width="1" opacity="1"/></g><g><circle cx="887" cy="152" r="16" fill="#FAF4EA" stroke="#1F1A17" stroke-width="2" opacity="1"/></g><g><circle cx="939" cy="151" r="17" fill="#FAF4EA" stroke="#1F1A17" stroke-width="2" opacity="1"/><circle cx="942" cy="149" r="5" fill="#EE8B4F" stroke="#EE8B4F" stroke-width="1" opacity="1"/></g><g><circle cx="982" cy="150" r="15" fill="#FAF4EA" stroke="#1F1A17" stroke-width="2" opacity="1"/></g><g><circle cx="1034" cy="149" r="16" fill="#FAF4EA" stroke="#1F1A17" stroke-width="2" opacity="1"/><circle cx="1037" cy="147" r="5" fill="#EE8B4F" stroke="#EE8B4F" stroke-width="1" opacity="1"/></g><g><circle cx="1077" cy="148" r="17" fill="#FAF4EA" stroke="#1F1A17" stroke-width="2" opacity="1"/></g><g><circle cx="1129" cy="147" r="15" fill="#FAF4EA" stroke="#1F1A17" stroke-width="2" opacity="1"/><circle cx="1132" cy="145" r="5" fill="#EE8B4F" stroke="#EE8B4F" stroke-width="1" opacity="1"/></g><g><circle cx="836" cy="192" r="16" fill="#FAF4EA" stroke="#1F1A17" stroke-width="2" opacity="1"/></g><g><circle cx="888" cy="191" r="17" fill="#FAF4EA" stroke="#1F1A17" stroke-width="2" opacity="1"/><circle cx="891" cy="189" r="5" fill="#EE8B4F" stroke="#EE8B4F" stroke-width="1" opacity="1"/></g><g><circle cx="931" cy="198" r="15" fill="#FAF4EA" stroke="#1F1A17" stroke-width="2" opacity="1"/></g><g><circle cx="983" cy="197" r="16" fill="#FAF4EA" stroke="#1F1A17" stroke-width="2" opacity="1"/><circle cx="986" cy="195" r="5" fill="#EE8B4F" stroke="#EE8B4F" stroke-width="1" opacity="1"/></g><g><circle cx="1035" cy="196" r="17" fill="#FAF4EA" stroke="#1F1A17" stroke-width="2" opacity="1"/></g><g><circle cx="1078" cy="195" r="15" fill="#FAF4EA" stroke="#1F1A17" stroke-width="2" opacity="1"/><circle cx="1081" cy="193" r="5" fill="#EE8B4F" stroke="#EE8B4F" stroke-width="1" opacity="1"/></g><g><circle cx="1130" cy="194" r="16" fill="#FAF4EA" stroke="#1F1A17" stroke-width="2" opacity="1"/></g><g><circle cx="837" cy="239" r="17" fill="#FAF4EA" stroke="#1F1A17" stroke-width="2" opacity="1"/><circle cx="840" cy="237" r="5" fill="#EE8B4F" stroke="#EE8B4F" stroke-width="1" opacity="1"/></g><g><circle cx="889" cy="238" r="15" fill="#FAF4EA" stroke="#1F1A17" stroke-width="2" opacity="1"/></g><g><circle cx="932" cy="237" r="16" fill="#FAF4EA" stroke="#1F1A17" stroke-width="2" opacity="1"/><circle cx="935" cy="235" r="5" fill="#EE8B4F" stroke="#EE8B4F" stroke-width="1" opacity="1"/></g><g><circle cx="984" cy="244" r="17" fill="#FAF4EA" stroke="#1F1A17" stroke-width="2" opacity="1"/></g><g><circle cx="1027" cy="243" r="15" fill="#FAF4EA" stroke="#1F1A17" stroke-width="2" opacity="1"/><circle cx="1030" cy="241" r="5" fill="#EE8B4F" stroke="#EE8B4F" stroke-width="1" opacity="1"/></g><g><circle cx="1079" cy="242" r="16" fill="#FAF4EA" stroke="#1F1A17" stroke-width="2" opacity="1"/></g><g><circle cx="1131" cy="241" r="17" fill="#FAF4EA" stroke="#1F1A17" stroke-width="2" opacity="1"/><circle cx="1134" cy="239" r="5" fill="#EE8B4F" stroke="#EE8B4F" stroke-width="1" opacity="1"/></g><g><circle cx="838" cy="286" r="15" fill="#FAF4EA" stroke="#1F1A17" stroke-width="2" opacity="1"/></g><g><circle cx="890" cy="285" r="16" fill="#FAF4EA" stroke="#1F1A17" stroke-width="2" opacity="1"/><circle cx="893" cy="283" r="5" fill="#EE8B4F" stroke="#EE8B4F" stroke-width="1" opacity="1"/></g><g><circle cx="933" cy="284" r="17" fill="#FAF4EA" stroke="#1F1A17" stroke-width="2" opacity="1"/></g><g><circle cx="985" cy="283" r="15" fill="#FAF4EA" stroke="#1F1A17" stroke-width="2" opacity="1"/><circle cx="988" cy="281" r="5" fill="#EE8B4F" stroke="#EE8B4F" stroke-width="1" opacity="1"/></g><g><circle cx="1028" cy="290" r="16" fill="#FAF4EA" stroke="#1F1A17" stroke-width="2" opacity="1"/></g><g><circle cx="1080" cy="289" r="17" fill="#FAF4EA" stroke="#1F1A17" stroke-width="2" opacity="1"/><circle cx="1083" cy="287" r="5" fill="#EE8B4F" stroke="#EE8B4F" stroke-width="1" opacity="1"/></g><g><circle cx="1123" cy="288" r="15" fill="#FAF4EA" stroke="#1F1A17" stroke-width="2" opacity="1"/></g><g><circle cx="839" cy="333" r="16" fill="#FAF4EA" stroke="#1F1A17" stroke-width="2" opacity="1"/><circle cx="842" cy="331" r="5" fill="#EE8B4F" stroke="#EE8B4F" stroke-width="1" opacity="1"/></g><g><circle cx="891" cy="332" r="17" fill="#FAF4EA" stroke="#1F1A17" stroke-width="2" opacity="1"/></g><g><circle cx="934" cy="331" r="15" fill="#FAF4EA" stroke="#1F1A17" stroke-width="2" opacity="1"/><circle cx="937" cy="329" r="5" fill="#EE8B4F" stroke="#EE8B4F" stroke-width="1" opacity="1"/></g><g><circle cx="986" cy="330" r="16" fill="#FAF4EA" stroke="#1F1A17" stroke-width="2" opacity="1"/></g><g><circle cx="1029" cy="329" r="17" fill="#FAF4EA" stroke="#1F1A17" stroke-width="2" opacity="1"/><circle cx="1032" cy="327" r="5" fill="#EE8B4F" stroke="#EE8B4F" stroke-width="1" opacity="1"/></g><g><circle cx="1081" cy="336" r="15" fill="#FAF4EA" stroke="#1F1A17" stroke-width="2" opacity="1"/></g><text x="1040" y="510.4" fill="#1F1A17" font-family="Inter, Helvetica, sans-serif" font-size="24" font-weight="700" text-anchor="middle" transform="rotate(0.4 1040 510.4)">viral haploid</text><text x="1040" y="548.7" fill="#1F1A17" font-family="Inter, Helvetica, sans-serif" font-size="21" font-weight="600" text-anchor="middle" transform="rotate(0.7 1040 548.7)">half the read evidence supports the variant, AF = 0.5</text><g><circle cx="996" cy="147" r="7" fill="#FAF4EA" stroke="#EE8B4F" stroke-width="3" opacity="1"/><path d="M 996 147 Q 1088 138.5 1220 130" fill="none" stroke="#EE8B4F" stroke-width="3" stroke-linecap="round" stroke-linejoin="round" opacity="1"/><text x="1220" y="117.3" fill="#1F1A17" font-family="Inter, Helvetica, sans-serif" font-size="24" font-weight="700" text-anchor="start" transform="rotate(-0.7 1220 117.3)">variant</text></g></g></svg>
