<svg xmlns="http://www.w3.org/2000/svg" width="1200" height="500" viewBox="0 0 1200 500" role="img" aria-labelledby="title-filter-flag-cartoon"><title id="title-filter-flag-cartoon">filter-flag-cartoon</title><defs><filter id="paperGrain" x="0" y="0" width="100%" height="100%"><feTurbulence type="fractalNoise" baseFrequency="0.9" numOctaves="2" seed="19" result="noise"/><feColorMatrix type="saturate" values="0"/><feBlend in="SourceGraphic" in2="noise" mode="multiply"/></filter><marker id="arrowCream" viewBox="0 0 10 10" refX="8" refY="5" markerWidth="8" markerHeight="8" orient="auto-start-reverse"><path d="M 0 0 L 10 5 L 0 10 Q 2 5 0 0" fill="#EE8B4F"/></marker><marker id="arrowInk" viewBox="0 0 10 10" refX="8" refY="5" markerWidth="7" markerHeight="7" orient="auto-start-reverse"><path d="M 0 0 L 10 5 L 0 10 Q 2 5 0 0" fill="#1F1A17"/></marker><linearGradient id="qualityGradient" x1="0%" x2="100%" y1="0%" y2="0%"><stop offset="0%" stop-color="#FAF4EA"/><stop offset="35%" stop-color="#F6B088"/><stop offset="100%" stop-color="#EE8B4F"/></linearGradient></defs><rect width="100%" height="100%" fill="#FAF4EA"/><rect width="100%" height="100%" fill="#FAF4EA" filter="url(#paperGrain)" opacity="0.34"/><g><g><path d="M 568 78 Q 637.5 72 706 80 Q 714 243 707 407 Q 637.5 414 567 406 Q 561 243 568 78 Z" fill="#EE8B4F" stroke="#EE8B4F" stroke-width="1" stroke-linecap="butt" stroke-linejoin="round" opacity="0.22"/><g><path d="M 571 163 L 596.4 164.4 L 621.8 162.6 L 647.2 161.7 L 672.6 163.7 L 698 164.1" fill="none" stroke="#EE8B4F" stroke-width="1.15" stroke-linecap="round" stroke-linejoin="round" opacity="0.0352"/><path d="M 571 239.8 L 596.4 241.2 L 621.8 239.4 L 647.2 238.5 L 672.6 240.5 L 698 240.9" fill="none" stroke="#EE8B4F" stroke-width="1.15" stroke-linecap="round" stroke-linejoin="round" opacity="0.0352"/><path d="M 571 329.2 L 596.4 330.6 L 621.8 328.8 L 647.2 327.9 L 672.6 329.9 L 698 330.3" fill="none" stroke="#EE8B4F" stroke-width="1.15" stroke-linecap="round" stroke-linejoin="round" opacity="0.0352"/></g></g><g><path d="M 128 93 Q 425 87 721 95 Q 729 127 722 160 Q 425 167 127 159 Q 121 127 128 93 Z" fill="#FAF4EA" stroke="#1F1A17" stroke-width="1.3" stroke-linecap="butt" stroke-linejoin="round" opacity="1"/></g><text x="160" y="136" fill="#8A847A" font-family="IBM Plex Mono, Menlo, monospace" font-size="18" font-weight="600" text-anchor="start">MN908947.3</text><text x="340" y="136" fill="#8A847A" font-family="IBM Plex Mono, Menlo, monospace" font-size="18" font-weight="600" text-anchor="start">21618</text><text x="435" y="136" fill="#8A847A" font-family="IBM Plex Mono, Menlo, monospace" font-size="18" font-weight="600" text-anchor="start">C</text><text x="495" y="136" fill="#8A847A" font-family="IBM Plex Mono, Menlo, monospace" font-size="18" font-weight="600" text-anchor="start">T</text><text x="615" y="136" fill="#1F1A17" font-family="IBM Plex Mono, Menlo, monospace" font-size="25" font-weight="600" text-anchor="middle">PASS</text><path d="M 785 131 l 16 16 l 36 -39" fill="none" stroke="#1F1A17" stroke-width="6" stroke-linecap="round" stroke-linejoin="round" opacity="1"/><g><path d="M 128 198 Q 425 192 721 200 Q 729 232 722 265 Q 425 272 127 264 Q 121 232 128 198 Z" fill="#FAF4EA" stroke="#1F1A17" stroke-width="1.3" stroke-linecap="butt" stroke-linejoin="round" opacity="1"/></g><text x="160" y="241" fill="#8A847A" font-family="IBM Plex Mono, Menlo, monospace" font-size="18" font-weight="600" text-anchor="start">MN908947.3</text><text x="340" y="241" fill="#8A847A" font-family="IBM Plex Mono, Menlo, monospace" font-size="18" font-weight="600" text-anchor="start">22813</text><text x="435" y="241" fill="#8A847A" font-family="IBM Plex Mono, Menlo, monospace" font-size="18" font-weight="600" text-anchor="start">G</text><text x="495" y="241" fill="#8A847A" font-family="IBM Plex Mono, Menlo, monospace" font-size="18" font-weight="600" text-anchor="start">A</text><text x="615" y="241" fill="#1F1A17" font-family="IBM Plex Mono, Menlo, monospace" font-size="25" font-weight="600" text-anchor="middle">ft</text><g><path d="M 802.96 220 L 827.56 264.28 L 780 264.28 Z" fill="#F6B088" stroke="#1F1A17" stroke-width="2.46" stroke-linecap="butt" stroke-linejoin="round" opacity="1"/><line x1="803.8" y1="234.8" x2="803.8" y2="247.9" stroke="#1F1A17" stroke-width="3.28" stroke-linecap="round" opacity="1"/><circle cx="803.8" cy="256.1" r="2.1" fill="#1F1A17" stroke="#1F1A17" stroke-width="1" opacity="1"/></g><g><text x="910" y="232.2" fill="#1F1A17" font-family="Inter, Helvetica, sans-serif" font-size="19" font-weight="600" text-anchor="start" transform="rotate(-0.8 910 232.2)">failed allele-frequency</text><text x="910" y="258.1" fill="#1F1A17" font-family="Inter, Helvetica, sans-serif" font-size="19" font-weight="600" text-anchor="start" transform="rotate(-0.8 910 258.1)">threshold</text></g><g><path d="M 128 303 Q 425 297 721 305 Q 729 337 722 370 Q 425 377 127 369 Q 121 337 128 303 Z" fill="#FAF4EA" stroke="#1F1A17" stroke-width="1.3" stroke-linecap="butt" stroke-linejoin="round" opacity="1"/></g><text x="160" y="346" fill="#8A847A" font-family="IBM Plex Mono, Menlo, monospace" font-size="18" font-weight="600" text-anchor="start">MN908947.3</text><text x="340" y="346" fill="#8A847A" font-family="IBM Plex Mono, Menlo, monospace" font-size="18" font-weight="600" text-anchor="start">23063</text><text x="435" y="346" fill="#8A847A" font-family="IBM Plex Mono, Menlo, monospace" font-size="18" font-weight="600" text-anchor="start">A</text><text x="495" y="346" fill="#8A847A" font-family="IBM Plex Mono, Menlo, monospace" font-size="18" font-weight="600" text-anchor="start">T</text><text x="615" y="346" fill="#1F1A17" font-family="IBM Plex Mono, Menlo, monospace" font-size="25" font-weight="600" text-anchor="middle">sb</text><g><path d="M 802.96 325 L 827.56 369.28 L 780 369.28 Z" fill="#F6B088" stroke="#1F1A17" stroke-width="2.46" stroke-linecap="butt" stroke-linejoin="round" opacity="1"/><line x1="803.8" y1="339.8" x2="803.8" y2="352.9" stroke="#1F1A17" stroke-width="3.28" stroke-linecap="round" opacity="1"/><circle cx="803.8" cy="361.1" r="2.1" fill="#1F1A17" stroke="#1F1A17" stroke-width="1" opacity="1"/></g><text x="910" y="348.7" fill="#1F1A17" font-family="Inter, Helvetica, sans-serif" font-size="19" font-weight="600" text-anchor="start" transform="rotate(0.6 910 348.7)">failed strand bias filter</text><text x="610" y="445.9" fill="#8A847A" font-family="Inter, Helvetica, sans-serif" font-size="18" font-weight="600" text-anchor="middle" transform="rotate(0.8 610 445.9)">ft, sb are Lungfish cross-caller filter names</text></g></svg>
