<svg xmlns="http://www.w3.org/2000/svg" width="1600" height="500" viewBox="0 0 1600 500" role="img" aria-labelledby="title-vcf-row-anatomy"><title id="title-vcf-row-anatomy">vcf-row-anatomy</title><defs><filter id="paperGrain" x="0" y="0" width="100%" height="100%"><feTurbulence type="fractalNoise" baseFrequency="0.9" numOctaves="2" seed="19" result="noise"/><feColorMatrix type="saturate" values="0"/><feBlend in="SourceGraphic" in2="noise" mode="multiply"/></filter><marker id="arrowCream" viewBox="0 0 10 10" refX="8" refY="5" markerWidth="8" markerHeight="8" orient="auto-start-reverse"><path d="M 0 0 L 10 5 L 0 10 Q 2 5 0 0" fill="#EE8B4F"/></marker><marker id="arrowInk" viewBox="0 0 10 10" refX="8" refY="5" markerWidth="7" markerHeight="7" orient="auto-start-reverse"><path d="M 0 0 L 10 5 L 0 10 Q 2 5 0 0" fill="#1F1A17"/></marker><linearGradient id="qualityGradient" x1="0%" x2="100%" y1="0%" y2="0%"><stop offset="0%" stop-color="#FAF4EA"/><stop offset="35%" stop-color="#F6B088"/><stop offset="100%" stop-color="#EE8B4F"/></linearGradient></defs><rect width="100%" height="100%" fill="#FAF4EA"/><rect width="100%" height="100%" fill="#FAF4EA" filter="url(#paperGrain)" opacity="0.34"/><g><g><path d="M 58 63 Q 135 57 211 65 Q 219 97 212 130 Q 135 137 57 129 Q 51 97 58 63 Z" fill="#EE8B4F" stroke="#1F1A17" stroke-width="1.1" stroke-linecap="butt" stroke-linejoin="round" opacity="1"/><g><path d="M 61.2 82.5 L 89.8 83.9 L 118.5 82.1 L 147.1 81.2 L 175.8 83.2 L 204.4 83.6" fill="none" stroke="#EE8B4F" stroke-width="1.15" stroke-linecap="round" stroke-linejoin="round" opacity="0.16"/><path d="M 61.2 111.7 L 89.8 113.1 L 118.4 111.3 L 147 110.4 L 175.6 112.4 L 204.2 112.8" fill="none" stroke="#EE8B4F" stroke-width="1.15" stroke-linecap="round" stroke-linejoin="round" opacity="0.16"/></g></g><g><path d="M 58 133 Q 135 127 211 135 Q 219 177 212 220 Q 135 227 57 219 Q 51 177 58 133 Z" fill="#FAF4EA" stroke="#1F1A17" stroke-width="1.1" stroke-linecap="butt" stroke-linejoin="round" opacity="1"/></g><text x="135" y="104.6" fill="#1F1A17" font-family="Inter, Helvetica, sans-serif" font-size="21" font-weight="700" text-anchor="middle" transform="rotate(-0.4 135 104.6)">CHROM</text><text x="135" y="185" fill="#1F1A17" font-family="IBM Plex Mono, Menlo, monospace" font-size="19" font-weight="600" text-anchor="middle">MN908947.3</text><g><path d="M 58 241 Q 135 235 211 243 Q 219 301 212 360 Q 135 367 57 359 Q 51 301 58 241 Z" fill="#FAF4EA" stroke="#1F1A17" stroke-width="0.7" stroke-linecap="butt" stroke-linejoin="round" opacity="0.68"/></g><g><text x="135" y="274" fill="#8A847A" font-family="Inter, Helvetica, sans-serif" font-size="16" font-weight="800" text-anchor="middle">chromosome</text></g><g><path d="M 218 63 Q 262.5 57 306 65 Q 314 97 307 130 Q 262.5 137 217 129 Q 211 97 218 63 Z" fill="#EE8B4F" stroke="#1F1A17" stroke-width="1.1" stroke-linecap="butt" stroke-linejoin="round" opacity="1"/><g><path d="M 223.3 84.7 L 238.5 86.1 L 253.7 84.3 L 269 83.4 L 284.2 85.4 L 299.4 85.8" fill="none" stroke="#EE8B4F" stroke-width="1.15" stroke-linecap="round" stroke-linejoin="round" opacity="0.16"/><path d="M 223.4 108.7 L 238.6 110.1 L 253.7 108.3 L 268.9 107.4 L 284 109.4 L 299.2 109.8" fill="none" stroke="#EE8B4F" stroke-width="1.15" stroke-linecap="round" stroke-linejoin="round" opacity="0.16"/></g></g><g><path d="M 218 133 Q 262.5 127 306 135 Q 314 177 307 220 Q 262.5 227 217 219 Q 211 177 218 133 Z" fill="#FAF4EA" stroke="#1F1A17" stroke-width="1.1" stroke-linecap="butt" stroke-linejoin="round" opacity="1"/></g><text x="262.5" y="105.6" fill="#1F1A17" font-family="Inter, Helvetica, sans-serif" font-size="21" font-weight="700" text-anchor="middle" transform="rotate(0.6 262.5 105.6)">POS</text><text x="262.5" y="185" fill="#1F1A17" font-family="IBM Plex Mono, Menlo, monospace" font-size="19" font-weight="600" text-anchor="middle">21618</text><g><path d="M 218 241 Q 262.5 235 306 243 Q 314 301 307 360 Q 262.5 367 217 359 Q 211 301 218 241 Z" fill="#FAF4EA" stroke="#1F1A17" stroke-width="0.7" stroke-linecap="butt" stroke-linejoin="round" opacity="0.68"/></g><g><text x="262.5" y="274" fill="#8A847A" font-family="Inter, Helvetica, sans-serif" font-size="16" font-weight="800" text-anchor="middle">1-based</text><text x="262.5" y="292" fill="#8A847A" font-family="Inter, Helvetica, sans-serif" font-size="16" font-weight="800" text-anchor="middle">position</text></g><g><path d="M 313 63 Q 345 57 376 65 Q 384 97 377 130 Q 345 137 312 129 Q 306 97 313 63 Z" fill="#EE8B4F" stroke="#1F1A17" stroke-width="1.1" stroke-linecap="butt" stroke-linejoin="round" opacity="1"/><g><path d="M 316.1 88.2 L 326.8 89.6 L 337.4 87.8 L 348.1 86.9 L 358.7 88.9 L 369.4 89.3" fill="none" stroke="#EE8B4F" stroke-width="1.15" stroke-linecap="round" stroke-linejoin="round" opacity="0.16"/><path d="M 316 106.2 L 326.6 107.6 L 337.3 105.8 L 347.9 104.9 L 358.6 106.9 L 369.2 107.3" fill="none" stroke="#EE8B4F" stroke-width="1.15" stroke-linecap="round" stroke-linejoin="round" opacity="0.16"/></g></g><g><path d="M 313 133 Q 345 127 376 135 Q 384 177 377 220 Q 345 227 312 219 Q 306 177 313 133 Z" fill="#FAF4EA" stroke="#1F1A17" stroke-width="1.1" stroke-linecap="butt" stroke-linejoin="round" opacity="1"/></g><text x="345" y="105.5" fill="#1F1A17" font-family="Inter, Helvetica, sans-serif" font-size="21" font-weight="700" text-anchor="middle" transform="rotate(0.5 345 105.5)">ID</text><text x="345" y="185" fill="#1F1A17" font-family="IBM Plex Mono, Menlo, monospace" font-size="19" font-weight="600" text-anchor="middle">.</text><g><path d="M 313 241 Q 345 235 376 243 Q 384 301 377 360 Q 345 367 312 359 Q 306 301 313 241 Z" fill="#FAF4EA" stroke="#1F1A17" stroke-width="0.7" stroke-linecap="butt" stroke-linejoin="round" opacity="0.68"/></g><g><text x="345" y="274" fill="#8A847A" font-family="Inter, Helvetica, sans-serif" font-size="16" font-weight="800" text-anchor="middle">ID or</text><text x="345" y="292" fill="#8A847A" font-family="Inter, Helvetica, sans-serif" font-size="16" font-weight="800" text-anchor="middle">.</text></g><g><path d="M 383 63 Q 415 57 446 65 Q 454 97 447 130 Q 415 137 382 129 Q 376 97 383 63 Z" fill="#EE8B4F" stroke="#1F1A17" stroke-width="1.1" stroke-linecap="butt" stroke-linejoin="round" opacity="1"/><g><path d="M 392 88.1 L 401.5 89.5 L 411 87.7 L 420.4 86.8 L 429.9 88.8 L 439.4 89.2" fill="none" stroke="#EE8B4F" stroke-width="1.15" stroke-linecap="round" stroke-linejoin="round" opacity="0.16"/><path d="M 391.9 106.2 L 401.4 107.6 L 410.8 105.8 L 420.3 104.9 L 429.7 106.9 L 439.2 107.3" fill="none" stroke="#EE8B4F" stroke-width="1.15" stroke-linecap="round" stroke-linejoin="round" opacity="0.16"/></g></g><g><path d="M 383 133 Q 415 127 446 135 Q 454 177 447 220 Q 415 227 382 219 Q 376 177 383 133 Z" fill="#FAF4EA" stroke="#1F1A17" stroke-width="1.1" stroke-linecap="butt" stroke-linejoin="round" opacity="1"/></g><text x="415" y="105.4" fill="#1F1A17" font-family="Inter, Helvetica, sans-serif" font-size="21" font-weight="700" text-anchor="middle" transform="rotate(0.3 415 105.4)">REF</text><text x="415" y="185" fill="#1F1A17" font-family="IBM Plex Mono, Menlo, monospace" font-size="19" font-weight="600" text-anchor="middle">C</text><g><path d="M 383 241 Q 415 235 446 243 Q 454 301 447 360 Q 415 367 382 359 Q 376 301 383 241 Z" fill="#FAF4EA" stroke="#1F1A17" stroke-width="0.7" stroke-linecap="butt" stroke-linejoin="round" opacity="0.68"/></g><g><text x="415" y="274" fill="#8A847A" font-family="Inter, Helvetica, sans-serif" font-size="16" font-weight="800" text-anchor="middle">REF</text><text x="415" y="292" fill="#8A847A" font-family="Inter, Helvetica, sans-serif" font-size="16" font-weight="800" text-anchor="middle">base</text></g><g><path d="M 453 63 Q 485 57 516 65 Q 524 97 517 130 Q 485 137 452 129 Q 446 97 453 63 Z" fill="#EE8B4F" stroke="#1F1A17" stroke-width="1.1" stroke-linecap="butt" stroke-linejoin="round" opacity="1"/><g><path d="M 456.4 88.1 L 467 89.5 L 477.6 87.7 L 488.2 86.8 L 498.8 88.8 L 509.4 89.2" fill="none" stroke="#EE8B4F" stroke-width="1.15" stroke-linecap="round" stroke-linejoin="round" opacity="0.16"/><path d="M 456.5 106.3 L 467 107.7 L 477.6 105.9 L 488.1 105 L 498.7 107 L 509.2 107.4" fill="none" stroke="#EE8B4F" stroke-width="1.15" stroke-linecap="round" stroke-linejoin="round" opacity="0.16"/></g></g><g><path d="M 453 133 Q 485 127 516 135 Q 524 177 517 220 Q 485 227 452 219 Q 446 177 453 133 Z" fill="#FAF4EA" stroke="#1F1A17" stroke-width="1.1" stroke-linecap="butt" stroke-linejoin="round" opacity="1"/></g><text x="485" y="104.1" fill="#1F1A17" font-family="Inter, Helvetica, sans-serif" font-size="21" font-weight="700" text-anchor="middle" transform="rotate(-0.8 485 104.1)">ALT</text><text x="485" y="185" fill="#1F1A17" font-family="IBM Plex Mono, Menlo, monospace" font-size="19" font-weight="600" text-anchor="middle">T</text><g><path d="M 453 241 Q 485 235 516 243 Q 524 301 517 360 Q 485 367 452 359 Q 446 301 453 241 Z" fill="#FAF4EA" stroke="#1F1A17" stroke-width="0.7" stroke-linecap="butt" stroke-linejoin="round" opacity="0.68"/></g><g><text x="485" y="274" fill="#8A847A" font-family="Inter, Helvetica, sans-serif" font-size="16" font-weight="800" text-anchor="middle">ALT</text><text x="485" y="292" fill="#8A847A" font-family="Inter, Helvetica, sans-serif" font-size="16" font-weight="800" text-anchor="middle">base</text></g><g><path d="M 523 63 Q 565 57 606 65 Q 614 97 607 130 Q 565 137 522 129 Q 516 97 523 63 Z" fill="#EE8B4F" stroke="#1F1A17" stroke-width="1.1" stroke-linecap="butt" stroke-linejoin="round" opacity="1"/><g><path d="M 530.9 88.1 L 544.6 89.5 L 558.3 87.7 L 572 86.8 L 585.7 88.8 L 599.4 89.2" fill="none" stroke="#EE8B4F" stroke-width="1.15" stroke-linecap="round" stroke-linejoin="round" opacity="0.16"/><path d="M 530.8 106.3 L 544.5 107.7 L 558.2 105.9 L 571.8 105 L 585.5 107 L 599.2 107.4" fill="none" stroke="#EE8B4F" stroke-width="1.15" stroke-linecap="round" stroke-linejoin="round" opacity="0.16"/></g></g><g><path d="M 523 133 Q 565 127 606 135 Q 614 177 607 220 Q 565 227 522 219 Q 516 177 523 133 Z" fill="#FAF4EA" stroke="#1F1A17" stroke-width="1.1" stroke-linecap="butt" stroke-linejoin="round" opacity="1"/></g><text x="565" y="105.8" fill="#1F1A17" font-family="Inter, Helvetica, sans-serif" font-size="21" font-weight="700" text-anchor="middle" transform="rotate(0.8 565 105.8)">QUAL</text><text x="565" y="185" fill="#1F1A17" font-family="IBM Plex Mono, Menlo, monospace" font-size="19" font-weight="600" text-anchor="middle">1234</text><g><path d="M 523 241 Q 565 235 606 243 Q 614 301 607 360 Q 565 367 522 359 Q 516 301 523 241 Z" fill="#FAF4EA" stroke="#1F1A17" stroke-width="0.7" stroke-linecap="butt" stroke-linejoin="round" opacity="0.68"/></g><g><text x="565" y="274" fill="#8A847A" font-family="Inter, Helvetica, sans-serif" font-size="16" font-weight="800" text-anchor="middle">Phred</text><text x="565" y="292" fill="#8A847A" font-family="Inter, Helvetica, sans-serif" font-size="16" font-weight="800" text-anchor="middle">quality</text></g><g><path d="M 613 63 Q 660 57 706 65 Q 714 97 707 130 Q 660 137 612 129 Q 606 97 613 63 Z" fill="#EE8B4F" stroke="#1F1A17" stroke-width="1.1" stroke-linecap="butt" stroke-linejoin="round" opacity="1"/><g><path d="M 620.8 83.1 L 636.5 84.5 L 652.2 82.7 L 668 81.8 L 683.7 83.8 L 699.4 84.2" fill="none" stroke="#EE8B4F" stroke-width="1.15" stroke-linecap="round" stroke-linejoin="round" opacity="0.16"/><path d="M 620.9 111.3 L 636.6 112.7 L 652.2 110.9 L 667.9 110 L 683.5 112 L 699.2 112.4" fill="none" stroke="#EE8B4F" stroke-width="1.15" stroke-linecap="round" stroke-linejoin="round" opacity="0.16"/></g></g><g><path d="M 613 133 Q 660 127 706 135 Q 714 177 707 220 Q 660 227 612 219 Q 606 177 613 133 Z" fill="#FAF4EA" stroke="#1F1A17" stroke-width="1.1" stroke-linecap="butt" stroke-linejoin="round" opacity="1"/></g><text x="660" y="105.9" fill="#1F1A17" font-family="Inter, Helvetica, sans-serif" font-size="21" font-weight="700" text-anchor="middle" transform="rotate(0.8 660 105.9)">FILTER</text><text x="660" y="185" fill="#1F1A17" font-family="IBM Plex Mono, Menlo, monospace" font-size="19" font-weight="600" text-anchor="middle">PASS</text><g><path d="M 613 241 Q 660 235 706 243 Q 714 301 707 360 Q 660 367 612 359 Q 606 301 613 241 Z" fill="#FAF4EA" stroke="#1F1A17" stroke-width="0.7" stroke-linecap="butt" stroke-linejoin="round" opacity="0.68"/></g><g><text x="660" y="274" fill="#8A847A" font-family="Inter, Helvetica, sans-serif" font-size="16" font-weight="800" text-anchor="middle">filter</text><text x="660" y="292" fill="#8A847A" font-family="Inter, Helvetica, sans-serif" font-size="16" font-weight="800" text-anchor="middle">status</text></g><g><path d="M 713 63 Q 815 57 916 65 Q 924 97 917 130 Q 815 137 712 129 Q 706 97 713 63 Z" fill="#EE8B4F" stroke="#1F1A17" stroke-width="1.1" stroke-linecap="butt" stroke-linejoin="round" opacity="1"/><g><path d="M 717.2 86.5 L 755.6 87.9 L 794.1 86.1 L 832.5 85.2 L 871 87.2 L 909.4 87.6" fill="none" stroke="#EE8B4F" stroke-width="1.15" stroke-linecap="round" stroke-linejoin="round" opacity="0.16"/><path d="M 717.4 107 L 755.8 108.4 L 794.1 106.6 L 832.5 105.7 L 870.8 107.7 L 909.2 108.1" fill="none" stroke="#EE8B4F" stroke-width="1.15" stroke-linecap="round" stroke-linejoin="round" opacity="0.16"/></g></g><g><path d="M 713 133 Q 815 127 916 135 Q 924 177 917 220 Q 815 227 712 219 Q 706 177 713 133 Z" fill="#FAF4EA" stroke="#1F1A17" stroke-width="1.1" stroke-linecap="butt" stroke-linejoin="round" opacity="1"/></g><text x="815" y="104.2" fill="#1F1A17" font-family="Inter, Helvetica, sans-serif" font-size="21" font-weight="700" text-anchor="middle" transform="rotate(-0.8 815 104.2)">INFO</text><text x="815" y="185" fill="#1F1A17" font-family="IBM Plex Mono, Menlo, monospace" font-size="17" font-weight="600" text-anchor="middle">DP=200;AF=0.95</text><g><path d="M 713 241 Q 815 235 916 243 Q 924 301 917 360 Q 815 367 712 359 Q 706 301 713 241 Z" fill="#FAF4EA" stroke="#1F1A17" stroke-width="0.7" stroke-linecap="butt" stroke-linejoin="round" opacity="0.68"/></g><g><text x="815" y="274" fill="#8A847A" font-family="Inter, Helvetica, sans-serif" font-size="16" font-weight="800" text-anchor="middle">INFO annotations</text></g><g><path d="M 923 63 Q 992.5 57 1061 65 Q 1069 97 1062 130 Q 992.5 137 922 129 Q 916 97 923 63 Z" fill="#EE8B4F" stroke="#1F1A17" stroke-width="1.1" stroke-linecap="butt" stroke-linejoin="round" opacity="1"/><g><path d="M 927.7 86.6 L 953 88 L 978.4 86.2 L 1003.7 85.3 L 1029.1 87.3 L 1054.4 87.7" fill="none" stroke="#EE8B4F" stroke-width="1.15" stroke-linecap="round" stroke-linejoin="round" opacity="0.16"/><path d="M 927.6 106.8 L 952.9 108.2 L 978.2 106.4 L 1003.6 105.5 L 1028.9 107.5 L 1054.2 107.9" fill="none" stroke="#EE8B4F" stroke-width="1.15" stroke-linecap="round" stroke-linejoin="round" opacity="0.16"/></g></g><g><path d="M 923 133 Q 992.5 127 1061 135 Q 1069 177 1062 220 Q 992.5 227 922 219 Q 916 177 923 133 Z" fill="#FAF4EA" stroke="#1F1A17" stroke-width="1.1" stroke-linecap="butt" stroke-linejoin="round" opacity="1"/></g><text x="992.5" y="104.1" fill="#1F1A17" font-family="Inter, Helvetica, sans-serif" font-size="21" font-weight="700" text-anchor="middle" transform="rotate(-0.8 992.5 104.1)">FORMAT</text><text x="992.5" y="185" fill="#1F1A17" font-family="IBM Plex Mono, Menlo, monospace" font-size="19" font-weight="600" text-anchor="middle">GT:DP:AF</text><g><path d="M 923 241 Q 992.5 235 1061 243 Q 1069 301 1062 360 Q 992.5 367 922 359 Q 916 301 923 241 Z" fill="#FAF4EA" stroke="#1F1A17" stroke-width="0.7" stroke-linecap="butt" stroke-linejoin="round" opacity="0.68"/></g><g><text x="992.5" y="274" fill="#8A847A" font-family="Inter, Helvetica, sans-serif" font-size="16" font-weight="800" text-anchor="middle">format keys</text></g><g><path d="M 1068 63 Q 1150 57 1231 65 Q 1239 97 1232 130 Q 1150 137 1067 129 Q 1061 97 1068 63 Z" fill="#EE8B4F" stroke="#1F1A17" stroke-width="1.1" stroke-linecap="butt" stroke-linejoin="round" opacity="1"/><g><path d="M 1071 87.8 L 1101.7 89.2 L 1132.4 87.4 L 1163 86.5 L 1193.7 88.5 L 1224.4 88.9" fill="none" stroke="#EE8B4F" stroke-width="1.15" stroke-linecap="round" stroke-linejoin="round" opacity="0.16"/><path d="M 1071 105.8 L 1101.6 107.2 L 1132.3 105.4 L 1162.9 104.5 L 1193.6 106.5 L 1224.2 106.9" fill="none" stroke="#EE8B4F" stroke-width="1.15" stroke-linecap="round" stroke-linejoin="round" opacity="0.16"/></g></g><g><path d="M 1068 133 Q 1150 127 1231 135 Q 1239 177 1232 220 Q 1150 227 1067 219 Q 1061 177 1068 133 Z" fill="#FAF4EA" stroke="#1F1A17" stroke-width="1.1" stroke-linecap="butt" stroke-linejoin="round" opacity="1"/></g><text x="1150" y="104.1" fill="#1F1A17" font-family="Inter, Helvetica, sans-serif" font-size="21" font-weight="700" text-anchor="middle" transform="rotate(-0.8 1150 104.1)">sample</text><text x="1150" y="185" fill="#1F1A17" font-family="IBM Plex Mono, Menlo, monospace" font-size="19" font-weight="600" text-anchor="middle">1:200:0.95</text><g><path d="M 1068 241 Q 1150 235 1231 243 Q 1239 301 1232 360 Q 1150 367 1067 359 Q 1061 301 1068 241 Z" fill="#FAF4EA" stroke="#1F1A17" stroke-width="0.7" stroke-linecap="butt" stroke-linejoin="round" opacity="0.68"/></g><g><text x="1150" y="274" fill="#8A847A" font-family="Inter, Helvetica, sans-serif" font-size="16" font-weight="800" text-anchor="middle">sample values</text></g></g></svg>
