<svg xmlns="http://www.w3.org/2000/svg" width="1400" height="500" viewBox="0 0 1400 500" role="img" aria-labelledby="title-classification-question"><title id="title-classification-question">classification-question</title><defs><filter id="paperGrain" x="0" y="0" width="100%" height="100%"><feTurbulence type="fractalNoise" baseFrequency="0.9" numOctaves="2" seed="19" result="noise"/><feColorMatrix type="saturate" values="0"/><feBlend in="SourceGraphic" in2="noise" mode="multiply"/></filter><marker id="arrowCream" viewBox="0 0 10 10" refX="8" refY="5" markerWidth="8" markerHeight="8" orient="auto-start-reverse"><path d="M 0 0 L 10 5 L 0 10 Q 2 5 0 0" fill="#EE8B4F"/></marker><marker id="arrowInk" viewBox="0 0 10 10" refX="8" refY="5" markerWidth="7" markerHeight="7" orient="auto-start-reverse"><path d="M 0 0 L 10 5 L 0 10 Q 2 5 0 0" fill="#1F1A17"/></marker><linearGradient id="qualityGradient" x1="0%" x2="100%" y1="0%" y2="0%"><stop offset="0%" stop-color="#FAF4EA"/><stop offset="35%" stop-color="#F6B088"/><stop offset="100%" stop-color="#EE8B4F"/></linearGradient></defs><rect width="100%" height="100%" fill="#FAF4EA"/><rect width="100%" height="100%" fill="#FAF4EA" filter="url(#paperGrain)" opacity="0.34"/><g><g><path d="M 120 172 L 290 172 L 325 206 L 325 304 Q 225 316 120 304 Z" fill="#FAF4EA" stroke="#EE8B4F" stroke-width="4" stroke-linecap="butt" stroke-linejoin="round" opacity="1"/><path d="M 290 172 L 290 208 L 325 206" fill="none" stroke="#EE8B4F" stroke-width="3" stroke-linecap="butt" stroke-linejoin="round" opacity="1"/><text x="222" y="236" fill="#1F1A17" font-family="IBM Plex Mono, Menlo, monospace" font-size="19" font-weight="600" text-anchor="middle">reads.fastq.gz</text><text x="222" y="339.9" fill="#8A847A" font-family="Inter, Helvetica, sans-serif" font-size="19" font-weight="600" text-anchor="middle" transform="rotate(0.8 222 339.9)">input reads</text></g><g><path d="M 360 250 C 442.5 240 442.5 260 525 250" fill="none" stroke="#EE8B4F" stroke-width="7" stroke-linecap="round" stroke-linejoin="round" opacity="1" marker-end="url(#arrowCream)"/><path d="M 360 250 C 442.5 240 442.5 260 525 250" fill="none" stroke="#EE8B4F" stroke-width="1.75" stroke-linecap="round" stroke-linejoin="round" opacity="0.32"/></g><g><path d="M 538 149 Q 707.5 143 876 151 Q 884 250.5 877 351 Q 707.5 358 537 350 Q 531 250.5 538 149 Z" fill="#EE8B4F" stroke="#EE8B4F" stroke-width="3" stroke-linecap="butt" stroke-linejoin="round" opacity="0.92"/><g><path d="M 543.9 179 L 609.6 180.4 L 675.4 178.6 L 741.1 177.7 L 806.9 179.7 L 872.6 180.1" fill="none" stroke="#EE8B4F" stroke-width="1.15" stroke-linecap="round" stroke-linejoin="round" opacity="0.1472"/><path d="M 543.7 219.3 L 609.4 220.7 L 675.2 218.9 L 740.9 218 L 806.7 220 L 872.4 220.4" fill="none" stroke="#EE8B4F" stroke-width="1.15" stroke-linecap="round" stroke-linejoin="round" opacity="0.1472"/><path d="M 543.6 247.8 L 609.3 249.2 L 675 247.4 L 740.8 246.5 L 806.5 248.5 L 872.2 248.9" fill="none" stroke="#EE8B4F" stroke-width="1.15" stroke-linecap="round" stroke-linejoin="round" opacity="0.1472"/><path d="M 543.4 287 L 609.1 288.4 L 674.9 286.6 L 740.6 285.7 L 806.4 287.7 L 872.1 288.1" fill="none" stroke="#EE8B4F" stroke-width="1.15" stroke-linecap="round" stroke-linejoin="round" opacity="0.1472"/><path d="M 543.3 317 L 609 318.4 L 674.7 316.6 L 740.5 315.7 L 806.2 317.7 L 871.9 318.1" fill="none" stroke="#EE8B4F" stroke-width="1.15" stroke-linecap="round" stroke-linejoin="round" opacity="0.1472"/></g></g><text x="707" y="211.4" fill="#1F1A17" font-family="Inter, Helvetica, sans-serif" font-size="31" font-weight="700" text-anchor="middle" transform="rotate(-0.6 707 211.4)">classifier</text><text x="707" y="260.9" fill="#1F1A17" font-family="Inter, Helvetica, sans-serif" font-size="20" font-weight="600" text-anchor="middle" transform="rotate(0.8 707 260.9)">Kraken2 / EsViritu</text><text x="707" y="292.7" fill="#1F1A17" font-family="Inter, Helvetica, sans-serif" font-size="20" font-weight="600" text-anchor="middle" transform="rotate(0.6 707 292.7)">TaxTriage / NAO-MGS</text><text x="707" y="323.1" fill="#1F1A17" font-family="Inter, Helvetica, sans-serif" font-size="18" font-weight="600" text-anchor="middle" transform="rotate(-0.8 707 323.1)">alternative tools</text><g><path d="M 885 250 C 950 240 950 260 1015 250" fill="none" stroke="#EE8B4F" stroke-width="7" stroke-linecap="round" stroke-linejoin="round" opacity="1" marker-end="url(#arrowCream)"/><path d="M 885 250 C 950 240 950 260 1015 250" fill="none" stroke="#EE8B4F" stroke-width="1.75" stroke-linecap="round" stroke-linejoin="round" opacity="0.32"/></g><g><path d="M 1130 134 A 116 116 0 0 1 1235.1 299 L 1160.8 264.4 A 34 34 0 0 0 1130 216 Z" fill="#EE8B4F" stroke="#1F1A17" stroke-width="2" stroke-linecap="butt" stroke-linejoin="round" opacity="0.72"/><path d="M 1235.1 299 A 116 116 0 0 1 1041.1 324.6 L 1104 271.9 A 34 34 0 0 0 1160.8 264.4 Z" fill="#F6B088" stroke="#1F1A17" stroke-width="2" stroke-linecap="butt" stroke-linejoin="round" opacity="0.72"/><path d="M 1041.1 324.6 A 116 116 0 0 1 1130 134 L 1130 216 A 34 34 0 0 0 1104 271.9 Z" fill="#8A847A" stroke="#1F1A17" stroke-width="2" stroke-linecap="butt" stroke-linejoin="round" opacity="0.72"/><path d="M 1188.1 90.3 A 170 170 0 0 1 1260.2 359.3 L 1223.5 328.4 A 122 122 0 0 0 1171.7 135.4 Z" fill="#EE8B4F" stroke="#1F1A17" stroke-width="2" stroke-linecap="butt" stroke-linejoin="round" opacity="0.72"/><path d="M 1250.2 370.2 A 170 170 0 0 1 960.6 264.8 L 1008.5 260.6 A 122 122 0 0 0 1216.3 336.3 Z" fill="#F6B088" stroke="#1F1A17" stroke-width="2" stroke-linecap="butt" stroke-linejoin="round" opacity="0.72"/><path d="M 960.1 255.9 A 170 170 0 0 1 1100.5 82.6 L 1108.8 129.9 A 122 122 0 0 0 1008.1 254.3 Z" fill="#EE8B4F" stroke="#1F1A17" stroke-width="2" stroke-linecap="butt" stroke-linejoin="round" opacity="0.72"/><circle cx="1130" cy="250" r="32" fill="#FAF4EA" stroke="#1F1A17" stroke-width="2" opacity="1"/></g><line x1="1130" y1="84" x2="1130" y2="122" stroke="#EE8B4F" stroke-width="2" stroke-linecap="round" opacity="1"/><text x="1130" y="63.4" fill="#1F1A17" font-family="Inter, Helvetica, sans-serif" font-size="21" font-weight="600" text-anchor="middle" transform="rotate(-0.5 1130 63.4)">bacteria</text><line x1="1266" y1="250" x2="1290" y2="250" stroke="#EE8B4F" stroke-width="2" stroke-linecap="round" opacity="1"/><text x="1302" y="257.5" fill="#1F1A17" font-family="Inter, Helvetica, sans-serif" font-size="21" font-weight="600" text-anchor="start" transform="rotate(-0.5 1302 257.5)">virus</text><line x1="1061" y1="382" x2="1035" y2="408" stroke="#EE8B4F" stroke-width="2" stroke-linecap="round" opacity="1"/><text x="1018" y="434.5" fill="#1F1A17" font-family="Inter, Helvetica, sans-serif" font-size="21" font-weight="600" text-anchor="middle" transform="rotate(-0.5 1018 434.5)">host</text></g></svg>
