<svg xmlns="http://www.w3.org/2000/svg" width="1400" height="600" viewBox="0 0 1400 600" role="img" aria-labelledby="title-fastq-record-anatomy"><title id="title-fastq-record-anatomy">fastq-record-anatomy</title><defs><filter id="paperGrain" x="0" y="0" width="100%" height="100%"><feTurbulence type="fractalNoise" baseFrequency="0.9" numOctaves="2" seed="19" result="noise"/><feColorMatrix type="saturate" values="0"/><feBlend in="SourceGraphic" in2="noise" mode="multiply"/></filter><marker id="arrowCream" viewBox="0 0 10 10" refX="8" refY="5" markerWidth="8" markerHeight="8" orient="auto-start-reverse"><path d="M 0 0 L 10 5 L 0 10 Q 2 5 0 0" fill="#EE8B4F"/></marker><marker id="arrowInk" viewBox="0 0 10 10" refX="8" refY="5" markerWidth="7" markerHeight="7" orient="auto-start-reverse"><path d="M 0 0 L 10 5 L 0 10 Q 2 5 0 0" fill="#1F1A17"/></marker><linearGradient id="qualityGradient" x1="0%" x2="100%" y1="0%" y2="0%"><stop offset="0%" stop-color="#FAF4EA"/><stop offset="35%" stop-color="#F6B088"/><stop offset="100%" stop-color="#EE8B4F"/></linearGradient></defs><rect width="100%" height="100%" fill="#FAF4EA"/><rect width="100%" height="100%" fill="#FAF4EA" filter="url(#paperGrain)" opacity="0.34"/><g><text x="235" y="141.7" fill="#1F1A17" font-family="Inter, Helvetica, sans-serif" font-size="26" font-weight="700" text-anchor="end" transform="rotate(-0.3 235 141.7)">header</text><g><path d="M 288 93 Q 735 87 1181 95 Q 1189 133 1182 172 Q 735 179 287 171 Q 281 133 288 93 Z" fill="#EE8B4F" stroke="#EE8B4F" stroke-width="0" stroke-linecap="butt" stroke-linejoin="round" opacity="1"/><g><path d="M 293.7 107.5 L 469.7 108.9 L 645.8 107.1 L 821.8 106.2 L 997.9 108.2 L 1173.9 108.6" fill="none" stroke="#EE8B4F" stroke-width="1.15" stroke-linecap="round" stroke-linejoin="round" opacity="0.16"/><path d="M 293.5 118 L 469.6 119.4 L 645.7 117.6 L 821.9 116.7 L 998 118.7 L 1174.1 119.1" fill="none" stroke="#EE8B4F" stroke-width="1.15" stroke-linecap="round" stroke-linejoin="round" opacity="0.16"/><path d="M 293.4 133.8 L 469.6 135.2 L 645.7 133.4 L 821.9 132.5 L 998 134.5 L 1174.2 134.9" fill="none" stroke="#EE8B4F" stroke-width="1.15" stroke-linecap="round" stroke-linejoin="round" opacity="0.16"/><path d="M 293.2 146.5 L 469.4 147.9 L 645.6 146.1 L 821.9 145.2 L 998.1 147.2 L 1174.3 147.6" fill="none" stroke="#EE8B4F" stroke-width="1.15" stroke-linecap="round" stroke-linejoin="round" opacity="0.16"/><path d="M 293.1 159.9 L 469.4 161.3 L 645.7 159.5 L 821.9 158.6 L 998.2 160.6 L 1174.5 161" fill="none" stroke="#EE8B4F" stroke-width="1.15" stroke-linecap="round" stroke-linejoin="round" opacity="0.16"/></g></g><text x="735" y="142" fill="#1F1A17" font-family="IBM Plex Mono, Menlo, monospace" font-size="26" font-weight="600" text-anchor="middle">@SRR36291587.1.1 length=150</text><text x="235" y="253.9" fill="#1F1A17" font-family="Inter, Helvetica, sans-serif" font-size="26" font-weight="700" text-anchor="end" transform="rotate(0.8 235 253.9)">sequence</text><g><path d="M 288 189 Q 735 183 1181 191 Q 1189 244 1182 298 Q 735 305 287 297 Q 281 244 288 189 Z" fill="#FAF4EA" stroke="#1F1A17" stroke-width="1.4" stroke-linecap="butt" stroke-linejoin="round" opacity="0.45"/></g><text x="735" y="253" fill="#1F1A17" font-family="IBM Plex Mono, Menlo, monospace" font-size="24" font-weight="600" text-anchor="middle">ACGTTGACCTGAACTTACGGAACCTGACTA[...]GTTACG</text><text x="235" y="354.7" fill="#1F1A17" font-family="Inter, Helvetica, sans-serif" font-size="26" font-weight="700" text-anchor="end" transform="rotate(0.6 235 354.7)">separator</text><g><path d="M 288 319 Q 735 313 1181 321 Q 1189 345 1182 370 Q 735 377 287 369 Q 281 345 288 319 Z" fill="#FAF4EA" stroke="#1F1A17" stroke-width="1.4" stroke-linecap="butt" stroke-linejoin="round" opacity="1"/></g><text x="735" y="354" fill="#1F1A17" font-family="IBM Plex Mono, Menlo, monospace" font-size="26" font-weight="600" text-anchor="middle">+</text><text x="235" y="441.7" fill="#1F1A17" font-family="Inter, Helvetica, sans-serif" font-size="26" font-weight="700" text-anchor="end" transform="rotate(-0.3 235 441.7)">quality</text><g><path d="M 288 391 Q 735 385 1181 393 Q 1189 433 1182 474 Q 735 481 287 473 Q 281 433 288 391 Z" fill="#FAF4EA" stroke="#1F1A17" stroke-width="1.4" stroke-linecap="butt" stroke-linejoin="round" opacity="1"/></g><text x="735" y="442" fill="#1F1A17" font-family="IBM Plex Mono, Menlo, monospace" font-size="26" font-weight="600" text-anchor="middle">FFFFFFFFFFHHHHHHHHHHGGGGGGGGGG[...]&lt;&lt;&lt;;;;</text><text x="700" y="536.8" fill="#8A847A" font-family="Inter, Helvetica, sans-serif" font-size="22" font-weight="600" text-anchor="middle" transform="rotate(0.7 700 536.8)">one FASTQ record repeats as four lines: header, sequence, separator, quality</text></g></svg>
