<svg xmlns="http://www.w3.org/2000/svg" width="1400" height="500" viewBox="0 0 1400 500" role="img" aria-labelledby="title-paired-end-reads"><title id="title-paired-end-reads">paired-end-reads</title><defs><filter id="paperGrain" x="0" y="0" width="100%" height="100%"><feTurbulence type="fractalNoise" baseFrequency="0.9" numOctaves="2" seed="19" result="noise"/><feColorMatrix type="saturate" values="0"/><feBlend in="SourceGraphic" in2="noise" mode="multiply"/></filter><marker id="arrowCream" viewBox="0 0 10 10" refX="8" refY="5" markerWidth="8" markerHeight="8" orient="auto-start-reverse"><path d="M 0 0 L 10 5 L 0 10 Q 2 5 0 0" fill="#EE8B4F"/></marker><marker id="arrowInk" viewBox="0 0 10 10" refX="8" refY="5" markerWidth="7" markerHeight="7" orient="auto-start-reverse"><path d="M 0 0 L 10 5 L 0 10 Q 2 5 0 0" fill="#1F1A17"/></marker><linearGradient id="qualityGradient" x1="0%" x2="100%" y1="0%" y2="0%"><stop offset="0%" stop-color="#FAF4EA"/><stop offset="35%" stop-color="#F6B088"/><stop offset="100%" stop-color="#EE8B4F"/></linearGradient></defs><rect width="100%" height="100%" fill="#FAF4EA"/><rect width="100%" height="100%" fill="#FAF4EA" filter="url(#paperGrain)" opacity="0.34"/><g><path d="M 190 245 L 262.9 249 L 335.7 244 L 408.6 241.3 L 481.4 247 L 554.3 248.2 L 627.1 242.2 L 700 242.5 L 772.9 248.4 L 845.7 246.6 L 918.6 241.2 L 991.4 244.4 L 1064.3 249 L 1137.1 244.6 L 1210 241.1" fill="none" stroke="#1F1A17" stroke-width="8" stroke-linecap="round" stroke-linejoin="round" opacity="1"/><g><path d="M 205 190 C 380 180 380 200 555 190" fill="none" stroke="#EE8B4F" stroke-width="12" stroke-linecap="round" stroke-linejoin="round" opacity="1" marker-end="url(#arrowCream)"/><path d="M 205 190 C 380 180 380 200 555 190" fill="none" stroke="#EE8B4F" stroke-width="3" stroke-linecap="round" stroke-linejoin="round" opacity="0.32"/></g><g><path d="M 1190 300 C 1017.5 290 1017.5 310 845 300" fill="none" stroke="#EE8B4F" stroke-width="12" stroke-linecap="round" stroke-linejoin="round" opacity="1" marker-end="url(#arrowCream)"/><path d="M 1190 300 C 1017.5 290 1017.5 310 845 300" fill="none" stroke="#EE8B4F" stroke-width="3" stroke-linecap="round" stroke-linejoin="round" opacity="0.32"/></g><text x="375" y="145.6" fill="#1F1A17" font-family="Inter, Helvetica, sans-serif" font-size="26" font-weight="600" text-anchor="middle" transform="rotate(0.6 375 145.6)">read 1 (forward)</text><text x="1018" y="360.5" fill="#1F1A17" font-family="Inter, Helvetica, sans-serif" font-size="26" font-weight="600" text-anchor="middle" transform="rotate(0.5 1018 360.5)">read 2 (reverse complement)</text><path d="M 606 247 Q 705 215 794 247" fill="none" stroke="#8A847A" stroke-width="3" stroke-linecap="round" stroke-linejoin="round" opacity="1"/><text x="700" y="327.8" fill="#8A847A" font-family="Inter, Helvetica, sans-serif" font-size="24" font-weight="600" text-anchor="middle" transform="rotate(0.8 700 327.8)">unsequenced insert</text></g></svg>
