<svg xmlns="http://www.w3.org/2000/svg" width="1400" height="400" viewBox="0 0 1400 400" role="img" aria-labelledby="title-phred-quality-bar"><title id="title-phred-quality-bar">phred-quality-bar</title><defs><filter id="paperGrain" x="0" y="0" width="100%" height="100%"><feTurbulence type="fractalNoise" baseFrequency="0.9" numOctaves="2" seed="19" result="noise"/><feColorMatrix type="saturate" values="0"/><feBlend in="SourceGraphic" in2="noise" mode="multiply"/></filter><marker id="arrowCream" viewBox="0 0 10 10" refX="8" refY="5" markerWidth="8" markerHeight="8" orient="auto-start-reverse"><path d="M 0 0 L 10 5 L 0 10 Q 2 5 0 0" fill="#EE8B4F"/></marker><marker id="arrowInk" viewBox="0 0 10 10" refX="8" refY="5" markerWidth="7" markerHeight="7" orient="auto-start-reverse"><path d="M 0 0 L 10 5 L 0 10 Q 2 5 0 0" fill="#1F1A17"/></marker><linearGradient id="qualityGradient" x1="0%" x2="100%" y1="0%" y2="0%"><stop offset="0%" stop-color="#FAF4EA"/><stop offset="35%" stop-color="#F6B088"/><stop offset="100%" stop-color="#EE8B4F"/></linearGradient></defs><rect width="100%" height="100%" fill="#FAF4EA"/><rect width="100%" height="100%" fill="#FAF4EA" filter="url(#paperGrain)" opacity="0.34"/><g><text x="160" y="76" fill="#1F1A17" font-family="IBM Plex Mono, Menlo, monospace" font-size="24" font-weight="600" text-anchor="start">A</text><text x="188" y="76" fill="#1F1A17" font-family="IBM Plex Mono, Menlo, monospace" font-size="24" font-weight="600" text-anchor="start">C</text><text x="216" y="76" fill="#1F1A17" font-family="IBM Plex Mono, Menlo, monospace" font-size="24" font-weight="600" text-anchor="start">G</text><text x="244" y="76" fill="#1F1A17" font-family="IBM Plex Mono, Menlo, monospace" font-size="24" font-weight="600" text-anchor="start">T</text><text x="272" y="76" fill="#1F1A17" font-family="IBM Plex Mono, Menlo, monospace" font-size="24" font-weight="600" text-anchor="start">T</text><text x="300" y="76" fill="#1F1A17" font-family="IBM Plex Mono, Menlo, monospace" font-size="24" font-weight="600" text-anchor="start">G</text><text x="328" y="76" fill="#1F1A17" font-family="IBM Plex Mono, Menlo, monospace" font-size="24" font-weight="600" text-anchor="start">A</text><text x="356" y="76" fill="#1F1A17" font-family="IBM Plex Mono, Menlo, monospace" font-size="24" font-weight="600" text-anchor="start">C</text><text x="384" y="76" fill="#1F1A17" font-family="IBM Plex Mono, Menlo, monospace" font-size="24" font-weight="600" text-anchor="start">C</text><text x="412" y="76" fill="#1F1A17" font-family="IBM Plex Mono, Menlo, monospace" font-size="24" font-weight="600" text-anchor="start">T</text><text x="440" y="76" fill="#1F1A17" font-family="IBM Plex Mono, Menlo, monospace" font-size="24" font-weight="600" text-anchor="start">G</text><text x="468" y="76" fill="#1F1A17" font-family="IBM Plex Mono, Menlo, monospace" font-size="24" font-weight="600" text-anchor="start">A</text><text x="496" y="76" fill="#1F1A17" font-family="IBM Plex Mono, Menlo, monospace" font-size="24" font-weight="600" text-anchor="start">A</text><text x="524" y="76" fill="#1F1A17" font-family="IBM Plex Mono, Menlo, monospace" font-size="24" font-weight="600" text-anchor="start">C</text><text x="552" y="76" fill="#1F1A17" font-family="IBM Plex Mono, Menlo, monospace" font-size="24" font-weight="600" text-anchor="start">T</text><text x="580" y="76" fill="#1F1A17" font-family="IBM Plex Mono, Menlo, monospace" font-size="24" font-weight="600" text-anchor="start">T</text><text x="608" y="76" fill="#1F1A17" font-family="IBM Plex Mono, Menlo, monospace" font-size="24" font-weight="600" text-anchor="start">A</text><text x="636" y="76" fill="#1F1A17" font-family="IBM Plex Mono, Menlo, monospace" font-size="24" font-weight="600" text-anchor="start">C</text><text x="664" y="76" fill="#1F1A17" font-family="IBM Plex Mono, Menlo, monospace" font-size="24" font-weight="600" text-anchor="start">G</text><text x="692" y="76" fill="#1F1A17" font-family="IBM Plex Mono, Menlo, monospace" font-size="24" font-weight="600" text-anchor="start">G</text><text x="720" y="76" fill="#1F1A17" font-family="IBM Plex Mono, Menlo, monospace" font-size="24" font-weight="600" text-anchor="start">A</text><text x="748" y="76" fill="#1F1A17" font-family="IBM Plex Mono, Menlo, monospace" font-size="24" font-weight="600" text-anchor="start">A</text><text x="776" y="76" fill="#1F1A17" font-family="IBM Plex Mono, Menlo, monospace" font-size="24" font-weight="600" text-anchor="start">C</text><text x="804" y="76" fill="#1F1A17" font-family="IBM Plex Mono, Menlo, monospace" font-size="24" font-weight="600" text-anchor="start">C</text><text x="832" y="76" fill="#1F1A17" font-family="IBM Plex Mono, Menlo, monospace" font-size="24" font-weight="600" text-anchor="start">T</text><text x="860" y="76" fill="#1F1A17" font-family="IBM Plex Mono, Menlo, monospace" font-size="24" font-weight="600" text-anchor="start">G</text><text x="888" y="76" fill="#1F1A17" font-family="IBM Plex Mono, Menlo, monospace" font-size="24" font-weight="600" text-anchor="start">A</text><text x="916" y="76" fill="#1F1A17" font-family="IBM Plex Mono, Menlo, monospace" font-size="24" font-weight="600" text-anchor="start">C</text><text x="944" y="76" fill="#1F1A17" font-family="IBM Plex Mono, Menlo, monospace" font-size="24" font-weight="600" text-anchor="start">T</text><text x="972" y="76" fill="#1F1A17" font-family="IBM Plex Mono, Menlo, monospace" font-size="24" font-weight="600" text-anchor="start">A</text><g><path d="M 163 137 Q 600 131 1036 139 Q 1044 157 1037 176 Q 600 183 162 175 Q 156 157 163 137 Z" fill="url(#qualityGradient)" stroke="#1F1A17" stroke-width="1.2" stroke-linecap="butt" stroke-linejoin="round" opacity="1"/></g><line x1="160" y1="130" x2="160" y2="188" stroke="#1F1A17" stroke-width="2" stroke-linecap="butt" opacity="1"/><text x="160" y="218" fill="#8A847A" font-family="IBM Plex Mono, Menlo, monospace" font-size="20" font-weight="600" text-anchor="middle">0</text><line x1="380" y1="130" x2="380" y2="188" stroke="#1F1A17" stroke-width="2" stroke-linecap="butt" opacity="1"/><text x="380" y="218" fill="#8A847A" font-family="IBM Plex Mono, Menlo, monospace" font-size="20" font-weight="600" text-anchor="middle">10</text><line x1="600" y1="130" x2="600" y2="188" stroke="#1F1A17" stroke-width="2" stroke-linecap="butt" opacity="1"/><text x="600" y="218" fill="#8A847A" font-family="IBM Plex Mono, Menlo, monospace" font-size="20" font-weight="600" text-anchor="middle">20</text><line x1="820" y1="130" x2="820" y2="188" stroke="#1F1A17" stroke-width="2" stroke-linecap="butt" opacity="1"/><text x="820" y="218" fill="#8A847A" font-family="IBM Plex Mono, Menlo, monospace" font-size="20" font-weight="600" text-anchor="middle">30</text><line x1="1040" y1="130" x2="1040" y2="188" stroke="#1F1A17" stroke-width="2" stroke-linecap="butt" opacity="1"/><text x="1040" y="218" fill="#8A847A" font-family="IBM Plex Mono, Menlo, monospace" font-size="20" font-weight="600" text-anchor="middle">40</text><g><path d="M 161 267 Q 169.5 261 177 269 Q 185 295 178 322 Q 169.5 329 160 321 Q 154 295 161 267 Z" fill="#EE8B4F" stroke="#1F1A17" stroke-width="0.45" stroke-linecap="butt" stroke-linejoin="round" opacity="0.98"/></g><g><path d="M 189 267 Q 197.5 261 205 269 Q 213 295.5 206 323 Q 197.5 330 188 322 Q 182 295.5 189 267 Z" fill="#EE8B4F" stroke="#1F1A17" stroke-width="0.45" stroke-linecap="butt" stroke-linejoin="round" opacity="0.98"/></g><g><path d="M 217 267 Q 225.5 261 233 269 Q 241 296 234 324 Q 225.5 331 216 323 Q 210 296 217 267 Z" fill="#EE8B4F" stroke="#1F1A17" stroke-width="0.45" stroke-linecap="butt" stroke-linejoin="round" opacity="0.98"/></g><g><path d="M 245 267 Q 253.5 261 261 269 Q 269 295 262 322 Q 253.5 329 244 321 Q 238 295 245 267 Z" fill="#EE8B4F" stroke="#1F1A17" stroke-width="0.45" stroke-linecap="butt" stroke-linejoin="round" opacity="0.98"/></g><g><path d="M 273 267 Q 281.5 261 289 269 Q 297 295.5 290 323 Q 281.5 330 272 322 Q 266 295.5 273 267 Z" fill="#EE8B4F" stroke="#1F1A17" stroke-width="0.45" stroke-linecap="butt" stroke-linejoin="round" opacity="0.98"/></g><g><path d="M 301 267 Q 309.5 261 317 269 Q 325 296 318 324 Q 309.5 331 300 323 Q 294 296 301 267 Z" fill="#EE8B4F" stroke="#1F1A17" stroke-width="0.45" stroke-linecap="butt" stroke-linejoin="round" opacity="0.98"/></g><g><path d="M 329 267 Q 337.5 261 345 269 Q 353 295 346 322 Q 337.5 329 328 321 Q 322 295 329 267 Z" fill="#EE8B4F" stroke="#1F1A17" stroke-width="0.45" stroke-linecap="butt" stroke-linejoin="round" opacity="0.98"/></g><g><path d="M 357 267 Q 365.5 261 373 269 Q 381 295.5 374 323 Q 365.5 330 356 322 Q 350 295.5 357 267 Z" fill="#EE8B4F" stroke="#1F1A17" stroke-width="0.45" stroke-linecap="butt" stroke-linejoin="round" opacity="0.98"/></g><g><path d="M 385 267 Q 393.5 261 401 269 Q 409 296 402 324 Q 393.5 331 384 323 Q 378 296 385 267 Z" fill="#EE8B4F" stroke="#1F1A17" stroke-width="0.45" stroke-linecap="butt" stroke-linejoin="round" opacity="0.98"/></g><g><path d="M 413 267 Q 421.5 261 429 269 Q 437 295 430 322 Q 421.5 329 412 321 Q 406 295 413 267 Z" fill="#EE8B4F" stroke="#1F1A17" stroke-width="0.45" stroke-linecap="butt" stroke-linejoin="round" opacity="0.98"/></g><g><path d="M 441 267 Q 449.5 261 457 269 Q 465 295.5 458 323 Q 449.5 330 440 322 Q 434 295.5 441 267 Z" fill="#EE8B4F" stroke="#1F1A17" stroke-width="0.45" stroke-linecap="butt" stroke-linejoin="round" opacity="0.98"/></g><g><path d="M 469 267 Q 477.5 261 485 269 Q 493 296 486 324 Q 477.5 331 468 323 Q 462 296 469 267 Z" fill="#EE8B4F" stroke="#1F1A17" stroke-width="0.45" stroke-linecap="butt" stroke-linejoin="round" opacity="0.98"/></g><g><path d="M 497 267 Q 505.5 261 513 269 Q 521 295 514 322 Q 505.5 329 496 321 Q 490 295 497 267 Z" fill="#EE8B4F" stroke="#1F1A17" stroke-width="0.45" stroke-linecap="butt" stroke-linejoin="round" opacity="0.98"/></g><g><path d="M 525 267 Q 533.5 261 541 269 Q 549 295.5 542 323 Q 533.5 330 524 322 Q 518 295.5 525 267 Z" fill="#EE8B4F" stroke="#1F1A17" stroke-width="0.45" stroke-linecap="butt" stroke-linejoin="round" opacity="0.98"/></g><g><path d="M 553 267 Q 561.5 261 569 269 Q 577 296 570 324 Q 561.5 331 552 323 Q 546 296 553 267 Z" fill="#EE8B4F" stroke="#1F1A17" stroke-width="0.45" stroke-linecap="butt" stroke-linejoin="round" opacity="0.98"/></g><g><path d="M 581 267 Q 589.5 261 597 269 Q 605 295 598 322 Q 589.5 329 580 321 Q 574 295 581 267 Z" fill="#EE8B4F" stroke="#1F1A17" stroke-width="0.45" stroke-linecap="butt" stroke-linejoin="round" opacity="0.98"/></g><g><path d="M 609 267 Q 617.5 261 625 269 Q 633 295.5 626 323 Q 617.5 330 608 322 Q 602 295.5 609 267 Z" fill="#EE8B4F" stroke="#1F1A17" stroke-width="0.45" stroke-linecap="butt" stroke-linejoin="round" opacity="0.98"/></g><g><path d="M 637 267 Q 645.5 261 653 269 Q 661 296 654 324 Q 645.5 331 636 323 Q 630 296 637 267 Z" fill="#EE8B4F" stroke="#1F1A17" stroke-width="0.45" stroke-linecap="butt" stroke-linejoin="round" opacity="0.98"/></g><g><path d="M 665 267 Q 673.5 261 681 269 Q 689 295 682 322 Q 673.5 329 664 321 Q 658 295 665 267 Z" fill="#F6B088" stroke="#1F1A17" stroke-width="0.45" stroke-linecap="butt" stroke-linejoin="round" opacity="0.98"/></g><g><path d="M 693 267 Q 701.5 261 709 269 Q 717 295.5 710 323 Q 701.5 330 692 322 Q 686 295.5 693 267 Z" fill="#F6B088" stroke="#1F1A17" stroke-width="0.45" stroke-linecap="butt" stroke-linejoin="round" opacity="0.98"/></g><g><path d="M 721 267 Q 729.5 261 737 269 Q 745 296 738 324 Q 729.5 331 720 323 Q 714 296 721 267 Z" fill="#F6B088" stroke="#1F1A17" stroke-width="0.45" stroke-linecap="butt" stroke-linejoin="round" opacity="0.98"/></g><g><path d="M 749 267 Q 757.5 261 765 269 Q 773 295 766 322 Q 757.5 329 748 321 Q 742 295 749 267 Z" fill="#F6B088" stroke="#1F1A17" stroke-width="0.45" stroke-linecap="butt" stroke-linejoin="round" opacity="0.98"/></g><g><path d="M 777 267 Q 785.5 261 793 269 Q 801 295.5 794 323 Q 785.5 330 776 322 Q 770 295.5 777 267 Z" fill="#F6B088" stroke="#1F1A17" stroke-width="0.45" stroke-linecap="butt" stroke-linejoin="round" opacity="0.98"/></g><g><path d="M 805 267 Q 813.5 261 821 269 Q 829 296 822 324 Q 813.5 331 804 323 Q 798 296 805 267 Z" fill="#FAF4EA" stroke="#1F1A17" stroke-width="0.45" stroke-linecap="butt" stroke-linejoin="round" opacity="0.98"/></g><g><path d="M 833 267 Q 841.5 261 849 269 Q 857 295 850 322 Q 841.5 329 832 321 Q 826 295 833 267 Z" fill="#FAF4EA" stroke="#1F1A17" stroke-width="0.45" stroke-linecap="butt" stroke-linejoin="round" opacity="0.98"/></g><g><path d="M 861 267 Q 869.5 261 877 269 Q 885 295.5 878 323 Q 869.5 330 860 322 Q 854 295.5 861 267 Z" fill="#F6B088" stroke="#1F1A17" stroke-width="0.45" stroke-linecap="butt" stroke-linejoin="round" opacity="0.98"/></g><g><path d="M 889 267 Q 897.5 261 905 269 Q 913 296 906 324 Q 897.5 331 888 323 Q 882 296 889 267 Z" fill="#F6B088" stroke="#1F1A17" stroke-width="0.45" stroke-linecap="butt" stroke-linejoin="round" opacity="0.98"/></g><g><path d="M 917 267 Q 925.5 261 933 269 Q 941 295 934 322 Q 925.5 329 916 321 Q 910 295 917 267 Z" fill="#FAF4EA" stroke="#1F1A17" stroke-width="0.45" stroke-linecap="butt" stroke-linejoin="round" opacity="0.98"/></g><g><path d="M 945 267 Q 953.5 261 961 269 Q 969 295.5 962 323 Q 953.5 330 944 322 Q 938 295.5 945 267 Z" fill="#FAF4EA" stroke="#1F1A17" stroke-width="0.45" stroke-linecap="butt" stroke-linejoin="round" opacity="0.98"/></g><g><path d="M 973 267 Q 981.5 261 989 269 Q 997 296 990 324 Q 981.5 331 972 323 Q 966 296 973 267 Z" fill="#FAF4EA" stroke="#1F1A17" stroke-width="0.45" stroke-linecap="butt" stroke-linejoin="round" opacity="0.98"/></g><text x="1130" y="157.7" fill="#1F1A17" font-family="Inter, Helvetica, sans-serif" font-size="26" font-weight="600" text-anchor="start" transform="rotate(-0.2 1130 157.7)">Q20 = 1% error</text><text x="1130" y="217.1" fill="#1F1A17" font-family="Inter, Helvetica, sans-serif" font-size="26" font-weight="600" text-anchor="start" transform="rotate(-0.8 1130 217.1)">Q30 = 0.1% error</text><path d="M 1095 159 L 600 159" fill="none" stroke="#EE8B4F" stroke-width="3" stroke-linecap="round" stroke-linejoin="round" opacity="1"/><path d="M 1095 218 L 820 218" fill="none" stroke="#EE8B4F" stroke-width="3" stroke-linecap="round" stroke-linejoin="round" opacity="1"/></g></svg>
