<svg xmlns="http://www.w3.org/2000/svg" width="1400" height="500" viewBox="0 0 1400 500" role="img" aria-labelledby="title-platform-read-length-comparison"><title id="title-platform-read-length-comparison">platform-read-length-comparison</title><defs><filter id="paperGrain" x="0" y="0" width="100%" height="100%"><feTurbulence type="fractalNoise" baseFrequency="0.9" numOctaves="2" seed="19" result="noise"/><feColorMatrix type="saturate" values="0"/><feBlend in="SourceGraphic" in2="noise" mode="multiply"/></filter><marker id="arrowCream" viewBox="0 0 10 10" refX="8" refY="5" markerWidth="8" markerHeight="8" orient="auto-start-reverse"><path d="M 0 0 L 10 5 L 0 10 Q 2 5 0 0" fill="#EE8B4F"/></marker><marker id="arrowInk" viewBox="0 0 10 10" refX="8" refY="5" markerWidth="7" markerHeight="7" orient="auto-start-reverse"><path d="M 0 0 L 10 5 L 0 10 Q 2 5 0 0" fill="#1F1A17"/></marker><linearGradient id="qualityGradient" x1="0%" x2="100%" y1="0%" y2="0%"><stop offset="0%" stop-color="#FAF4EA"/><stop offset="35%" stop-color="#F6B088"/><stop offset="100%" stop-color="#EE8B4F"/></linearGradient></defs><rect width="100%" height="100%" fill="#FAF4EA"/><rect width="100%" height="100%" fill="#FAF4EA" filter="url(#paperGrain)" opacity="0.34"/><g><g><path d="M 200 100 L 252 100 Q 260 120 252 142 L 200 142 Q 194 120 200 100 Z" fill="#EE8B4F" stroke="#1F1A17" stroke-width="1.5" stroke-linecap="butt" stroke-linejoin="round" opacity="1"/><g><path d="M 206.5 117.1 L 213.6 118.5 L 220.8 116.7 L 227.9 115.8 L 235.1 117.8 L 242.2 118.2" fill="none" stroke="#EE8B4F" stroke-width="1.15" stroke-linecap="round" stroke-linejoin="round" opacity="0.14400000000000002"/><path d="M 206.6 125.2 L 213.7 126.6 L 220.9 124.8 L 228 123.9 L 235.2 125.9 L 242.3 126.3" fill="none" stroke="#EE8B4F" stroke-width="1.15" stroke-linecap="round" stroke-linejoin="round" opacity="0.14400000000000002"/></g><text x="286" y="129" fill="#1F1A17" font-family="IBM Plex Mono, Menlo, monospace" font-size="22" font-weight="600" text-anchor="start">Illumina, ~150 bp</text></g><g><path d="M 200 205 L 835 205 Q 843 225 835 247 L 200 247 Q 194 225 200 205 Z" fill="#EE8B4F" stroke="#1F1A17" stroke-width="1.5" stroke-linecap="butt" stroke-linejoin="round" opacity="1"/><g><path d="M 206.5 216 L 330.2 217.4 L 454 215.6 L 577.7 214.7 L 701.5 216.7 L 825.2 217.1" fill="none" stroke="#EE8B4F" stroke-width="1.15" stroke-linecap="round" stroke-linejoin="round" opacity="0.14400000000000002"/><path d="M 206.6 235.8 L 330.4 237.2 L 454.1 235.4 L 577.9 234.5 L 701.6 236.5 L 825.4 236.9" fill="none" stroke="#EE8B4F" stroke-width="1.15" stroke-linecap="round" stroke-linejoin="round" opacity="0.14400000000000002"/></g><text x="869" y="234" fill="#1F1A17" font-family="IBM Plex Mono, Menlo, monospace" font-size="22" font-weight="600" text-anchor="start">PacBio HiFi, ~15 kb</text></g><g><path d="M 485 310 L 1067 310 l 22 8 l -10 8 l 18 9 l -22 9 l 12 8 L 485 352 Z" fill="#EE8B4F" stroke="#1F1A17" stroke-width="1.5" stroke-linecap="butt" stroke-linejoin="round" opacity="1"/><g><path d="M 495.9 326.1 L 611.8 327.5 L 727.7 325.7 L 843.5 324.8 L 959.4 326.8 L 1075.3 327.2" fill="none" stroke="#EE8B4F" stroke-width="1.15" stroke-linecap="round" stroke-linejoin="round" opacity="0.14400000000000002"/><path d="M 496 336.4 L 611.9 337.8 L 727.8 336 L 843.6 335.1 L 959.5 337.1 L 1075.4 337.5" fill="none" stroke="#EE8B4F" stroke-width="1.15" stroke-linecap="round" stroke-linejoin="round" opacity="0.14400000000000002"/></g><text x="1103" y="339" fill="#1F1A17" font-family="IBM Plex Mono, Menlo, monospace" font-size="18" font-weight="600" text-anchor="start">Oxford Nanopore, 1-100 kb</text></g><g><line x1="185" y1="405" x2="1115" y2="405" stroke="#8A847A" stroke-width="3" stroke-linecap="round" opacity="1"/><path d="M 185 406.5 L 317.9 407.8 L 450.7 406.2 L 583.6 405.3 L 716.4 407.1 L 849.3 407.5 L 982.1 405.6 L 1115 405.7" fill="none" stroke="#8A847A" stroke-width="1" stroke-linecap="round" stroke-linejoin="round" opacity="0.32"/></g><line x1="200" y1="387" x2="200" y2="423" stroke="#8A847A" stroke-width="3" stroke-linecap="butt" opacity="1"/><text x="200" y="460" fill="#8A847A" font-family="IBM Plex Mono, Menlo, monospace" font-size="22" font-weight="600" text-anchor="middle">100 bp</text><line x1="485" y1="387" x2="485" y2="426" stroke="#8A847A" stroke-width="3" stroke-linecap="butt" opacity="1"/><text x="485" y="460" fill="#8A847A" font-family="IBM Plex Mono, Menlo, monospace" font-size="22" font-weight="600" text-anchor="middle">1 kb</text><line x1="780" y1="387" x2="780" y2="423" stroke="#8A847A" stroke-width="3" stroke-linecap="butt" opacity="1"/><text x="780" y="460" fill="#8A847A" font-family="IBM Plex Mono, Menlo, monospace" font-size="22" font-weight="600" text-anchor="middle">10 kb</text><line x1="1085" y1="387" x2="1085" y2="426" stroke="#8A847A" stroke-width="3" stroke-linecap="butt" opacity="1"/><text x="1085" y="460" fill="#8A847A" font-family="IBM Plex Mono, Menlo, monospace" font-size="22" font-weight="600" text-anchor="middle">100 kb</text></g></svg>
