<svg xmlns="http://www.w3.org/2000/svg" width="1400" height="500" viewBox="0 0 1400 500" role="img" aria-labelledby="title-ncbi-accession-anatomy"><title id="title-ncbi-accession-anatomy">ncbi-accession-anatomy</title><defs><filter id="paperGrain" x="0" y="0" width="100%" height="100%"><feTurbulence type="fractalNoise" baseFrequency="0.9" numOctaves="2" seed="19" result="noise"/><feColorMatrix type="saturate" values="0"/><feBlend in="SourceGraphic" in2="noise" mode="multiply"/></filter><marker id="arrowCream" viewBox="0 0 10 10" refX="8" refY="5" markerWidth="8" markerHeight="8" orient="auto-start-reverse"><path d="M 0 0 L 10 5 L 0 10 Q 2 5 0 0" fill="#EE8B4F"/></marker><marker id="arrowInk" viewBox="0 0 10 10" refX="8" refY="5" markerWidth="7" markerHeight="7" orient="auto-start-reverse"><path d="M 0 0 L 10 5 L 0 10 Q 2 5 0 0" fill="#1F1A17"/></marker><linearGradient id="qualityGradient" x1="0%" x2="100%" y1="0%" y2="0%"><stop offset="0%" stop-color="#FAF4EA"/><stop offset="35%" stop-color="#F6B088"/><stop offset="100%" stop-color="#EE8B4F"/></linearGradient></defs><rect width="100%" height="100%" fill="#FAF4EA"/><rect width="100%" height="100%" fill="#FAF4EA" filter="url(#paperGrain)" opacity="0.34"/><g><text x="510" y="160" fill="#1F1A17" font-family="IBM Plex Mono, Menlo, monospace" font-size="66" font-weight="600" text-anchor="middle">MN908947.3</text><g><circle cx="385" cy="108" r="7" fill="#FAF4EA" stroke="#EE8B4F" stroke-width="3" opacity="1"/><path d="M 385 108 Q 332.5 100 320 92" fill="none" stroke="#EE8B4F" stroke-width="3" stroke-linecap="round" stroke-linejoin="round" opacity="1"/><text x="320" y="80" fill="#1F1A17" font-family="Inter, Helvetica, sans-serif" font-size="24" font-weight="700" text-anchor="end">accession namespace</text></g><g><circle cx="520" cy="108" r="7" fill="#FAF4EA" stroke="#EE8B4F" stroke-width="3" opacity="1"/><path d="M 520 108 Q 565 95 650 82" fill="none" stroke="#EE8B4F" stroke-width="3" stroke-linecap="round" stroke-linejoin="round" opacity="1"/><text x="650" y="69.3" fill="#1F1A17" font-family="Inter, Helvetica, sans-serif" font-size="24" font-weight="700" text-anchor="start" transform="rotate(-0.7 650 69.3)">accession number</text></g><g><circle cx="714" cy="108" r="7" fill="#FAF4EA" stroke="#EE8B4F" stroke-width="3" opacity="1"/><path d="M 714 108 Q 817 100 960 92" fill="none" stroke="#EE8B4F" stroke-width="3" stroke-linecap="round" stroke-linejoin="round" opacity="1"/><text x="960" y="80.9" fill="#1F1A17" font-family="Inter, Helvetica, sans-serif" font-size="24" font-weight="700" text-anchor="start" transform="rotate(0.8 960 80.9)">version</text></g><g><path d="M 195 250 L 365 250 L 400 284 L 400 382 Q 300 394 195 382 Z" fill="#FAF4EA" stroke="#EE8B4F" stroke-width="4" stroke-linecap="butt" stroke-linejoin="round" opacity="1"/><path d="M 365 250 L 365 286 L 400 284" fill="none" stroke="#EE8B4F" stroke-width="3" stroke-linecap="butt" stroke-linejoin="round" opacity="1"/><text x="297" y="314" fill="#1F1A17" font-family="IBM Plex Mono, Menlo, monospace" font-size="19" font-weight="600" text-anchor="middle">INSDC / GenBank</text><text x="297" y="417.8" fill="#8A847A" font-family="Inter, Helvetica, sans-serif" font-size="19" font-weight="600" text-anchor="middle" transform="rotate(0.8 297 417.8)">nucleotide record</text></g><g><path d="M 560 250 L 730 250 L 765 284 L 765 382 Q 665 394 560 382 Z" fill="#FAF4EA" stroke="#EE8B4F" stroke-width="4" stroke-linecap="butt" stroke-linejoin="round" opacity="1"/><path d="M 730 250 L 730 286 L 765 284" fill="none" stroke="#EE8B4F" stroke-width="3" stroke-linecap="butt" stroke-linejoin="round" opacity="1"/><text x="662" y="314" fill="#1F1A17" font-family="IBM Plex Mono, Menlo, monospace" font-size="19" font-weight="600" text-anchor="middle">record</text><text x="662" y="416.8" fill="#8A847A" font-family="Inter, Helvetica, sans-serif" font-size="19" font-weight="600" text-anchor="middle" transform="rotate(-0.2 662 416.8)">selected by number</text></g><g><path d="M 920 250 L 1090 250 L 1125 284 L 1125 382 Q 1025 394 920 382 Z" fill="#FAF4EA" stroke="#EE8B4F" stroke-width="4" stroke-linecap="butt" stroke-linejoin="round" opacity="1"/><path d="M 1090 250 L 1090 286 L 1125 284" fill="none" stroke="#EE8B4F" stroke-width="3" stroke-linecap="butt" stroke-linejoin="round" opacity="1"/><text x="1022" y="314" fill="#1F1A17" font-family="IBM Plex Mono, Menlo, monospace" font-size="19" font-weight="600" text-anchor="middle">snapshot</text><text x="1022" y="416.3" fill="#8A847A" font-family="Inter, Helvetica, sans-serif" font-size="19" font-weight="600" text-anchor="middle" transform="rotate(-0.7 1022 416.3)">selected by version</text></g><text x="700" y="454.7" fill="#8A847A" font-family="Inter, Helvetica, sans-serif" font-size="23" font-weight="600" text-anchor="middle" transform="rotate(-0.3 700 454.7)">accession pattern helps choose fetch path. version tells you which snapshot.</text><text x="900" y="191.5" fill="#8A847A" font-family="Inter, Helvetica, sans-serif" font-size="19" font-weight="600" text-anchor="start" transform="rotate(-0.4 900 191.5)">RefSeq accessions start with NC_, NM_, etc.</text></g></svg>
