<svg xmlns="http://www.w3.org/2000/svg" width="1400" height="700" viewBox="0 0 1400 700" role="img" aria-labelledby="title-tree-anatomy"><title id="title-tree-anatomy">tree-anatomy</title><defs><filter id="paperGrain" x="0" y="0" width="100%" height="100%"><feTurbulence type="fractalNoise" baseFrequency="0.9" numOctaves="2" seed="19" result="noise"/><feColorMatrix type="saturate" values="0"/><feBlend in="SourceGraphic" in2="noise" mode="multiply"/></filter><marker id="arrowCream" viewBox="0 0 10 10" refX="8" refY="5" markerWidth="8" markerHeight="8" orient="auto-start-reverse"><path d="M 0 0 L 10 5 L 0 10 Q 2 5 0 0" fill="#EE8B4F"/></marker><marker id="arrowInk" viewBox="0 0 10 10" refX="8" refY="5" markerWidth="7" markerHeight="7" orient="auto-start-reverse"><path d="M 0 0 L 10 5 L 0 10 Q 2 5 0 0" fill="#1F1A17"/></marker><linearGradient id="qualityGradient" x1="0%" x2="100%" y1="0%" y2="0%"><stop offset="0%" stop-color="#FAF4EA"/><stop offset="35%" stop-color="#F6B088"/><stop offset="100%" stop-color="#EE8B4F"/></linearGradient></defs><rect width="100%" height="100%" fill="#FAF4EA"/><rect width="100%" height="100%" fill="#FAF4EA" filter="url(#paperGrain)" opacity="0.34"/><g><g><line x1="180" y1="350" x2="330" y2="350" stroke="#1F1A17" stroke-width="5" stroke-linecap="round" opacity="1"/><path d="M 180 351.5 L 217.5 352.8 L 255 351.2 L 292.5 350.3 L 330 352.1" fill="none" stroke="#1F1A17" stroke-width="1.1" stroke-linecap="round" stroke-linejoin="round" opacity="0.32"/></g><g><line x1="330" y1="190" x2="330" y2="510" stroke="#1F1A17" stroke-width="5" stroke-linecap="round" opacity="1"/><path d="M 330 191.5 L 330 192.8 L 330 191.2 L 330 190.3 L 330 192.1" fill="none" stroke="#1F1A17" stroke-width="1.1" stroke-linecap="round" stroke-linejoin="round" opacity="0.32"/></g><g><line x1="330" y1="190" x2="550" y2="190" stroke="#1F1A17" stroke-width="5" stroke-linecap="round" opacity="1"/><path d="M 330 191.5 L 385 192.8 L 440 191.2 L 495 190.3 L 550 192.1" fill="none" stroke="#1F1A17" stroke-width="1.1" stroke-linecap="round" stroke-linejoin="round" opacity="0.32"/></g><g><line x1="330" y1="510" x2="560" y2="510" stroke="#1F1A17" stroke-width="5" stroke-linecap="round" opacity="1"/><path d="M 330 511.5 L 387.5 512.8 L 445 511.2 L 502.5 510.3 L 560 512.1" fill="none" stroke="#1F1A17" stroke-width="1.1" stroke-linecap="round" stroke-linejoin="round" opacity="0.32"/></g><g><line x1="550" y1="130" x2="550" y2="250" stroke="#1F1A17" stroke-width="5" stroke-linecap="round" opacity="1"/><path d="M 550 131.5 L 550 132.8 L 550 131.2 L 550 130.3 L 550 132.1" fill="none" stroke="#1F1A17" stroke-width="1.1" stroke-linecap="round" stroke-linejoin="round" opacity="0.32"/></g><g><line x1="550" y1="130" x2="1050" y2="130" stroke="#1F1A17" stroke-width="5" stroke-linecap="round" opacity="1"/><path d="M 550 131.5 L 675 132.8 L 800 131.2 L 925 130.3 L 1050 132.1" fill="none" stroke="#1F1A17" stroke-width="1.1" stroke-linecap="round" stroke-linejoin="round" opacity="0.32"/></g><g><line x1="550" y1="250" x2="870" y2="250" stroke="#1F1A17" stroke-width="5" stroke-linecap="round" opacity="1"/><path d="M 550 251.5 L 630 252.8 L 710 251.2 L 790 250.3 L 870 252.1" fill="none" stroke="#1F1A17" stroke-width="1.1" stroke-linecap="round" stroke-linejoin="round" opacity="0.32"/></g><g><line x1="560" y1="440" x2="560" y2="580" stroke="#1F1A17" stroke-width="5" stroke-linecap="round" opacity="1"/><path d="M 560 441.5 L 560 442.8 L 560 441.2 L 560 440.3 L 560 442.1" fill="none" stroke="#1F1A17" stroke-width="1.1" stroke-linecap="round" stroke-linejoin="round" opacity="0.32"/></g><g><line x1="560" y1="440" x2="980" y2="440" stroke="#1F1A17" stroke-width="5" stroke-linecap="round" opacity="1"/><path d="M 560 441.5 L 665 442.8 L 770 441.2 L 875 440.3 L 980 442.1" fill="none" stroke="#1F1A17" stroke-width="1.1" stroke-linecap="round" stroke-linejoin="round" opacity="0.32"/></g><g><line x1="560" y1="580" x2="1030" y2="580" stroke="#1F1A17" stroke-width="5" stroke-linecap="round" opacity="1"/><path d="M 560 581.5 L 677.5 582.8 L 795 581.2 L 912.5 580.3 L 1030 582.1" fill="none" stroke="#1F1A17" stroke-width="1.1" stroke-linecap="round" stroke-linejoin="round" opacity="0.32"/></g><g><line x1="870" y1="215" x2="870" y2="285" stroke="#1F1A17" stroke-width="5" stroke-linecap="round" opacity="1"/><path d="M 870 216.5 L 870 217.8 L 870 216.2 L 870 215.3 L 870 217.1" fill="none" stroke="#1F1A17" stroke-width="1.1" stroke-linecap="round" stroke-linejoin="round" opacity="0.32"/></g><g><line x1="870" y1="215" x2="1110" y2="215" stroke="#1F1A17" stroke-width="5" stroke-linecap="round" opacity="1"/><path d="M 870 216.5 L 930 217.8 L 990 216.2 L 1050 215.3 L 1110 217.1" fill="none" stroke="#1F1A17" stroke-width="1.1" stroke-linecap="round" stroke-linejoin="round" opacity="0.32"/></g><g><line x1="870" y1="285" x2="1030" y2="285" stroke="#1F1A17" stroke-width="5" stroke-linecap="round" opacity="1"/><path d="M 870 286.5 L 910 287.8 L 950 286.2 L 990 285.3 L 1030 287.1" fill="none" stroke="#1F1A17" stroke-width="1.1" stroke-linecap="round" stroke-linejoin="round" opacity="0.32"/></g><text x="1065" y="137" fill="#8A847A" font-family="IBM Plex Mono, Menlo, monospace" font-size="22" font-weight="600" text-anchor="start">sample-A</text><text x="1125" y="222" fill="#8A847A" font-family="IBM Plex Mono, Menlo, monospace" font-size="22" font-weight="600" text-anchor="start">sample-B</text><text x="1045" y="292" fill="#8A847A" font-family="IBM Plex Mono, Menlo, monospace" font-size="22" font-weight="600" text-anchor="start">sample-C</text><text x="995" y="447" fill="#8A847A" font-family="IBM Plex Mono, Menlo, monospace" font-size="22" font-weight="600" text-anchor="start">sample-D</text><text x="1045" y="587" fill="#8A847A" font-family="IBM Plex Mono, Menlo, monospace" font-size="22" font-weight="600" text-anchor="start">sample-E</text><g><path d="M 575 175 Q 625 159 677 175 Q 687 206 677 217 Q 625 231 575 217 Q 563 187 575 175 Z" fill="#EE8B4F" stroke="#EE8B4F" stroke-width="1" stroke-linecap="butt" stroke-linejoin="round" opacity="1"/><text x="626" y="204" fill="#1F1A17" font-family="IBM Plex Mono, Menlo, monospace" font-size="20" font-weight="600" text-anchor="middle">0.95</text></g><g><path d="M 895 200 Q 945 184 997 200 Q 1007 231 997 242 Q 945 256 895 242 Q 883 212 895 200 Z" fill="#EE8B4F" stroke="#EE8B4F" stroke-width="1" stroke-linecap="butt" stroke-linejoin="round" opacity="1"/><text x="946" y="229" fill="#1F1A17" font-family="IBM Plex Mono, Menlo, monospace" font-size="20" font-weight="600" text-anchor="middle">0.78</text></g><g><path d="M 585 425 Q 635 409 687 425 Q 697 456 687 467 Q 635 481 585 467 Q 573 437 585 425 Z" fill="#EE8B4F" stroke="#EE8B4F" stroke-width="1" stroke-linecap="butt" stroke-linejoin="round" opacity="1"/><text x="636" y="454" fill="#1F1A17" font-family="IBM Plex Mono, Menlo, monospace" font-size="20" font-weight="600" text-anchor="middle">1.00</text></g><g><circle cx="1055" cy="130" r="7" fill="#FAF4EA" stroke="#EE8B4F" stroke-width="3" opacity="1"/><path d="M 1055 130 Q 1092.5 107.5 1170 85" fill="none" stroke="#EE8B4F" stroke-width="3" stroke-linecap="round" stroke-linejoin="round" opacity="1"/><text x="1170" y="73.8" fill="#1F1A17" font-family="Inter, Helvetica, sans-serif" font-size="24" font-weight="700" text-anchor="start" transform="rotate(0.8 1170 73.8)">tip</text></g><g><circle cx="330" cy="350" r="7" fill="#FAF4EA" stroke="#EE8B4F" stroke-width="3" opacity="1"/><path d="M 330 350 Q 295 295 300 240" fill="none" stroke="#EE8B4F" stroke-width="3" stroke-linecap="round" stroke-linejoin="round" opacity="1"/><text x="300" y="228.2" fill="#1F1A17" font-family="Inter, Helvetica, sans-serif" font-size="24" font-weight="700" text-anchor="end" transform="rotate(0.2 300 228.2)">internal node</text></g><g><circle cx="760" cy="440" r="7" fill="#FAF4EA" stroke="#EE8B4F" stroke-width="3" opacity="1"/><path d="M 760 440 Q 727.5 410 735 380" fill="none" stroke="#EE8B4F" stroke-width="3" stroke-linecap="round" stroke-linejoin="round" opacity="1"/><text x="735" y="367.2" fill="#1F1A17" font-family="Inter, Helvetica, sans-serif" font-size="24" font-weight="700" text-anchor="end" transform="rotate(-0.7 735 367.2)">branch length</text></g><g><circle cx="610" cy="176" r="7" fill="#FAF4EA" stroke="#EE8B4F" stroke-width="3" opacity="1"/><path d="M 610 176 Q 520 130.5 470 85" fill="none" stroke="#EE8B4F" stroke-width="3" stroke-linecap="round" stroke-linejoin="round" opacity="1"/><text x="470" y="73.7" fill="#1F1A17" font-family="Inter, Helvetica, sans-serif" font-size="24" font-weight="700" text-anchor="end" transform="rotate(0.7 470 73.7)">bootstrap support</text></g></g></svg>
