<svg xmlns="http://www.w3.org/2000/svg" width="1400" height="800" viewBox="0 0 1400 800" role="img" aria-labelledby="title-amplicon-vs-shotgun"><title id="title-amplicon-vs-shotgun">amplicon-vs-shotgun</title><defs><filter id="paperGrain" x="0" y="0" width="100%" height="100%"><feTurbulence type="fractalNoise" baseFrequency="0.9" numOctaves="2" seed="19" result="noise"/><feColorMatrix type="saturate" values="0"/><feBlend in="SourceGraphic" in2="noise" mode="multiply"/></filter><marker id="arrowCream" viewBox="0 0 10 10" refX="8" refY="5" markerWidth="8" markerHeight="8" orient="auto-start-reverse"><path d="M 0 0 L 10 5 L 0 10 Q 2 5 0 0" fill="#EE8B4F"/></marker><marker id="arrowInk" viewBox="0 0 10 10" refX="8" refY="5" markerWidth="7" markerHeight="7" orient="auto-start-reverse"><path d="M 0 0 L 10 5 L 0 10 Q 2 5 0 0" fill="#1F1A17"/></marker><linearGradient id="qualityGradient" x1="0%" x2="100%" y1="0%" y2="0%"><stop offset="0%" stop-color="#FAF4EA"/><stop offset="35%" stop-color="#F6B088"/><stop offset="100%" stop-color="#EE8B4F"/></linearGradient></defs><rect width="100%" height="100%" fill="#FAF4EA"/><rect width="100%" height="100%" fill="#FAF4EA" filter="url(#paperGrain)" opacity="0.34"/><g><text x="160" y="233.7" fill="#1F1A17" font-family="Inter, Helvetica, sans-serif" font-size="32" font-weight="700" text-anchor="end" transform="rotate(0.7 160 233.7)">shotgun</text><text x="160" y="573.7" fill="#1F1A17" font-family="Inter, Helvetica, sans-serif" font-size="32" font-weight="700" text-anchor="end" transform="rotate(0.7 160 573.7)">amplicon</text><g><line x1="225" y1="225" x2="1220" y2="225" stroke="#1F1A17" stroke-width="6" stroke-linecap="round" opacity="1"/><path d="M 225 226.5 L 349.4 227.8 L 473.8 226.2 L 598.1 225.3 L 722.5 227.1 L 846.9 227.5 L 971.3 225.6 L 1095.6 225.7 L 1220 227.6" fill="none" stroke="#1F1A17" stroke-width="1.32" stroke-linecap="round" stroke-linejoin="round" opacity="0.32"/></g><g><g><path d="M 321 119 Q 331 113 340 121 Q 348 126 341 132 Q 331 139 320 131 Q 314 126 321 119 Z" fill="#F6B088" stroke="#F6B088" stroke-width="1" stroke-linecap="butt" stroke-linejoin="round" opacity="0.46"/></g><path d="M 340 120.24 Q 314.8 115.92 289.6 119.88 L 289.6 114.84 L 270 126 L 289.6 137.16 L 289.6 132.12 Q 314.8 136.08 340 131.76 Z" fill="#EE8B4F" stroke="#1F1A17" stroke-width="1.1" stroke-linecap="butt" stroke-linejoin="round" opacity="0.9"/><path d="M 332 124 L 322.9 125 L 313.8 123.7 L 304.7 123.1 L 295.6 124.5" fill="none" stroke="#F6B088" stroke-width="1.2" stroke-linecap="round" stroke-linejoin="round" opacity="0.46"/></g><g><path d="M 370 152.24 Q 401 147.92 432 151.88 L 432 146.84 L 452 158 L 432 169.16 L 432 164.12 Q 401 168.08 370 163.76 Z" fill="#EE8B4F" stroke="#1F1A17" stroke-width="1.1" stroke-linecap="butt" stroke-linejoin="round" opacity="0.9"/><path d="M 378 156 L 390 157 L 402 155.7 L 414 155.1 L 426 156.5" fill="none" stroke="#F6B088" stroke-width="1.2" stroke-linecap="round" stroke-linejoin="round" opacity="0.46"/></g><g><path d="M 558 194.24 Q 532 189.92 506 193.88 L 506 188.84 L 486 200 L 506 211.16 L 506 206.12 Q 532 210.08 558 205.76 Z" fill="#EE8B4F" stroke="#1F1A17" stroke-width="1.1" stroke-linecap="butt" stroke-linejoin="round" opacity="0.9"/><path d="M 550 198 L 540.5 199 L 531 197.7 L 521.5 197.1 L 512 198.5" fill="none" stroke="#F6B088" stroke-width="1.2" stroke-linecap="round" stroke-linejoin="round" opacity="0.46"/></g><g><path d="M 590 136.24 Q 619 131.92 648 135.88 L 648 130.84 L 668 142 L 648 153.16 L 648 148.12 Q 619 152.08 590 147.76 Z" fill="#EE8B4F" stroke="#1F1A17" stroke-width="1.1" stroke-linecap="butt" stroke-linejoin="round" opacity="0.9"/><path d="M 598 140 L 609 141 L 620 139.7 L 631 139.1 L 642 140.5" fill="none" stroke="#F6B088" stroke-width="1.2" stroke-linecap="round" stroke-linejoin="round" opacity="0.46"/></g><g><g><path d="M 772 175 Q 782 169 791 177 Q 799 182 792 188 Q 782 195 771 187 Q 765 182 772 175 Z" fill="#F6B088" stroke="#F6B088" stroke-width="1" stroke-linecap="butt" stroke-linejoin="round" opacity="0.46"/></g><path d="M 791 176.24 Q 758 171.92 725 175.88 L 725 170.84 L 705 182 L 725 193.16 L 725 188.12 Q 758 192.08 791 187.76 Z" fill="#EE8B4F" stroke="#1F1A17" stroke-width="1.1" stroke-linecap="butt" stroke-linejoin="round" opacity="0.9"/><path d="M 783 180 L 770 181 L 757 179.7 L 744 179.1 L 731 180.5" fill="none" stroke="#F6B088" stroke-width="1.2" stroke-linecap="round" stroke-linejoin="round" opacity="0.46"/></g><g><path d="M 911 122.24 Q 883 117.92 855 121.88 L 855 116.84 L 835 128 L 855 139.16 L 855 134.12 Q 883 138.08 911 133.76 Z" fill="#EE8B4F" stroke="#1F1A17" stroke-width="1.1" stroke-linecap="butt" stroke-linejoin="round" opacity="0.9"/><path d="M 903 126 L 892.5 127 L 882 125.7 L 871.5 125.1 L 861 126.5" fill="none" stroke="#F6B088" stroke-width="1.2" stroke-linecap="round" stroke-linejoin="round" opacity="0.46"/></g><g><path d="M 948 170.24 Q 980 165.92 1012 169.88 L 1012 164.84 L 1032 176 L 1012 187.16 L 1012 182.12 Q 980 186.08 948 181.76 Z" fill="#EE8B4F" stroke="#1F1A17" stroke-width="1.1" stroke-linecap="butt" stroke-linejoin="round" opacity="0.9"/><path d="M 956 174 L 968.5 175 L 981 173.7 L 993.5 173.1 L 1006 174.5" fill="none" stroke="#F6B088" stroke-width="1.2" stroke-linecap="round" stroke-linejoin="round" opacity="0.46"/></g><g><path d="M 1156 128.24 Q 1128 123.92 1100 127.88 L 1100 122.84 L 1080 134 L 1100 145.16 L 1100 140.12 Q 1128 144.08 1156 139.76 Z" fill="#EE8B4F" stroke="#1F1A17" stroke-width="1.1" stroke-linecap="butt" stroke-linejoin="round" opacity="0.9"/><path d="M 1148 132 L 1137.5 133 L 1127 131.7 L 1116.5 131.1 L 1106 132.5" fill="none" stroke="#F6B088" stroke-width="1.2" stroke-linecap="round" stroke-linejoin="round" opacity="0.46"/></g><g><path d="M 1110 242.24 Q 1141 237.92 1172 241.88 L 1172 236.84 L 1192 248 L 1172 259.16 L 1172 254.12 Q 1141 258.08 1110 253.76 Z" fill="#EE8B4F" stroke="#1F1A17" stroke-width="1.1" stroke-linecap="butt" stroke-linejoin="round" opacity="0.9"/><path d="M 1118 246 L 1130 247 L 1142 245.7 L 1154 245.1 L 1166 246.5" fill="none" stroke="#F6B088" stroke-width="1.2" stroke-linecap="round" stroke-linejoin="round" opacity="0.46"/></g><g><path d="M 1058 286.24 Q 1031 281.92 1004 285.88 L 1004 280.84 L 984 292 L 1004 303.16 L 1004 298.12 Q 1031 302.08 1058 297.76 Z" fill="#EE8B4F" stroke="#1F1A17" stroke-width="1.1" stroke-linecap="butt" stroke-linejoin="round" opacity="0.9"/><path d="M 1050 290 L 1040 291 L 1030 289.7 L 1020 289.1 L 1010 290.5" fill="none" stroke="#F6B088" stroke-width="1.2" stroke-linecap="round" stroke-linejoin="round" opacity="0.46"/></g><g><path d="M 840 246.24 Q 866 241.92 892 245.88 L 892 240.84 L 912 252 L 892 263.16 L 892 258.12 Q 866 262.08 840 257.76 Z" fill="#EE8B4F" stroke="#1F1A17" stroke-width="1.1" stroke-linecap="butt" stroke-linejoin="round" opacity="0.9"/><path d="M 848 250 L 857.5 251 L 867 249.7 L 876.5 249.1 L 886 250.5" fill="none" stroke="#F6B088" stroke-width="1.2" stroke-linecap="round" stroke-linejoin="round" opacity="0.46"/></g><g><path d="M 782 299.24 Q 751 294.92 720 298.88 L 720 293.84 L 700 305 L 720 316.16 L 720 311.12 Q 751 315.08 782 310.76 Z" fill="#EE8B4F" stroke="#1F1A17" stroke-width="1.1" stroke-linecap="butt" stroke-linejoin="round" opacity="0.9"/><path d="M 774 303 L 762 304 L 750 302.7 L 738 302.1 L 726 303.5" fill="none" stroke="#F6B088" stroke-width="1.2" stroke-linecap="round" stroke-linejoin="round" opacity="0.46"/></g><g><g><path d="M 554 261 Q 564 255 573 263 Q 581 268 574 274 Q 564 281 553 273 Q 547 268 554 261 Z" fill="#F6B088" stroke="#F6B088" stroke-width="1" stroke-linecap="butt" stroke-linejoin="round" opacity="0.46"/></g><path d="M 555 262.24 Q 583 257.92 611 261.88 L 611 256.84 L 631 268 L 611 279.16 L 611 274.12 Q 583 278.08 555 273.76 Z" fill="#EE8B4F" stroke="#1F1A17" stroke-width="1.1" stroke-linecap="butt" stroke-linejoin="round" opacity="0.9"/><path d="M 563 266 L 573.5 267 L 584 265.7 L 594.5 265.1 L 605 266.5" fill="none" stroke="#F6B088" stroke-width="1.2" stroke-linecap="round" stroke-linejoin="round" opacity="0.46"/></g><g><path d="M 494 304.24 Q 464 299.92 434 303.88 L 434 298.84 L 414 310 L 434 321.16 L 434 316.12 Q 464 320.08 494 315.76 Z" fill="#EE8B4F" stroke="#1F1A17" stroke-width="1.1" stroke-linecap="butt" stroke-linejoin="round" opacity="0.9"/><path d="M 486 308 L 474.5 309 L 463 307.7 L 451.5 307.1 L 440 308.5" fill="none" stroke="#F6B088" stroke-width="1.2" stroke-linecap="round" stroke-linejoin="round" opacity="0.46"/></g><g><path d="M 286 260.24 Q 312 255.92 338 259.88 L 338 254.84 L 358 266 L 338 277.16 L 338 272.12 Q 312 276.08 286 271.76 Z" fill="#EE8B4F" stroke="#1F1A17" stroke-width="1.1" stroke-linecap="butt" stroke-linejoin="round" opacity="0.9"/><path d="M 294 264 L 303.5 265 L 313 263.7 L 322.5 263.1 L 332 264.5" fill="none" stroke="#F6B088" stroke-width="1.2" stroke-linecap="round" stroke-linejoin="round" opacity="0.46"/></g><g><path d="M 1160 309.24 Q 1183.04 304.92 1206.08 308.88 L 1206.08 303.84 L 1224 315 L 1206.08 326.16 L 1206.08 321.12 Q 1183.04 325.08 1160 320.76 Z" fill="#EE8B4F" stroke="#1F1A17" stroke-width="1.1" stroke-linecap="butt" stroke-linejoin="round" opacity="0.9"/><path d="M 1168 313 L 1176 314 L 1184 312.7 L 1192.1 312.1 L 1200.1 313.5" fill="none" stroke="#F6B088" stroke-width="1.2" stroke-linecap="round" stroke-linejoin="round" opacity="0.46"/></g><g><path d="M 526 106.24 Q 502.24 101.92 478.48 105.88 L 478.48 100.84 L 460 112 L 478.48 123.16 L 478.48 118.12 Q 502.24 122.08 526 117.76 Z" fill="#EE8B4F" stroke="#1F1A17" stroke-width="1.1" stroke-linecap="butt" stroke-linejoin="round" opacity="0.9"/><path d="M 518 110 L 509.6 111 L 501.2 109.7 L 492.9 109.1 L 484.5 110.5" fill="none" stroke="#F6B088" stroke-width="1.2" stroke-linecap="round" stroke-linejoin="round" opacity="0.46"/></g><g><path d="M 1087 216.24 Q 1061 211.92 1035 215.88 L 1035 210.84 L 1015 222 L 1035 233.16 L 1035 228.12 Q 1061 232.08 1087 227.76 Z" fill="#EE8B4F" stroke="#1F1A17" stroke-width="1.1" stroke-linecap="butt" stroke-linejoin="round" opacity="0.9"/><path d="M 1079 220 L 1069.5 221 L 1060 219.7 L 1050.5 219.1 L 1041 220.5" fill="none" stroke="#F6B088" stroke-width="1.2" stroke-linecap="round" stroke-linejoin="round" opacity="0.46"/></g><g><path d="M 630 224.24 Q 654.48 219.92 678.96 223.88 L 678.96 218.84 L 698 230 L 678.96 241.16 L 678.96 236.12 Q 654.48 240.08 630 235.76 Z" fill="#EE8B4F" stroke="#1F1A17" stroke-width="1.1" stroke-linecap="butt" stroke-linejoin="round" opacity="0.9"/><path d="M 638 228 L 646.7 229 L 655.5 227.7 L 664.2 227.1 L 673 228.5" fill="none" stroke="#F6B088" stroke-width="1.2" stroke-linecap="round" stroke-linejoin="round" opacity="0.46"/></g><g><path d="M 849 214.24 Q 822 209.92 795 213.88 L 795 208.84 L 775 220 L 795 231.16 L 795 226.12 Q 822 230.08 849 225.76 Z" fill="#EE8B4F" stroke="#1F1A17" stroke-width="1.1" stroke-linecap="butt" stroke-linejoin="round" opacity="0.9"/><path d="M 841 218 L 831 219 L 821 217.7 L 811 217.1 L 801 218.5" fill="none" stroke="#F6B088" stroke-width="1.2" stroke-linecap="round" stroke-linejoin="round" opacity="0.46"/></g><g><line x1="225" y1="565" x2="1220" y2="565" stroke="#1F1A17" stroke-width="6" stroke-linecap="round" opacity="1"/><path d="M 225 566.5 L 349.4 567.8 L 473.8 566.2 L 598.1 565.3 L 722.5 567.1 L 846.9 567.5 L 971.3 565.6 L 1095.6 565.7 L 1220 567.6" fill="none" stroke="#1F1A17" stroke-width="1.32" stroke-linecap="round" stroke-linejoin="round" opacity="0.32"/></g><g><path d="M 238 482 Q 330 476 421 484 Q 429 507 422 531 Q 330 538 237 530 Q 231 507 238 482 Z" fill="#F6B088" stroke="#1F1A17" stroke-width="1" stroke-linecap="butt" stroke-linejoin="round" opacity="0.65"/><g><path d="M 246.1 501.5 L 279.7 502.9 L 313.4 501.1 L 347 500.2 L 380.7 502.2 L 414.3 502.6" fill="none" stroke="#F6B088" stroke-width="1.15" stroke-linecap="round" stroke-linejoin="round" opacity="0.10400000000000001"/><path d="M 246.2 512.5 L 279.8 513.9 L 313.4 512.1 L 347 511.2 L 380.6 513.2 L 414.2 513.6" fill="none" stroke="#F6B088" stroke-width="1.15" stroke-linecap="round" stroke-linejoin="round" opacity="0.10400000000000001"/></g></g><g><path d="M 338 510 Q 430 504 521 512 Q 529 535 522 559 Q 430 566 337 558 Q 331 535 338 510 Z" fill="#F6B088" stroke="#1F1A17" stroke-width="1" stroke-linecap="butt" stroke-linejoin="round" opacity="0.65"/><g><path d="M 342.5 528 L 376.7 529.4 L 411 527.6 L 445.2 526.7 L 479.5 528.7 L 513.7 529.1" fill="none" stroke="#F6B088" stroke-width="1.15" stroke-linecap="round" stroke-linejoin="round" opacity="0.10400000000000001"/><path d="M 342.6 541.5 L 376.8 542.9 L 411.1 541.1 L 445.3 540.2 L 479.6 542.2 L 513.8 542.6" fill="none" stroke="#F6B088" stroke-width="1.15" stroke-linecap="round" stroke-linejoin="round" opacity="0.10400000000000001"/></g></g><g><path d="M 438 482 Q 530 476 621 484 Q 629 507 622 531 Q 530 538 437 530 Q 431 507 438 482 Z" fill="#F6B088" stroke="#1F1A17" stroke-width="1" stroke-linecap="butt" stroke-linejoin="round" opacity="0.65"/><g><path d="M 441.1 500.5 L 475.7 501.9 L 510.4 500.1 L 545 499.2 L 579.7 501.2 L 614.3 501.6" fill="none" stroke="#F6B088" stroke-width="1.15" stroke-linecap="round" stroke-linejoin="round" opacity="0.10400000000000001"/><path d="M 441.1 513.1 L 475.7 514.5 L 510.3 512.7 L 545 511.8 L 579.6 513.8 L 614.2 514.2" fill="none" stroke="#F6B088" stroke-width="1.15" stroke-linecap="round" stroke-linejoin="round" opacity="0.10400000000000001"/></g></g><g><path d="M 538 510 Q 630 504 721 512 Q 729 535 722 559 Q 630 566 537 558 Q 531 535 538 510 Z" fill="#F6B088" stroke="#1F1A17" stroke-width="1" stroke-linecap="butt" stroke-linejoin="round" opacity="0.65"/><g><path d="M 543.9 525.4 L 577.9 526.8 L 611.8 525 L 645.8 524.1 L 679.7 526.1 L 713.7 526.5" fill="none" stroke="#F6B088" stroke-width="1.15" stroke-linecap="round" stroke-linejoin="round" opacity="0.10400000000000001"/><path d="M 543.7 544 L 577.7 545.4 L 611.7 543.6 L 645.8 542.7 L 679.8 544.7 L 713.8 545.1" fill="none" stroke="#F6B088" stroke-width="1.15" stroke-linecap="round" stroke-linejoin="round" opacity="0.10400000000000001"/></g></g><g><path d="M 638 482 Q 730 476 821 484 Q 829 507 822 531 Q 730 538 637 530 Q 631 507 638 482 Z" fill="#F6B088" stroke="#1F1A17" stroke-width="1" stroke-linecap="butt" stroke-linejoin="round" opacity="0.65"/><g><path d="M 646.8 498 L 680.3 499.4 L 713.8 497.6 L 747.3 496.7 L 780.8 498.7 L 814.3 499.1" fill="none" stroke="#F6B088" stroke-width="1.15" stroke-linecap="round" stroke-linejoin="round" opacity="0.10400000000000001"/><path d="M 646.8 515.4 L 680.3 516.8 L 713.8 515 L 747.2 514.1 L 780.7 516.1 L 814.2 516.5" fill="none" stroke="#F6B088" stroke-width="1.15" stroke-linecap="round" stroke-linejoin="round" opacity="0.10400000000000001"/></g></g><g><path d="M 738 510 Q 830 504 921 512 Q 929 535 922 559 Q 830 566 737 558 Q 731 535 738 510 Z" fill="#F6B088" stroke="#1F1A17" stroke-width="1" stroke-linecap="butt" stroke-linejoin="round" opacity="0.65"/><g><path d="M 745.7 523.4 L 779.3 524.8 L 812.9 523 L 846.5 522.1 L 880.1 524.1 L 913.7 524.5" fill="none" stroke="#F6B088" stroke-width="1.15" stroke-linecap="round" stroke-linejoin="round" opacity="0.10400000000000001"/><path d="M 745.9 546.3 L 779.5 547.7 L 813.1 545.9 L 846.6 545 L 880.2 547 L 913.8 547.4" fill="none" stroke="#F6B088" stroke-width="1.15" stroke-linecap="round" stroke-linejoin="round" opacity="0.10400000000000001"/></g></g><g><path d="M 838 482 Q 930 476 1021 484 Q 1029 507 1022 531 Q 930 538 837 530 Q 831 507 838 482 Z" fill="#F6B088" stroke="#1F1A17" stroke-width="1" stroke-linecap="butt" stroke-linejoin="round" opacity="0.65"/><g><path d="M 842.2 495.7 L 876.6 497.1 L 911 495.3 L 945.5 494.4 L 979.9 496.4 L 1014.3 496.8" fill="none" stroke="#F6B088" stroke-width="1.15" stroke-linecap="round" stroke-linejoin="round" opacity="0.10400000000000001"/><path d="M 842.3 517.9 L 876.7 519.3 L 911.1 517.5 L 945.4 516.6 L 979.8 518.6 L 1014.2 519" fill="none" stroke="#F6B088" stroke-width="1.15" stroke-linecap="round" stroke-linejoin="round" opacity="0.10400000000000001"/></g></g><g><path d="M 938 510 Q 1030 504 1121 512 Q 1129 535 1122 559 Q 1030 566 937 558 Q 931 535 938 510 Z" fill="#F6B088" stroke="#1F1A17" stroke-width="1" stroke-linecap="butt" stroke-linejoin="round" opacity="0.65"/><g><path d="M 941.2 523.4 L 975.7 524.8 L 1010.2 523 L 1044.7 522.1 L 1079.2 524.1 L 1113.7 524.5" fill="none" stroke="#F6B088" stroke-width="1.15" stroke-linecap="round" stroke-linejoin="round" opacity="0.10400000000000001"/><path d="M 941.2 546.8 L 975.7 548.2 L 1010.2 546.4 L 1044.8 545.5 L 1079.3 547.5 L 1113.8 547.9" fill="none" stroke="#F6B088" stroke-width="1.15" stroke-linecap="round" stroke-linejoin="round" opacity="0.10400000000000001"/></g></g><g><path d="M 1038 482 Q 1130 476 1221 484 Q 1229 507 1222 531 Q 1130 538 1037 530 Q 1031 507 1038 482 Z" fill="#F6B088" stroke="#1F1A17" stroke-width="1" stroke-linecap="butt" stroke-linejoin="round" opacity="0.65"/><g><path d="M 1044.3 495.2 L 1078.3 496.6 L 1112.3 494.8 L 1146.3 493.9 L 1180.3 495.9 L 1214.3 496.3" fill="none" stroke="#F6B088" stroke-width="1.15" stroke-linecap="round" stroke-linejoin="round" opacity="0.10400000000000001"/><path d="M 1044.1 518.9 L 1078.1 520.3 L 1112.1 518.5 L 1146.2 517.6 L 1180.2 519.6 L 1214.2 520" fill="none" stroke="#F6B088" stroke-width="1.15" stroke-linecap="round" stroke-linejoin="round" opacity="0.10400000000000001"/></g></g><g><path d="M 265 541.24 Q 294 536.92 323 540.88 L 323 535.84 L 343 547 L 323 558.16 L 323 553.12 Q 294 557.08 265 552.76 Z" fill="#EE8B4F" stroke="#1F1A17" stroke-width="1.1" stroke-linecap="butt" stroke-linejoin="round" opacity="0.9"/><path d="M 273 545 L 284 546 L 295 544.7 L 306 544.1 L 317 545.5" fill="none" stroke="#F6B088" stroke-width="1.2" stroke-linecap="round" stroke-linejoin="round" opacity="0.46"/></g><g><path d="M 411 569.24 Q 382 564.92 353 568.88 L 353 563.84 L 333 575 L 353 586.16 L 353 581.12 Q 382 585.08 411 580.76 Z" fill="#EE8B4F" stroke="#1F1A17" stroke-width="1.1" stroke-linecap="butt" stroke-linejoin="round" opacity="0.9"/><path d="M 403 573 L 392 574 L 381 572.7 L 370 572.1 L 359 573.5" fill="none" stroke="#F6B088" stroke-width="1.2" stroke-linecap="round" stroke-linejoin="round" opacity="0.46"/></g><g><path d="M 401 597.24 Q 430 592.92 459 596.88 L 459 591.84 L 479 603 L 459 614.16 L 459 609.12 Q 430 613.08 401 608.76 Z" fill="#EE8B4F" stroke="#1F1A17" stroke-width="1.1" stroke-linecap="butt" stroke-linejoin="round" opacity="0.9"/><path d="M 409 601 L 420 602 L 431 600.7 L 442 600.1 L 453 601.5" fill="none" stroke="#F6B088" stroke-width="1.2" stroke-linecap="round" stroke-linejoin="round" opacity="0.46"/></g><g><path d="M 547 541.24 Q 518 536.92 489 540.88 L 489 535.84 L 469 547 L 489 558.16 L 489 553.12 Q 518 557.08 547 552.76 Z" fill="#EE8B4F" stroke="#1F1A17" stroke-width="1.1" stroke-linecap="butt" stroke-linejoin="round" opacity="0.9"/><path d="M 539 545 L 528 546 L 517 544.7 L 506 544.1 L 495 545.5" fill="none" stroke="#F6B088" stroke-width="1.2" stroke-linecap="round" stroke-linejoin="round" opacity="0.46"/></g><g><path d="M 537 569.24 Q 566 564.92 595 568.88 L 595 563.84 L 615 575 L 595 586.16 L 595 581.12 Q 566 585.08 537 580.76 Z" fill="#EE8B4F" stroke="#1F1A17" stroke-width="1.1" stroke-linecap="butt" stroke-linejoin="round" opacity="0.9"/><path d="M 545 573 L 556 574 L 567 572.7 L 578 572.1 L 589 573.5" fill="none" stroke="#F6B088" stroke-width="1.2" stroke-linecap="round" stroke-linejoin="round" opacity="0.46"/></g><g><path d="M 683 597.24 Q 654 592.92 625 596.88 L 625 591.84 L 605 603 L 625 614.16 L 625 609.12 Q 654 613.08 683 608.76 Z" fill="#EE8B4F" stroke="#1F1A17" stroke-width="1.1" stroke-linecap="butt" stroke-linejoin="round" opacity="0.9"/><path d="M 675 601 L 664 602 L 653 600.7 L 642 600.1 L 631 601.5" fill="none" stroke="#F6B088" stroke-width="1.2" stroke-linecap="round" stroke-linejoin="round" opacity="0.46"/></g><g><path d="M 673 541.24 Q 702 536.92 731 540.88 L 731 535.84 L 751 547 L 731 558.16 L 731 553.12 Q 702 557.08 673 552.76 Z" fill="#EE8B4F" stroke="#1F1A17" stroke-width="1.1" stroke-linecap="butt" stroke-linejoin="round" opacity="0.9"/><path d="M 681 545 L 692 546 L 703 544.7 L 714 544.1 L 725 545.5" fill="none" stroke="#F6B088" stroke-width="1.2" stroke-linecap="round" stroke-linejoin="round" opacity="0.46"/></g><g><path d="M 819 569.24 Q 790 564.92 761 568.88 L 761 563.84 L 741 575 L 761 586.16 L 761 581.12 Q 790 585.08 819 580.76 Z" fill="#EE8B4F" stroke="#1F1A17" stroke-width="1.1" stroke-linecap="butt" stroke-linejoin="round" opacity="0.9"/><path d="M 811 573 L 800 574 L 789 572.7 L 778 572.1 L 767 573.5" fill="none" stroke="#F6B088" stroke-width="1.2" stroke-linecap="round" stroke-linejoin="round" opacity="0.46"/></g><g><path d="M 809 597.24 Q 838 592.92 867 596.88 L 867 591.84 L 887 603 L 867 614.16 L 867 609.12 Q 838 613.08 809 608.76 Z" fill="#EE8B4F" stroke="#1F1A17" stroke-width="1.1" stroke-linecap="butt" stroke-linejoin="round" opacity="0.9"/><path d="M 817 601 L 828 602 L 839 600.7 L 850 600.1 L 861 601.5" fill="none" stroke="#F6B088" stroke-width="1.2" stroke-linecap="round" stroke-linejoin="round" opacity="0.46"/></g><g><path d="M 955 541.24 Q 926 536.92 897 540.88 L 897 535.84 L 877 547 L 897 558.16 L 897 553.12 Q 926 557.08 955 552.76 Z" fill="#EE8B4F" stroke="#1F1A17" stroke-width="1.1" stroke-linecap="butt" stroke-linejoin="round" opacity="0.9"/><path d="M 947 545 L 936 546 L 925 544.7 L 914 544.1 L 903 545.5" fill="none" stroke="#F6B088" stroke-width="1.2" stroke-linecap="round" stroke-linejoin="round" opacity="0.46"/></g><g><path d="M 945 569.24 Q 974 564.92 1003 568.88 L 1003 563.84 L 1023 575 L 1003 586.16 L 1003 581.12 Q 974 585.08 945 580.76 Z" fill="#EE8B4F" stroke="#1F1A17" stroke-width="1.1" stroke-linecap="butt" stroke-linejoin="round" opacity="0.9"/><path d="M 953 573 L 964 574 L 975 572.7 L 986 572.1 L 997 573.5" fill="none" stroke="#F6B088" stroke-width="1.2" stroke-linecap="round" stroke-linejoin="round" opacity="0.46"/></g><g><path d="M 1091 597.24 Q 1062 592.92 1033 596.88 L 1033 591.84 L 1013 603 L 1033 614.16 L 1033 609.12 Q 1062 613.08 1091 608.76 Z" fill="#EE8B4F" stroke="#1F1A17" stroke-width="1.1" stroke-linecap="butt" stroke-linejoin="round" opacity="0.9"/><path d="M 1083 601 L 1072 602 L 1061 600.7 L 1050 600.1 L 1039 601.5" fill="none" stroke="#F6B088" stroke-width="1.2" stroke-linecap="round" stroke-linejoin="round" opacity="0.46"/></g><g><path d="M 1081 541.24 Q 1110 536.92 1139 540.88 L 1139 535.84 L 1159 547 L 1139 558.16 L 1139 553.12 Q 1110 557.08 1081 552.76 Z" fill="#EE8B4F" stroke="#1F1A17" stroke-width="1.1" stroke-linecap="butt" stroke-linejoin="round" opacity="0.9"/><path d="M 1089 545 L 1100 546 L 1111 544.7 L 1122 544.1 L 1133 545.5" fill="none" stroke="#F6B088" stroke-width="1.2" stroke-linecap="round" stroke-linejoin="round" opacity="0.46"/></g><g><path d="M 1227 569.24 Q 1198 564.92 1169 568.88 L 1169 563.84 L 1149 575 L 1169 586.16 L 1169 581.12 Q 1198 585.08 1227 580.76 Z" fill="#EE8B4F" stroke="#1F1A17" stroke-width="1.1" stroke-linecap="butt" stroke-linejoin="round" opacity="0.9"/><path d="M 1219 573 L 1208 574 L 1197 572.7 L 1186 572.1 L 1175 573.5" fill="none" stroke="#F6B088" stroke-width="1.2" stroke-linecap="round" stroke-linejoin="round" opacity="0.46"/></g><text x="990" y="445" fill="#8A847A" font-family="IBM Plex Mono, Menlo, monospace" font-size="22" font-weight="600" text-anchor="start">~400 bp</text></g></svg>
