<svg xmlns="http://www.w3.org/2000/svg" width="1400" height="500" viewBox="0 0 1400 500" role="img" aria-labelledby="title-primer-scheme-diagram"><title id="title-primer-scheme-diagram">primer-scheme-diagram</title><defs><filter id="paperGrain" x="0" y="0" width="100%" height="100%"><feTurbulence type="fractalNoise" baseFrequency="0.9" numOctaves="2" seed="19" result="noise"/><feColorMatrix type="saturate" values="0"/><feBlend in="SourceGraphic" in2="noise" mode="multiply"/></filter><marker id="arrowCream" viewBox="0 0 10 10" refX="8" refY="5" markerWidth="8" markerHeight="8" orient="auto-start-reverse"><path d="M 0 0 L 10 5 L 0 10 Q 2 5 0 0" fill="#EE8B4F"/></marker><marker id="arrowInk" viewBox="0 0 10 10" refX="8" refY="5" markerWidth="7" markerHeight="7" orient="auto-start-reverse"><path d="M 0 0 L 10 5 L 0 10 Q 2 5 0 0" fill="#1F1A17"/></marker><linearGradient id="qualityGradient" x1="0%" x2="100%" y1="0%" y2="0%"><stop offset="0%" stop-color="#FAF4EA"/><stop offset="35%" stop-color="#F6B088"/><stop offset="100%" stop-color="#EE8B4F"/></linearGradient></defs><rect width="100%" height="100%" fill="#FAF4EA"/><rect width="100%" height="100%" fill="#FAF4EA" filter="url(#paperGrain)" opacity="0.34"/><g><g><line x1="190" y1="170" x2="1210" y2="170" stroke="#1F1A17" stroke-width="6" stroke-linecap="round" opacity="1"/><path d="M 190 171.5 L 317.5 172.8 L 445 171.2 L 572.5 170.3 L 700 172.1 L 827.5 172.5 L 955 170.6 L 1082.5 170.7 L 1210 172.6" fill="none" stroke="#1F1A17" stroke-width="1.32" stroke-linecap="round" stroke-linejoin="round" opacity="0.32"/></g><g><path d="M 208 119 Q 365 113 521 121 Q 529 171 522 222 Q 365 229 207 221 Q 201 171 208 119 Z" fill="#F6B088" stroke="#F6B088" stroke-width="2" stroke-linecap="butt" stroke-linejoin="round" opacity="0.45"/><g><path d="M 212 151 L 273.2 152.4 L 334.4 150.6 L 395.7 149.7 L 456.9 151.7 L 518.1 152.1" fill="none" stroke="#F6B088" stroke-width="1.15" stroke-linecap="round" stroke-linejoin="round" opacity="0.07200000000000001"/><path d="M 212.1 191.3 L 273.3 192.7 L 334.6 190.9 L 395.8 190 L 457.1 192 L 518.3 192.4" fill="none" stroke="#F6B088" stroke-width="1.15" stroke-linecap="round" stroke-linejoin="round" opacity="0.07200000000000001"/></g></g><g><path d="M 513 119 Q 670 113 826 121 Q 834 171 827 222 Q 670 229 512 221 Q 506 171 513 119 Z" fill="#F6B088" stroke="#F6B088" stroke-width="2" stroke-linecap="butt" stroke-linejoin="round" opacity="0.48"/><g><path d="M 521.8 153.2 L 582.1 154.6 L 642.3 152.8 L 702.6 151.9 L 762.8 153.9 L 823.1 154.3" fill="none" stroke="#F6B088" stroke-width="1.15" stroke-linecap="round" stroke-linejoin="round" opacity="0.0768"/><path d="M 521.7 188.2 L 582 189.6 L 642.3 187.8 L 702.7 186.9 L 763 188.9 L 823.3 189.3" fill="none" stroke="#F6B088" stroke-width="1.15" stroke-linecap="round" stroke-linejoin="round" opacity="0.0768"/></g></g><g><path d="M 818 119 Q 975 113 1131 121 Q 1139 171 1132 222 Q 975 229 817 221 Q 811 171 818 119 Z" fill="#F6B088" stroke="#F6B088" stroke-width="2" stroke-linecap="butt" stroke-linejoin="round" opacity="0.51"/><g><path d="M 821 155.7 L 882.4 157.1 L 943.8 155.3 L 1005.3 154.4 L 1066.7 156.4 L 1128.1 156.8" fill="none" stroke="#F6B088" stroke-width="1.15" stroke-linecap="round" stroke-linejoin="round" opacity="0.0816"/><path d="M 821 186.7 L 882.5 188.1 L 943.9 186.3 L 1005.4 185.4 L 1066.8 187.4 L 1128.3 187.8" fill="none" stroke="#F6B088" stroke-width="1.15" stroke-linecap="round" stroke-linejoin="round" opacity="0.0816"/></g></g><g><path d="M 230 122 C 292.5 112 292.5 132 355 122" fill="none" stroke="#EE8B4F" stroke-width="12" stroke-linecap="round" stroke-linejoin="round" opacity="1" marker-end="url(#arrowCream)"/><path d="M 230 122 C 292.5 112 292.5 132 355 122" fill="none" stroke="#EE8B4F" stroke-width="3" stroke-linecap="round" stroke-linejoin="round" opacity="0.32"/></g><text x="270" y="92" fill="#1F1A17" font-family="IBM Plex Mono, Menlo, monospace" font-size="18" font-weight="600" text-anchor="middle">amp_1_LEFT</text><g><path d="M 535 122 C 600 112 600 132 665 122" fill="none" stroke="#EE8B4F" stroke-width="12" stroke-linecap="round" stroke-linejoin="round" opacity="1" marker-end="url(#arrowCream)"/><path d="M 535 122 C 600 112 600 132 665 122" fill="none" stroke="#EE8B4F" stroke-width="3" stroke-linecap="round" stroke-linejoin="round" opacity="0.32"/></g><text x="575" y="92" fill="#1F1A17" font-family="IBM Plex Mono, Menlo, monospace" font-size="18" font-weight="600" text-anchor="middle">amp_2_LEFT</text><g><path d="M 840 122 C 905 112 905 132 970 122" fill="none" stroke="#EE8B4F" stroke-width="12" stroke-linecap="round" stroke-linejoin="round" opacity="1" marker-end="url(#arrowCream)"/><path d="M 840 122 C 905 112 905 132 970 122" fill="none" stroke="#EE8B4F" stroke-width="3" stroke-linecap="round" stroke-linejoin="round" opacity="0.32"/></g><text x="880" y="92" fill="#1F1A17" font-family="IBM Plex Mono, Menlo, monospace" font-size="18" font-weight="600" text-anchor="middle">amp_3_LEFT</text><g><path d="M 490 218 C 427.5 208 427.5 228 365 218" fill="none" stroke="#EE8B4F" stroke-width="12" stroke-linecap="round" stroke-linejoin="round" opacity="1" marker-end="url(#arrowCream)"/><path d="M 490 218 C 427.5 208 427.5 228 365 218" fill="none" stroke="#EE8B4F" stroke-width="3" stroke-linecap="round" stroke-linejoin="round" opacity="0.32"/></g><text x="452" y="238" fill="#1F1A17" font-family="IBM Plex Mono, Menlo, monospace" font-size="18" font-weight="600" text-anchor="middle">amp_1_RIGHT</text><g><path d="M 795 218 C 732.5 208 732.5 228 670 218" fill="none" stroke="#EE8B4F" stroke-width="12" stroke-linecap="round" stroke-linejoin="round" opacity="1" marker-end="url(#arrowCream)"/><path d="M 795 218 C 732.5 208 732.5 228 670 218" fill="none" stroke="#EE8B4F" stroke-width="3" stroke-linecap="round" stroke-linejoin="round" opacity="0.32"/></g><text x="755" y="238" fill="#1F1A17" font-family="IBM Plex Mono, Menlo, monospace" font-size="18" font-weight="600" text-anchor="middle">amp_2_RIGHT</text><g><path d="M 1100 218 C 1037.5 208 1037.5 228 975 218" fill="none" stroke="#EE8B4F" stroke-width="12" stroke-linecap="round" stroke-linejoin="round" opacity="1" marker-end="url(#arrowCream)"/><path d="M 1100 218 C 1037.5 208 1037.5 228 975 218" fill="none" stroke="#EE8B4F" stroke-width="3" stroke-linecap="round" stroke-linejoin="round" opacity="0.32"/></g><text x="1060" y="238" fill="#1F1A17" font-family="IBM Plex Mono, Menlo, monospace" font-size="18" font-weight="600" text-anchor="middle">amp_3_RIGHT</text><text x="700" y="308.3" fill="#1F1A17" font-family="Inter, Helvetica, sans-serif" font-size="22" font-weight="700" text-anchor="middle" transform="rotate(0.3 700 308.3)">BED-style coordinates</text><g><g><path d="M 473 319 Q 575 313 676 321 Q 684 328 677 336 Q 575 343 472 335 Q 466 328 473 319 Z" fill="#EE8B4F" stroke="#1F1A17" stroke-width="1" stroke-linecap="butt" stroke-linejoin="round" opacity="1"/><g><path d="M 478.8 327.8 L 517.4 329.2 L 556 327.4 L 594.5 326.5 L 633.1 328.5 L 671.7 328.9" fill="none" stroke="#EE8B4F" stroke-width="1.15" stroke-linecap="round" stroke-linejoin="round" opacity="0.16"/><path d="M 479 328.4 L 517.6 329.8 L 556.2 328 L 594.7 327.1 L 633.3 329.1 L 671.9 329.5" fill="none" stroke="#EE8B4F" stroke-width="1.15" stroke-linecap="round" stroke-linejoin="round" opacity="0.16"/></g></g><text x="480" y="332.4" fill="#1F1A17" font-family="IBM Plex Mono, Menlo, monospace" font-size="14" font-weight="600" text-anchor="start">name</text><g><path d="M 683 319 Q 724 313 764 321 Q 772 328 765 336 Q 724 343 682 335 Q 676 328 683 319 Z" fill="#EE8B4F" stroke="#1F1A17" stroke-width="1" stroke-linecap="butt" stroke-linejoin="round" opacity="1"/><g><path d="M 686.5 327.7 L 701.1 329.1 L 715.8 327.3 L 730.4 326.4 L 745.1 328.4 L 759.7 328.8" fill="none" stroke="#EE8B4F" stroke-width="1.15" stroke-linecap="round" stroke-linejoin="round" opacity="0.16"/><path d="M 686.4 328.5 L 701.1 329.9 L 715.8 328.1 L 730.5 327.2 L 745.2 329.2 L 759.9 329.6" fill="none" stroke="#EE8B4F" stroke-width="1.15" stroke-linecap="round" stroke-linejoin="round" opacity="0.16"/></g></g><text x="690" y="332.4" fill="#1F1A17" font-family="IBM Plex Mono, Menlo, monospace" font-size="14" font-weight="600" text-anchor="start">start</text><g><path d="M 771 319 Q 812 313 852 321 Q 860 328 853 336 Q 812 343 770 335 Q 764 328 771 319 Z" fill="#EE8B4F" stroke="#1F1A17" stroke-width="1" stroke-linecap="butt" stroke-linejoin="round" opacity="1"/><g><path d="M 779.3 323.6 L 793 325 L 806.7 323.2 L 820.3 322.3 L 834 324.3 L 847.7 324.7" fill="none" stroke="#EE8B4F" stroke-width="1.15" stroke-linecap="round" stroke-linejoin="round" opacity="0.16"/><path d="M 779.2 333 L 792.9 334.4 L 806.7 332.6 L 820.4 331.7 L 834.2 333.7 L 847.9 334.1" fill="none" stroke="#EE8B4F" stroke-width="1.15" stroke-linecap="round" stroke-linejoin="round" opacity="0.16"/></g></g><text x="778" y="332.4" fill="#1F1A17" font-family="IBM Plex Mono, Menlo, monospace" font-size="14" font-weight="600" text-anchor="start">end</text><g><path d="M 473 339 Q 575 333 676 341 Q 684 348 677 356 Q 575 363 472 355 Q 466 348 473 339 Z" fill="#FAF4EA" stroke="#1F1A17" stroke-width="1" stroke-linecap="butt" stroke-linejoin="round" opacity="1"/></g><text x="480" y="352.4" fill="#1F1A17" font-family="IBM Plex Mono, Menlo, monospace" font-size="14" font-weight="600" text-anchor="start">amp_1_LEFT</text><g><path d="M 683 339 Q 724 333 764 341 Q 772 348 765 356 Q 724 363 682 355 Q 676 348 683 339 Z" fill="#FAF4EA" stroke="#1F1A17" stroke-width="1" stroke-linecap="butt" stroke-linejoin="round" opacity="1"/></g><text x="690" y="352.4" fill="#1F1A17" font-family="IBM Plex Mono, Menlo, monospace" font-size="14" font-weight="600" text-anchor="start">30</text><g><path d="M 771 339 Q 812 333 852 341 Q 860 348 853 356 Q 812 363 770 355 Q 764 348 771 339 Z" fill="#FAF4EA" stroke="#1F1A17" stroke-width="1" stroke-linecap="butt" stroke-linejoin="round" opacity="1"/></g><text x="778" y="352.4" fill="#1F1A17" font-family="IBM Plex Mono, Menlo, monospace" font-size="14" font-weight="600" text-anchor="start">54</text><g><path d="M 473 359 Q 575 353 676 361 Q 684 368 677 376 Q 575 383 472 375 Q 466 368 473 359 Z" fill="#FAF4EA" stroke="#1F1A17" stroke-width="1" stroke-linecap="butt" stroke-linejoin="round" opacity="1"/></g><text x="480" y="372.4" fill="#1F1A17" font-family="IBM Plex Mono, Menlo, monospace" font-size="14" font-weight="600" text-anchor="start">amp_1_RIGHT</text><g><path d="M 683 359 Q 724 353 764 361 Q 772 368 765 376 Q 724 383 682 375 Q 676 368 683 359 Z" fill="#FAF4EA" stroke="#1F1A17" stroke-width="1" stroke-linecap="butt" stroke-linejoin="round" opacity="1"/></g><text x="690" y="372.4" fill="#1F1A17" font-family="IBM Plex Mono, Menlo, monospace" font-size="14" font-weight="600" text-anchor="start">410</text><g><path d="M 771 359 Q 812 353 852 361 Q 860 368 853 376 Q 812 383 770 375 Q 764 368 771 359 Z" fill="#FAF4EA" stroke="#1F1A17" stroke-width="1" stroke-linecap="butt" stroke-linejoin="round" opacity="1"/></g><text x="778" y="372.4" fill="#1F1A17" font-family="IBM Plex Mono, Menlo, monospace" font-size="14" font-weight="600" text-anchor="start">434</text><g><path d="M 473 379 Q 575 373 676 381 Q 684 388 677 396 Q 575 403 472 395 Q 466 388 473 379 Z" fill="#FAF4EA" stroke="#1F1A17" stroke-width="1" stroke-linecap="butt" stroke-linejoin="round" opacity="1"/></g><text x="480" y="392.4" fill="#1F1A17" font-family="IBM Plex Mono, Menlo, monospace" font-size="14" font-weight="600" text-anchor="start">amp_2_LEFT</text><g><path d="M 683 379 Q 724 373 764 381 Q 772 388 765 396 Q 724 403 682 395 Q 676 388 683 379 Z" fill="#FAF4EA" stroke="#1F1A17" stroke-width="1" stroke-linecap="butt" stroke-linejoin="round" opacity="1"/></g><text x="690" y="392.4" fill="#1F1A17" font-family="IBM Plex Mono, Menlo, monospace" font-size="14" font-weight="600" text-anchor="start">380</text><g><path d="M 771 379 Q 812 373 852 381 Q 860 388 853 396 Q 812 403 770 395 Q 764 388 771 379 Z" fill="#FAF4EA" stroke="#1F1A17" stroke-width="1" stroke-linecap="butt" stroke-linejoin="round" opacity="1"/></g><text x="778" y="392.4" fill="#1F1A17" font-family="IBM Plex Mono, Menlo, monospace" font-size="14" font-weight="600" text-anchor="start">404</text><g><path d="M 473 399 Q 575 393 676 401 Q 684 408 677 416 Q 575 423 472 415 Q 466 408 473 399 Z" fill="#FAF4EA" stroke="#1F1A17" stroke-width="1" stroke-linecap="butt" stroke-linejoin="round" opacity="1"/></g><text x="480" y="412.4" fill="#1F1A17" font-family="IBM Plex Mono, Menlo, monospace" font-size="14" font-weight="600" text-anchor="start">amp_2_RIGHT</text><g><path d="M 683 399 Q 724 393 764 401 Q 772 408 765 416 Q 724 423 682 415 Q 676 408 683 399 Z" fill="#FAF4EA" stroke="#1F1A17" stroke-width="1" stroke-linecap="butt" stroke-linejoin="round" opacity="1"/></g><text x="690" y="412.4" fill="#1F1A17" font-family="IBM Plex Mono, Menlo, monospace" font-size="14" font-weight="600" text-anchor="start">760</text><g><path d="M 771 399 Q 812 393 852 401 Q 860 408 853 416 Q 812 423 770 415 Q 764 408 771 399 Z" fill="#FAF4EA" stroke="#1F1A17" stroke-width="1" stroke-linecap="butt" stroke-linejoin="round" opacity="1"/></g><text x="778" y="412.4" fill="#1F1A17" font-family="IBM Plex Mono, Menlo, monospace" font-size="14" font-weight="600" text-anchor="start">784</text><g><path d="M 473 419 Q 575 413 676 421 Q 684 428 677 436 Q 575 443 472 435 Q 466 428 473 419 Z" fill="#FAF4EA" stroke="#1F1A17" stroke-width="1" stroke-linecap="butt" stroke-linejoin="round" opacity="1"/></g><text x="480" y="432.4" fill="#1F1A17" font-family="IBM Plex Mono, Menlo, monospace" font-size="14" font-weight="600" text-anchor="start">amp_3_LEFT</text><g><path d="M 683 419 Q 724 413 764 421 Q 772 428 765 436 Q 724 443 682 435 Q 676 428 683 419 Z" fill="#FAF4EA" stroke="#1F1A17" stroke-width="1" stroke-linecap="butt" stroke-linejoin="round" opacity="1"/></g><text x="690" y="432.4" fill="#1F1A17" font-family="IBM Plex Mono, Menlo, monospace" font-size="14" font-weight="600" text-anchor="start">730</text><g><path d="M 771 419 Q 812 413 852 421 Q 860 428 853 436 Q 812 443 770 435 Q 764 428 771 419 Z" fill="#FAF4EA" stroke="#1F1A17" stroke-width="1" stroke-linecap="butt" stroke-linejoin="round" opacity="1"/></g><text x="778" y="432.4" fill="#1F1A17" font-family="IBM Plex Mono, Menlo, monospace" font-size="14" font-weight="600" text-anchor="start">754</text><g><path d="M 473 439 Q 575 433 676 441 Q 684 448 677 456 Q 575 463 472 455 Q 466 448 473 439 Z" fill="#FAF4EA" stroke="#1F1A17" stroke-width="1" stroke-linecap="butt" stroke-linejoin="round" opacity="1"/></g><text x="480" y="452.4" fill="#1F1A17" font-family="IBM Plex Mono, Menlo, monospace" font-size="14" font-weight="600" text-anchor="start">amp_3_RIGHT</text><g><path d="M 683 439 Q 724 433 764 441 Q 772 448 765 456 Q 724 463 682 455 Q 676 448 683 439 Z" fill="#FAF4EA" stroke="#1F1A17" stroke-width="1" stroke-linecap="butt" stroke-linejoin="round" opacity="1"/></g><text x="690" y="452.4" fill="#1F1A17" font-family="IBM Plex Mono, Menlo, monospace" font-size="14" font-weight="600" text-anchor="start">1110</text><g><path d="M 771 439 Q 812 433 852 441 Q 860 448 853 456 Q 812 463 770 455 Q 764 448 771 439 Z" fill="#FAF4EA" stroke="#1F1A17" stroke-width="1" stroke-linecap="butt" stroke-linejoin="round" opacity="1"/></g><text x="778" y="452.4" fill="#1F1A17" font-family="IBM Plex Mono, Menlo, monospace" font-size="14" font-weight="600" text-anchor="start">1134</text></g><text x="700" y="486" fill="#8A847A" font-family="Inter, Helvetica, sans-serif" font-size="15" font-weight="600" text-anchor="middle">BED is 0-based, half-open</text></g></svg>
