<svg xmlns="http://www.w3.org/2000/svg" width="1400" height="500" viewBox="0 0 1400 500" role="img" aria-labelledby="title-primer-trim-soft-clip"><title id="title-primer-trim-soft-clip">primer-trim-soft-clip</title><defs><filter id="paperGrain" x="0" y="0" width="100%" height="100%"><feTurbulence type="fractalNoise" baseFrequency="0.9" numOctaves="2" seed="19" result="noise"/><feColorMatrix type="saturate" values="0"/><feBlend in="SourceGraphic" in2="noise" mode="multiply"/></filter><marker id="arrowCream" viewBox="0 0 10 10" refX="8" refY="5" markerWidth="8" markerHeight="8" orient="auto-start-reverse"><path d="M 0 0 L 10 5 L 0 10 Q 2 5 0 0" fill="#EE8B4F"/></marker><marker id="arrowInk" viewBox="0 0 10 10" refX="8" refY="5" markerWidth="7" markerHeight="7" orient="auto-start-reverse"><path d="M 0 0 L 10 5 L 0 10 Q 2 5 0 0" fill="#1F1A17"/></marker><linearGradient id="qualityGradient" x1="0%" x2="100%" y1="0%" y2="0%"><stop offset="0%" stop-color="#FAF4EA"/><stop offset="35%" stop-color="#F6B088"/><stop offset="100%" stop-color="#EE8B4F"/></linearGradient></defs><rect width="100%" height="100%" fill="#FAF4EA"/><rect width="100%" height="100%" fill="#FAF4EA" filter="url(#paperGrain)" opacity="0.34"/><g><text x="130" y="63.2" fill="#1F1A17" font-family="Inter, Helvetica, sans-serif" font-size="27" font-weight="700" text-anchor="start" transform="rotate(-0.8 130 63.2)">before primer trim</text><text x="130" y="276" fill="#1F1A17" font-family="Inter, Helvetica, sans-serif" font-size="27" font-weight="700" text-anchor="start">after primer trim</text><g><g><path d="M 353 81 Q 432.5 75 511 83 Q 519 114 512 146 Q 432.5 153 352 145 Q 346 114 353 81 Z" fill="#F6B088" stroke="#1F1A17" stroke-width="1.2" stroke-linecap="butt" stroke-linejoin="round" opacity="1"/><g><path d="M 359.7 105.4 L 388.4 106.8 L 417 105 L 445.7 104.1 L 474.3 106.1 L 503 106.5" fill="none" stroke="#F6B088" stroke-width="1.15" stroke-linecap="round" stroke-linejoin="round" opacity="0.16"/><path d="M 359.8 122.4 L 388.4 123.8 L 417.1 122 L 445.7 121.1 L 474.4 123.1 L 503 123.5" fill="none" stroke="#F6B088" stroke-width="1.15" stroke-linecap="round" stroke-linejoin="round" opacity="0.16"/></g></g><g><path d="M 518 81 Q 797.5 75 1076 83 Q 1084 114 1077 146 Q 797.5 153 517 145 Q 511 114 518 81 Z" fill="#EE8B4F" stroke="#1F1A17" stroke-width="1.2" stroke-linecap="butt" stroke-linejoin="round" opacity="1"/><g><path d="M 526.4 96.5 L 634.7 97.9 L 743 96.1 L 851.4 95.2 L 959.7 97.2 L 1068 97.6" fill="none" stroke="#EE8B4F" stroke-width="1.15" stroke-linecap="round" stroke-linejoin="round" opacity="0.16"/><path d="M 526.4 115 L 634.7 116.4 L 743 114.6 L 851.4 113.7 L 959.7 115.7 L 1068 116.1" fill="none" stroke="#EE8B4F" stroke-width="1.15" stroke-linecap="round" stroke-linejoin="round" opacity="0.16"/><path d="M 526.3 129.4 L 634.7 130.8 L 743 129 L 851.4 128.1 L 959.7 130.1 L 1068.1 130.5" fill="none" stroke="#EE8B4F" stroke-width="1.15" stroke-linecap="round" stroke-linejoin="round" opacity="0.16"/></g></g><text x="432" y="124.3" fill="#1F1A17" font-family="Inter, Helvetica, sans-serif" font-size="21" font-weight="600" text-anchor="middle" transform="rotate(0.3 432 124.3)">primer</text><text x="797.5" y="123.2" fill="#1F1A17" font-family="Inter, Helvetica, sans-serif" font-size="21" font-weight="600" text-anchor="middle" transform="rotate(-0.7 797.5 123.2)">sample-derived read body</text></g><g><g><path d="M 353 293 Q 432.5 287 511 295 Q 519 326 512 358 Q 432.5 365 352 357 Q 346 326 353 293 Z" fill="#F6B088" stroke="#1F1A17" stroke-width="1.2" stroke-linecap="butt" stroke-linejoin="round" opacity="0.3"/><g><path d="M 359.7 317.7 L 388.4 319.1 L 417.1 317.3 L 445.7 316.4 L 474.4 318.4 L 503.1 318.8" fill="none" stroke="#F6B088" stroke-width="1.15" stroke-linecap="round" stroke-linejoin="round" opacity="0.048"/><path d="M 359.8 334.2 L 388.5 335.6 L 417.1 333.8 L 445.8 332.9 L 474.4 334.9 L 503.1 335.3" fill="none" stroke="#F6B088" stroke-width="1.15" stroke-linecap="round" stroke-linejoin="round" opacity="0.048"/></g></g><g><path d="M 518 293 Q 797.5 287 1076 295 Q 1084 326 1077 358 Q 797.5 365 517 357 Q 511 326 518 293 Z" fill="#EE8B4F" stroke="#1F1A17" stroke-width="1.2" stroke-linecap="butt" stroke-linejoin="round" opacity="1"/><g><path d="M 526.4 307.8 L 634.7 309.2 L 743.1 307.4 L 851.4 306.5 L 959.8 308.5 L 1068.1 308.9" fill="none" stroke="#EE8B4F" stroke-width="1.15" stroke-linecap="round" stroke-linejoin="round" opacity="0.16"/><path d="M 526.4 327.7 L 634.7 329.1 L 743.1 327.3 L 851.4 326.4 L 959.8 328.4 L 1068.1 328.8" fill="none" stroke="#EE8B4F" stroke-width="1.15" stroke-linecap="round" stroke-linejoin="round" opacity="0.16"/><path d="M 526.3 340.8 L 634.7 342.2 L 743.1 340.4 L 851.4 339.5 L 959.8 341.5 L 1068.2 341.9" fill="none" stroke="#EE8B4F" stroke-width="1.15" stroke-linecap="round" stroke-linejoin="round" opacity="0.16"/></g></g><text x="432" y="336.9" fill="#1F1A17" font-family="Inter, Helvetica, sans-serif" font-size="21" font-weight="600" text-anchor="middle" transform="rotate(0.8 432 336.9)">primer</text><text x="797.5" y="335.1" fill="#1F1A17" font-family="Inter, Helvetica, sans-serif" font-size="21" font-weight="600" text-anchor="middle" transform="rotate(-0.8 797.5 335.1)">sample-derived read body</text></g><path d="M 1005 172 C 1085 225 1082 258 1005 307" fill="none" stroke="#EE8B4F" stroke-width="5" stroke-linecap="round" stroke-linejoin="round" opacity="1" marker-end="url(#arrowCream)"/><text x="456" y="395" fill="#1F1A17" font-family="IBM Plex Mono, Menlo, monospace" font-size="24" font-weight="600" text-anchor="start">[soft-clipped]</text><path d="M 440 373 Q 505 352 570 372" fill="none" stroke="#1F1A17" stroke-width="3" stroke-linecap="round" stroke-linejoin="round" opacity="1"/><text x="930" y="410.2" fill="#1F1A17" font-family="Inter, Helvetica, sans-serif" font-size="26" font-weight="600" text-anchor="middle" transform="rotate(0.2 930 410.2)">primer bases ignored by the variant caller</text></g></svg>
