<svg xmlns="http://www.w3.org/2000/svg" width="1400" height="600" viewBox="0 0 1400 600" role="img" aria-labelledby="title-assembly-vs-mapping"><title id="title-assembly-vs-mapping">assembly-vs-mapping</title><defs><filter id="paperGrain" x="0" y="0" width="100%" height="100%"><feTurbulence type="fractalNoise" baseFrequency="0.9" numOctaves="2" seed="19" result="noise"/><feColorMatrix type="saturate" values="0"/><feBlend in="SourceGraphic" in2="noise" mode="multiply"/></filter><marker id="arrowCream" viewBox="0 0 10 10" refX="8" refY="5" markerWidth="8" markerHeight="8" orient="auto-start-reverse"><path d="M 0 0 L 10 5 L 0 10 Q 2 5 0 0" fill="#EE8B4F"/></marker><marker id="arrowInk" viewBox="0 0 10 10" refX="8" refY="5" markerWidth="7" markerHeight="7" orient="auto-start-reverse"><path d="M 0 0 L 10 5 L 0 10 Q 2 5 0 0" fill="#1F1A17"/></marker><linearGradient id="qualityGradient" x1="0%" x2="100%" y1="0%" y2="0%"><stop offset="0%" stop-color="#FAF4EA"/><stop offset="35%" stop-color="#F6B088"/><stop offset="100%" stop-color="#EE8B4F"/></linearGradient></defs><rect width="100%" height="100%" fill="#FAF4EA"/><rect width="100%" height="100%" fill="#FAF4EA" filter="url(#paperGrain)" opacity="0.34"/><g><g><line x1="700" y1="78" x2="700" y2="528" stroke="#8A847A" stroke-width="3" stroke-linecap="butt" opacity="1"/><path d="M 700 79.5 L 700 80.8 L 700 79.2 L 700 78.3 L 700 80.1" fill="none" stroke="#8A847A" stroke-width="1" stroke-linecap="butt" stroke-linejoin="round" opacity="0.32"/></g><text x="350" y="91.1" fill="#1F1A17" font-family="Inter, Helvetica, sans-serif" font-size="32" font-weight="700" text-anchor="middle" transform="rotate(-0.8 350 91.1)">mapping</text><g><line x1="135" y1="285" x2="590" y2="285" stroke="#1F1A17" stroke-width="7" stroke-linecap="round" opacity="1"/><path d="M 135 286.5 L 248.8 287.8 L 362.5 286.2 L 476.3 285.3 L 590 287.1" fill="none" stroke="#1F1A17" stroke-width="1.54" stroke-linecap="round" stroke-linejoin="round" opacity="0.32"/></g><g><g><path d="M 165 155 C 186.25 150 226.2 160 250 155" fill="none" stroke="#EE8B4F" stroke-width="7" stroke-linecap="round" stroke-linejoin="round" opacity="1" marker-end="url(#arrowCream)"/><path d="M 165 152.8 C 186.25 150 226.2 160 250 152.8" fill="none" stroke="#EE8B4F" stroke-width="1.54" stroke-linecap="round" stroke-linejoin="round" opacity="0.34"/><path d="M 165 157.1 C 186.25 150 226.2 160 250 157.1" fill="none" stroke="#F6B088" stroke-width="1.12" stroke-linecap="round" stroke-linejoin="round" opacity="0.28"/></g><path d="M 205 171 Q 220 225 235 278" fill="none" stroke="#EE8B4F" stroke-width="2.5" stroke-linecap="butt" stroke-linejoin="round" opacity="1"/></g><g><g><path d="M 215 197 C 236.25 192 276.2 202 300 197" fill="none" stroke="#EE8B4F" stroke-width="7" stroke-linecap="round" stroke-linejoin="round" opacity="1" marker-end="url(#arrowCream)"/><path d="M 215 194.8 C 236.25 192 276.2 202 300 194.8" fill="none" stroke="#EE8B4F" stroke-width="1.54" stroke-linecap="round" stroke-linejoin="round" opacity="0.34"/><path d="M 215 199.1 C 236.25 192 276.2 202 300 199.1" fill="none" stroke="#F6B088" stroke-width="1.12" stroke-linecap="round" stroke-linejoin="round" opacity="0.28"/></g><path d="M 255 213 Q 270 267 285 278" fill="none" stroke="#EE8B4F" stroke-width="2.5" stroke-linecap="butt" stroke-linejoin="round" opacity="1"/></g><g><g><path d="M 265 239 C 286.25 234 326.2 244 350 239" fill="none" stroke="#EE8B4F" stroke-width="7" stroke-linecap="round" stroke-linejoin="round" opacity="1" marker-end="url(#arrowCream)"/><path d="M 265 236.8 C 286.25 234 326.2 244 350 236.8" fill="none" stroke="#EE8B4F" stroke-width="1.54" stroke-linecap="round" stroke-linejoin="round" opacity="0.34"/><path d="M 265 241.1 C 286.25 234 326.2 244 350 241.1" fill="none" stroke="#F6B088" stroke-width="1.12" stroke-linecap="round" stroke-linejoin="round" opacity="0.28"/></g><path d="M 305 255 Q 320 309 335 278" fill="none" stroke="#EE8B4F" stroke-width="2.5" stroke-linecap="butt" stroke-linejoin="round" opacity="1"/></g><g><g><path d="M 315 155 C 336.25 150 376.2 160 400 155" fill="none" stroke="#EE8B4F" stroke-width="7" stroke-linecap="round" stroke-linejoin="round" opacity="1" marker-end="url(#arrowCream)"/><path d="M 315 152.8 C 336.25 150 376.2 160 400 152.8" fill="none" stroke="#EE8B4F" stroke-width="1.54" stroke-linecap="round" stroke-linejoin="round" opacity="0.34"/><path d="M 315 157.1 C 336.25 150 376.2 160 400 157.1" fill="none" stroke="#F6B088" stroke-width="1.12" stroke-linecap="round" stroke-linejoin="round" opacity="0.28"/></g><path d="M 355 171 Q 370 225 385 278" fill="none" stroke="#EE8B4F" stroke-width="2.5" stroke-linecap="butt" stroke-linejoin="round" opacity="1"/></g><g><g><path d="M 365 197 C 386.25 192 426.2 202 450 197" fill="none" stroke="#EE8B4F" stroke-width="7" stroke-linecap="round" stroke-linejoin="round" opacity="1" marker-end="url(#arrowCream)"/><path d="M 365 194.8 C 386.25 192 426.2 202 450 194.8" fill="none" stroke="#EE8B4F" stroke-width="1.54" stroke-linecap="round" stroke-linejoin="round" opacity="0.34"/><path d="M 365 199.1 C 386.25 192 426.2 202 450 199.1" fill="none" stroke="#F6B088" stroke-width="1.12" stroke-linecap="round" stroke-linejoin="round" opacity="0.28"/></g><path d="M 405 213 Q 420 267 435 278" fill="none" stroke="#EE8B4F" stroke-width="2.5" stroke-linecap="butt" stroke-linejoin="round" opacity="1"/></g><g><g><path d="M 415 239 C 436.25 234 476.2 244 500 239" fill="none" stroke="#EE8B4F" stroke-width="7" stroke-linecap="round" stroke-linejoin="round" opacity="1" marker-end="url(#arrowCream)"/><path d="M 415 236.8 C 436.25 234 476.2 244 500 236.8" fill="none" stroke="#EE8B4F" stroke-width="1.54" stroke-linecap="round" stroke-linejoin="round" opacity="0.34"/><path d="M 415 241.1 C 436.25 234 476.2 244 500 241.1" fill="none" stroke="#F6B088" stroke-width="1.12" stroke-linecap="round" stroke-linejoin="round" opacity="0.28"/></g><path d="M 455 255 Q 470 309 485 278" fill="none" stroke="#EE8B4F" stroke-width="2.5" stroke-linecap="butt" stroke-linejoin="round" opacity="1"/></g><g><g><path d="M 465 155 C 486.25 150 526.2 160 550 155" fill="none" stroke="#EE8B4F" stroke-width="7" stroke-linecap="round" stroke-linejoin="round" opacity="1" marker-end="url(#arrowCream)"/><path d="M 465 152.8 C 486.25 150 526.2 160 550 152.8" fill="none" stroke="#EE8B4F" stroke-width="1.54" stroke-linecap="round" stroke-linejoin="round" opacity="0.34"/><path d="M 465 157.1 C 486.25 150 526.2 160 550 157.1" fill="none" stroke="#F6B088" stroke-width="1.12" stroke-linecap="round" stroke-linejoin="round" opacity="0.28"/></g><path d="M 505 171 Q 520 225 535 278" fill="none" stroke="#EE8B4F" stroke-width="2.5" stroke-linecap="butt" stroke-linejoin="round" opacity="1"/></g><g><g><path d="M 515 197 C 536.25 192 576.2 202 600 197" fill="none" stroke="#EE8B4F" stroke-width="7" stroke-linecap="round" stroke-linejoin="round" opacity="1" marker-end="url(#arrowCream)"/><path d="M 515 194.8 C 536.25 192 576.2 202 600 194.8" fill="none" stroke="#EE8B4F" stroke-width="1.54" stroke-linecap="round" stroke-linejoin="round" opacity="0.34"/><path d="M 515 199.1 C 536.25 192 576.2 202 600 199.1" fill="none" stroke="#F6B088" stroke-width="1.12" stroke-linecap="round" stroke-linejoin="round" opacity="0.28"/></g><path d="M 555 213 Q 570 267 585 278" fill="none" stroke="#EE8B4F" stroke-width="2.5" stroke-linecap="butt" stroke-linejoin="round" opacity="1"/></g><text x="350" y="437.1" fill="#8A847A" font-family="Inter, Helvetica, sans-serif" font-size="23" font-weight="600" text-anchor="middle" transform="rotate(-0.8 350 437.1)">reference required</text><text x="1050" y="92.9" fill="#1F1A17" font-family="Inter, Helvetica, sans-serif" font-size="32" font-weight="700" text-anchor="middle" transform="rotate(0.8 1050 92.9)">assembly</text><g><path d="M 815 140 C 845 135 901.4 145 935 140" fill="none" stroke="#EE8B4F" stroke-width="7" stroke-linecap="round" stroke-linejoin="round" opacity="1" marker-end="url(#arrowCream)"/><path d="M 815 137.8 C 845 135 901.4 145 935 137.8" fill="none" stroke="#EE8B4F" stroke-width="1.54" stroke-linecap="round" stroke-linejoin="round" opacity="0.34"/><path d="M 815 142.1 C 845 135 901.4 145 935 142.1" fill="none" stroke="#F6B088" stroke-width="1.12" stroke-linecap="round" stroke-linejoin="round" opacity="0.28"/></g><g><path d="M 927 140 C 957 135 1013.4 145 1047 140" fill="none" stroke="#EE8B4F" stroke-width="7" stroke-linecap="round" stroke-linejoin="round" opacity="1" marker-end="url(#arrowCream)"/><path d="M 927 137.8 C 957 135 1013.4 145 1047 137.8" fill="none" stroke="#EE8B4F" stroke-width="1.54" stroke-linecap="round" stroke-linejoin="round" opacity="0.34"/><path d="M 927 142.1 C 957 135 1013.4 145 1047 142.1" fill="none" stroke="#F6B088" stroke-width="1.12" stroke-linecap="round" stroke-linejoin="round" opacity="0.28"/></g><g><path d="M 1039 140 C 1069 135 1125.4 145 1159 140" fill="none" stroke="#EE8B4F" stroke-width="7" stroke-linecap="round" stroke-linejoin="round" opacity="1" marker-end="url(#arrowCream)"/><path d="M 1039 137.8 C 1069 135 1125.4 145 1159 137.8" fill="none" stroke="#EE8B4F" stroke-width="1.54" stroke-linecap="round" stroke-linejoin="round" opacity="0.34"/><path d="M 1039 142.1 C 1069 135 1125.4 145 1159 142.1" fill="none" stroke="#F6B088" stroke-width="1.12" stroke-linecap="round" stroke-linejoin="round" opacity="0.28"/></g><g><path d="M 789 182 C 819 177 875.4 187 909 182" fill="none" stroke="#EE8B4F" stroke-width="7" stroke-linecap="round" stroke-linejoin="round" opacity="1" marker-end="url(#arrowCream)"/><path d="M 789 179.8 C 819 177 875.4 187 909 179.8" fill="none" stroke="#EE8B4F" stroke-width="1.54" stroke-linecap="round" stroke-linejoin="round" opacity="0.34"/><path d="M 789 184.1 C 819 177 875.4 187 909 184.1" fill="none" stroke="#F6B088" stroke-width="1.12" stroke-linecap="round" stroke-linejoin="round" opacity="0.28"/></g><g><path d="M 901 182 C 931 177 987.4 187 1021 182" fill="none" stroke="#EE8B4F" stroke-width="7" stroke-linecap="round" stroke-linejoin="round" opacity="1" marker-end="url(#arrowCream)"/><path d="M 901 179.8 C 931 177 987.4 187 1021 179.8" fill="none" stroke="#EE8B4F" stroke-width="1.54" stroke-linecap="round" stroke-linejoin="round" opacity="0.34"/><path d="M 901 184.1 C 931 177 987.4 187 1021 184.1" fill="none" stroke="#F6B088" stroke-width="1.12" stroke-linecap="round" stroke-linejoin="round" opacity="0.28"/></g><g><path d="M 1013 182 C 1043 177 1099.4 187 1133 182" fill="none" stroke="#EE8B4F" stroke-width="7" stroke-linecap="round" stroke-linejoin="round" opacity="1" marker-end="url(#arrowCream)"/><path d="M 1013 179.8 C 1043 177 1099.4 187 1133 179.8" fill="none" stroke="#EE8B4F" stroke-width="1.54" stroke-linecap="round" stroke-linejoin="round" opacity="0.34"/><path d="M 1013 184.1 C 1043 177 1099.4 187 1133 184.1" fill="none" stroke="#F6B088" stroke-width="1.12" stroke-linecap="round" stroke-linejoin="round" opacity="0.28"/></g><g><path d="M 763 224 C 793 219 849.4 229 883 224" fill="none" stroke="#EE8B4F" stroke-width="7" stroke-linecap="round" stroke-linejoin="round" opacity="1" marker-end="url(#arrowCream)"/><path d="M 763 221.8 C 793 219 849.4 229 883 221.8" fill="none" stroke="#EE8B4F" stroke-width="1.54" stroke-linecap="round" stroke-linejoin="round" opacity="0.34"/><path d="M 763 226.1 C 793 219 849.4 229 883 226.1" fill="none" stroke="#F6B088" stroke-width="1.12" stroke-linecap="round" stroke-linejoin="round" opacity="0.28"/></g><g><path d="M 875 224 C 905 219 961.4 229 995 224" fill="none" stroke="#EE8B4F" stroke-width="7" stroke-linecap="round" stroke-linejoin="round" opacity="1" marker-end="url(#arrowCream)"/><path d="M 875 221.8 C 905 219 961.4 229 995 221.8" fill="none" stroke="#EE8B4F" stroke-width="1.54" stroke-linecap="round" stroke-linejoin="round" opacity="0.34"/><path d="M 875 226.1 C 905 219 961.4 229 995 226.1" fill="none" stroke="#F6B088" stroke-width="1.12" stroke-linecap="round" stroke-linejoin="round" opacity="0.28"/></g><g><path d="M 987 224 C 1017 219 1073.4 229 1107 224" fill="none" stroke="#EE8B4F" stroke-width="7" stroke-linecap="round" stroke-linejoin="round" opacity="1" marker-end="url(#arrowCream)"/><path d="M 987 221.8 C 1017 219 1073.4 229 1107 221.8" fill="none" stroke="#EE8B4F" stroke-width="1.54" stroke-linecap="round" stroke-linejoin="round" opacity="0.34"/><path d="M 987 226.1 C 1017 219 1073.4 229 1107 226.1" fill="none" stroke="#F6B088" stroke-width="1.12" stroke-linecap="round" stroke-linejoin="round" opacity="0.28"/></g><text x="1050" y="314.6" fill="#8A847A" font-family="Inter, Helvetica, sans-serif" font-size="20" font-weight="600" text-anchor="middle" transform="rotate(0.5 1050 314.6)">overlap then extend</text><path d="M 850 340 L 887.1 344 L 924.3 339 L 961.4 336.3 L 998.6 342 L 1035.7 343.2 L 1072.9 337.2 L 1110 337.5" fill="none" stroke="#EE8B4F" stroke-width="8" stroke-linecap="round" stroke-linejoin="round" opacity="1"/><path d="M 910 358 L 947.1 362 L 984.3 357 L 1021.4 354.3 L 1058.6 360 L 1095.7 361.2 L 1132.9 355.2 L 1170 355.5" fill="none" stroke="#EE8B4F" stroke-width="8" stroke-linecap="round" stroke-linejoin="round" opacity="1"/><path d="M 970 376 L 1007.1 380 L 1044.3 375 L 1081.4 372.3 L 1118.6 378 L 1155.7 379.2 L 1192.9 373.2 L 1230 373.5" fill="none" stroke="#EE8B4F" stroke-width="8" stroke-linecap="round" stroke-linejoin="round" opacity="1"/><g><path d="M 1050 380 C 1050 370 1050 423 1050 413" fill="none" stroke="#EE8B4F" stroke-width="5" stroke-linecap="round" stroke-linejoin="round" opacity="1" marker-end="url(#arrowCream)"/><path d="M 1050 380 C 1050 370 1050 423 1050 413" fill="none" stroke="#EE8B4F" stroke-width="1.25" stroke-linecap="round" stroke-linejoin="round" opacity="0.32"/></g><path d="M 825 450 L 860.7 454 L 896.4 449 L 932.1 446.3 L 967.9 452 L 1003.6 453.2 L 1039.3 447.2 L 1075 447.5" fill="none" stroke="#EE8B4F" stroke-width="16" stroke-linecap="round" stroke-linejoin="round" opacity="1"/><path d="M 1000 474 L 1030.7 478 L 1061.4 473 L 1092.1 470.3 L 1122.9 476 L 1153.6 477.2 L 1184.3 471.2 L 1215 471.5" fill="none" stroke="#EE8B4F" stroke-width="16" stroke-linecap="round" stroke-linejoin="round" opacity="1"/><path d="M 1135 498 L 1160.7 502 L 1186.4 497 L 1212.1 494.3 L 1237.9 500 L 1263.6 501.2 L 1289.3 495.2 L 1315 495.5" fill="none" stroke="#EE8B4F" stroke-width="16" stroke-linecap="round" stroke-linejoin="round" opacity="1"/><text x="1050" y="535.8" fill="#8A847A" font-family="Inter, Helvetica, sans-serif" font-size="23" font-weight="600" text-anchor="middle" transform="rotate(0.8 1050 535.8)">no reference required</text></g></svg>
